{
.appVersion = "3306";
.formatVersion = 3;
axes = (
{
name = Weight;
tag = wght;
}
);
classes = (
{
code = "dotbelowcomb commaaccentcomb cedillacomb ogonekcomb";
name = acc_comb_bottom;
},
{
code = "breveacute.case brevegrave.case brevehook.case brevetilde.case circumflexacute.case circumflexbreve.case circumflexgrave.case circumflexhook.case circumflextilde.case dieresisacute.case dieresiscaron.case dieresisgrave.case dieresismacron.case hookabovecomb.case";
name = acc_comb_case;
},
{
code = "breveacute brevegrave brevehook brevetilde circumflexacute circumflexbreve circumflexgrave circumflexhook circumflextilde dieresisacute dieresiscaron dieresisgrave dieresismacron hookabovecomb";
name = acc_comb_dflt;
},
{
code = "acutecomb breveacute brevecomb brevegrave brevehook brevetilde caroncomb commaaboverightcomb circumflexacute circumflexbreve circumflexcomb circumflexgrave circumflexhook circumflextilde commaturnedabovecomb dieresisacute dieresiscaron dieresiscomb dieresisgrave dieresismacron dotaccentcomb gravecomb hookabovecomb horncomb hungarumlautcomb macroncomb ringcomb tildecomb";
name = acc_comb_top;
},
{
code = "a.alt01 aacute.alt01 abreve.alt01 acircumflex.alt01 adieresis.alt01 adotbelow.alt01 agrave.alt01 ahookabove.alt01 amacron.alt01 aogonek.alt01 aring.alt01 aringacute.alt01 atilde.alt01 abreveacute.alt01 abrevedotbelow.alt01 abrevegrave.alt01 abrevehookabove.alt01 abrevetilde.alt01 acircumflexacute.alt01 acircumflexdotbelow.alt01 acircumflexgrave.alt01 acircumflexhookabove.alt01 acircumflextilde.alt01
";
name = lca_alt1;
},
{
code = "a-cy.alt01 adieresis-cy.alt01 abreve-cy.alt01
";
name = lca_cyrl_alt1;
},
{
code = "a-cy adieresis-cy abreve-cy
";
name = lca_cyrl_dflt;
},
{
code = "a aacute abreve acircumflex adieresis adotbelow agrave ahookabove amacron aogonek aring aringacute atilde abreveacute abrevedotbelow abrevegrave abrevehookabove abrevetilde acircumflexacute acircumflexdotbelow acircumflexgrave acircumflexhookabove acircumflextilde
";

glyphs = (
{
glyphname = A;
layers = (
{
anchors = (
{
name = bottom;
pos = (257,0);
},
{
name = bottomright;
pos = (505,0);
},
{
name = top;
pos = (374,698);
}
);
layerId = m001;
shapes = (
{
closed = 1;
nodes = (
(388,698,l),
(358,698,l),
(9,0,l),
(33,0,l),
(150,234,l),
(444,234,l),
(483,0,l),
(505,0,l)
);
},
{
closed = 1;
nodes = (
(159,253,l),
(368,673,l),
(371,673,l),
(441,253,l)
);
}
);
userData = {
com.typemytype.robofont.pointLabels = {
};
};
width = 600;
},
{
anchors = (
{
name = bottom;
pos = (264,0);
},
{
name = bottomright;
pos = (528,0);
},
{
name = top;
pos = (374,698);
}
);
layerId = m002;
shapes = (
{
closed = 1;
nodes = (
(431,698,l),
(321,698,l),
(-9,0,l),
(79,0,l),
(171,199,l),
(417,199,l),
(442,0,l),
(528,0,l)
);
},
{
closed = 1;
nodes = (
(202,272,l),
(357,614,l),
(366,614,l),
(409,272,l)
);
}
);
userData = {
com.typemytype.robofont.pointLabels = {
};
};
width = 600;
},
{
anchors = (
{
name = bottom;
pos = (261,0);
},
{
name = bottomright;
pos = (552,0);
},
{
name = top;
pos = (370,698);
}
);
layerId = m003;
shapes = (
{
closed = 1;
nodes = (
(476,698,l),
(270,698,l),
(-37,0,l),
(118,0,l),
(187,169,l),
(383,169,l),
(400,0,l),
(552,0,l)
);
},
{
closed = 1;
nodes = (
(237,289,l),
(347,553,l),
(356,553,l),
(377,289,l)
);
}
);
userData = {
com.typemytype.robofont.pointLabels = {
};
};
width = 600;
}
);
unicode = 65;
},
{
glyphname = Aogonek;
lastChange = "2024-07-30 19:28:21 +0000";
layers = (
{
anchors = (
{
name = bottom;
pos = (257,0);
},
{
name = top;
pos = (374,698);
}
);
layerId = m001;
shapes = (
{
closed = 1;
nodes = (
(448,-202,o),
(476,-188,o),
(491,-170,c),
(478,-159,l),
(466,-171,o),
(446,-184,o),
(414,-184,cs),
(385,-184,o),
(361,-169,o),
(361,-137,cs),
(361,-86,o),
(404,-58,o),
(505,0,c),
(388,698,l),
(358,698,l),
(9,0,l),
(33,0,l),
(150,234,l),
(444,234,l),
(483,1,l),
(483,1,l),
(483,1,l),
(363,-58,o),
(340,-100,o),
(340,-137,cs),
(340,-182,o),
(373,-202,o),
(414,-202,cs)
);
},
{
closed = 1;
nodes = (
(368,673,l),
(371,673,l),
(441,253,l),
(159,253,l)
);
}
);
userData = {
com.typemytype.robofont.pointLabels = {
};
};
width = 600;
},
{
anchors = (
{
name = bottom;
pos = (264,0);
},
{
name = top;
pos = (374,698);
}
);
layerId = m002;
shapes = (
{
closed = 1;
nodes = (
(484,-207,o),
(517,-189,o),
(535,-170,c),
(497,-127,l),
(478,-144,o),
(458,-153,o),
(441,-153,cs),
(423,-153,o),
(407,-144,o),
(407,-122,cs),
(407,-101,o),
(421,-70,o),
(528,0,c),
(431,698,l),
(321,698,l),
(-9,0,l),
(79,0,l),
(171,199,l),
(417,199,l),
(442,0,l),
(465,0,l),
(465,-5,l),
(390,-40,o),
(339,-77,o),
(339,-132,cs),
(339,-186,o),
(386,-207,o),
(437,-207,cs)
);
},
{
closed = 1;
nodes = (
(357,614,l),
(366,614,l),
(409,272,l),
(202,272,l)
);
}
);
userData = {
com.typemytype.robofont.pointLabels = {
};
};
width = 600;
},
{
anchors = (
{
name = bottom;
pos = (261,0);
},
{
name = top;
pos = (370,698);
}
);
layerId = m003;
shapes = (
{
closed = 1;
nodes = (
(516,-212,o),
(555,-190,o),
(580,-158,c),
(526,-113,l),
(512,-134,o),
(493,-140,o),
(473,-140,cs),
(447,-140,o),
(436,-127,o),
(436,-110,cs),
(436,-90,o),
(447,-63,o),
(552,0,c),
(476,698,l),
(270,698,l),
(-37,0,l),
(118,0,l),
(187,169,l),
(383,169,l),
(400,0,l),
(476,0,l),
(477,-4,l),
(378,-30,o),
(337,-78,o),
(337,-127,cs),
(337,-182,o),
(388,-212,o),
(459,-212,cs)
);
},
{
closed = 1;
nodes = (
(347,553,l),
(356,553,l),
(377,289,l),
(237,289,l)
);
}
);
userData = {
com.typemytype.robofont.pointLabels = {
};
};
width = 600;
}
);
unicode = 260;
},
{
glyphname = AE;
layers = (
{
anchors = (
{
name = top;
pos = (404,698);
}
);
layerId = m001;
shapes = (
{
closed = 1;
nodes = (
(501,0,l),
(504,20,l),
(303,20,l),
(357,344,l),
(544,344,l),
(548,364,l),
(361,364,l),
(413,678,l),
(614,678,l),
(617,698,l),
(329,698,l),
(-10,0,l),
(14,0,l),
(127,234,l),
(317,234,l),
(278,0,l)
);
},
{
closed = 1;
nodes = (
(320,253,l),
(136,253,l),
(342,678,l),
(391,678,l)
);
}
);
userData = {
com.typemytype.robofont.pointLabels = {
};
};
width = 600;
},
{
anchors = (
{
name = top;
pos = (419,698);
}
);
layerId = m002;
shapes = (
{
closed = 1;
nodes = (
(512,0,l),
(523,69,l),
(356,69,l),
(397,319,l),
(553,319,l),
(564,388,l),
(408,388,l),
(448,629,l),
(616,629,l),
(627,698,l),
(297,698,l),
(-23,0,l),
(62,0,l),
(151,201,l),
(299,201,l),
(266,0,l)
);
},
{
closed = 1;
nodes = (
(311,270,l),
(181,270,l),
(344,638,l),
(372,638,l)
);
}
);
userData = {
com.typemytype.robofont.pointLabels = {
};
};
width = 600;
},
{
anchors = (
{
name = top;
pos = (454,698);
}
);
layerId = m003;
shapes = (
{
closed = 1;
nodes = (
(571,0,l),
(589,110,l),
(434,110,l),
(466,298,l),
(611,298,l),
(629,408,l),
(484,408,l),
(514,588,l),
(670,588,l),
(688,698,l),
(273,698,l),
(-3,0,l),
(141,0,l),
(204,169,l),
(308,169,l),
(280,0,l)
);
},
{
closed = 1;
nodes = (
(327,279,l),
(243,279,l),
(357,595,l),
(380,595,l)
);
}
);
userData = {
com.typemytype.robofont.pointLabels = {
};
};
width = 600;
}
);
unicode = 198;
},
{
glyphname = B;
layers = (
{
anchors = (
{
name = bottom;
pos = (250,0);
},
{
name = top;
pos = (346,698);
}
);
layerId = m001;
shapes = (
{
closed = 1;
nodes = (
(306,0,ls),
(436,0,o),
(509,75,o),
(509,216,cs),
(509,286,o),
(475,340,o),
(407,354,c),
(407,357,l),
(496,380,o),
(533,458,o),
(533,549,cs),
(533,646,o),
(478,698,o),
(379,698,cs),
(175,698,l),
(59,0,l)
);
},
{
closed = 1;
nodes = (
(138,344,l),
(357,344,ls),
(448,344,o),
(487,286,o),
(487,216,cs),
(487,206,o),
(487,198,o),
(485,186,cs),
(479,149,ls),
(467,75,o),
(408,20,o),
(306,20,cs),
(84,20,l)
);
},
{
closed = 1;
nodes = (
(194,678,l),
(379,678,ls),
(473,678,o),
(511,626,o),
(511,555,cs),
(511,546,o),
(511,541,o),
(509,527,cs),
(504,495,ls),
(493,422,o),
(439,364,o),
(345,364,cs),
(142,364,l)
);
}
);
userData = {
com.typemytype.robofont.pointLabels = {
};
};
width = 600;
},
{
anchors = (
{
name = bottom;
pos = (266,0);
},
{
name = top;
pos = (360,698);
}
);
layerId = m002;
shapes = (
{
closed = 1;
nodes = (
(313,0,ls),
(442,0,o),
(531,106,o),
(531,222,cs),
(531,305,o),
(485,343,o),
(423,362,c),
(424,366,l),
(501,387,o),
(556,445,o),
(556,537,cs),
(556,635,o),
(497,698,o),
(388,698,cs),
(163,698,l),
(46,0,l)
);
},
{
closed = 1;
nodes = (
(182,327,l),
(338,327,ls),
(407,327,o),
(447,296,o),
(447,245,cs),
(447,232,o),
(445,220,o),
(443,208,cs),
(438,178,ls),
(426,106,o),
(376,72,o),
(296,72,cs),
(139,72,l)
);
},
{
closed = 1;
nodes = (
(231,626,l),
(374,626,ls),
(434,626,o),
(472,604,o),
(472,551,cs),
(472,541,o),
(471,531,o),
(469,519,cs),
(464,489,ls),
(454,429,o),
(411,395,o),
(336,395,cs),
(193,395,l)
);
}
);
userData = {
com.typemytype.robofont.pointLabels = {
};
};
width = 600;
},
{
anchors = (
{
name = bottom;
pos = (260,0);
},
{
name = top;
pos = (365,698);
}
);
layerId = m003;
shapes = (
{
closed = 1;
nodes = (
(305,0,ls),
(453,0,o),
(544,86,o),
(544,217,cs),
(544,291,o),
(503,336,o),
(430,350,c),
(431,355,l),
(528,379,o),
(576,441,o),
(576,537,cs),
(576,634,o),
(510,698,o),
(389,698,cs),
(152,698,l),
(35,0,l)
);
},
{
closed = 1;
nodes = (
(230,303,l),
(312,303,ls),
(372,303,o),
(397,284,o),
(397,238,cs),
(397,230,o),
(394,215,o),
(392,203,cs),
(388,179,ls),
(379,125,o),
(339,104,o),
(273,104,cs),
(197,104,l)
);
},
{
closed = 1;
nodes = (
(279,594,l),
(343,594,ls),
(396,594,o),
(426,578,o),
(426,533,cs),
(426,524,o),
(424,508,o),
(423,502,cs),
(419,478,ls),
(409,418,o),
(374,402,o),
(304,402,cs),
(247,402,l)
);
}
);
userData = {
com.typemytype.robofont.pointLabels = {
};
};
width = 600;
}
);
unicode = 66;
},
{
glyphname = C;
layers = (
{
anchors = (
{
name = bottom;
pos = (278,0);
},
{
name = top;
pos = (385,698);
}
);
layerId = m001;
shapes = (
{
closed = 1;
nodes = (
(376,-12,o),
(439,34,o),
(498,142,c),
(479,151,l),
(429,56,o),
(369,8,o),
(280,8,cs),
(173,8,o),
(111,79,o),
(111,219,cs),
(111,253,o),
(112,291,o),
(119,331,cs),
(129,390,ls),
(162,582,o),
(259,690,o),
(380,690,cs),
(472,690,o),
(514,642,o),
(537,563,c),
(557,569,l),
(532,656,o),
(482,710,o),
(381,710,cs),
(182,710,o),
(90,461,o),
(90,219,cs),
(90,58,o),
(168,-12,o),
(280,-12,cs)
);
}
);
userData = {
com.typemytype.robofont.pointLabels = {
};
};
width = 600;
},
{
anchors = (
{
name = bottom;
pos = (290,0);
},
{
name = top;
pos = (392,698);
}
);
layerId = m002;
shapes = (
{
closed = 1;
nodes = (
(412,-12,o),
(479,55,o),
(532,165,c),
(467,198,l),
(414,104,o),
(376,60,o),
(296,60,cs),
(200,60,o),
(160,123,o),
(160,219,cs),
(160,247,o),
(163,277,o),
(168,307,cs),
(184,403,ls),
(208,547,o),
(273,638,o),
(385,638,cs),
(468,638,o),
(494,588,o),
(508,528,c),
(582,552,l),
(567,629,o),
(520,710,o),
(391,710,cs),
(138,710,o),
(78,401,o),
(78,240,cs),
(78,78,o),
(142,-12,o),
(287,-12,cs)
);
}
);
userData = {
com.typemytype.robofont.pointLabels = {
};
};
width = 600;
},
{
anchors = (
{
name = bottom;
pos = (293,0);
},
{
name = top;
pos = (373,698);
}
);
layerId = m003;
shapes = (
{
closed = 1;
nodes = (
(425,-12,o),
(504,58,o),
(559,189,c),
(432,227,l),
(405,161,o),
(364,108,o),
(300,108,cs),
(227,108,o),
(199,151,o),
(199,221,cs),
(199,253,o),
(203,275,o),
(207,299,cs),
(225,408,ls),
(244,520,o),
(285,590,o),
(367,590,cs),
(439,590,o),
(457,542,o),
(461,476,c),
(604,505,l),
(597,626,o),
(528,710,o),
(373,710,cs),
(176,710,o),
(50,525,o),
(50,254,cs),
(50,87,o),
(126,-12,o),
(290,-12,cs)
);
}
);
userData = {
com.typemytype.robofont.pointLabels = {
};
};
width = 600;
}
);
unicode = 67;
},
{
glyphname = Ccedilla;
layers = (
{
anchors = (
{
name = top;
pos = (385,698);
}
);
layerId = m001;
shapes = (
{
closed = 1;
nodes = (
(472,690,o),
(514,642,o),
(537,563,c),
(557,569,l),
(532,656,o),
(482,710,o),
(381,710,cs),
(182,710,o),
(90,461,o),
(90,219,cs),
(90,66,o),
(161,-5,o),
(264,-12,c),
(234,-84,l),
(272,-86,ls),
(311,-88,o),
(325,-104,o),
(325,-127,cs),
(325,-160,o),
(297,-184,o),
(254,-184,cs),
(226,-184,o),
(205,-174,o),
(192,-157,c),
(178,-170,l),
(190,-187,o),
(217,-202,o),
(254,-202,cs),
(311,-202,o),
(346,-167,o),
(346,-126,cs),
(346,-93,o),
(324,-72,o),
(287,-72,cs),
(279,-72,o),
(267,-73,o),
(258,-75,c),
(256,-73,l),
(282,-12,l),
(376,-12,o),
(439,34,o),
(498,142,c),
(479,151,l),
(429,56,o),
(369,8,o),
(280,8,cs),
(173,8,o),
(111,79,o),
(111,219,cs),
(111,253,o),
(112,291,o),
(119,331,cs),
(129,390,ls),
(162,582,o),
(259,690,o),
(380,690,cs)
);
}
);
userData = {
com.typemytype.robofont.pointLabels = {
};
};
width = 600;
},
{
anchors = (
{
name = top;
pos = (392,698);
}
);
layerId = m002;
shapes = (
{
closed = 1;
nodes = (
(468,638,o),
(494,588,o),
(508,528,c),
(582,552,l),
(567,629,o),
(520,710,o),
(391,710,cs),
(138,710,o),
(78,401,o),
(78,240,cs),
(78,88,o),
(134,0,o),
(259,-11,c),
(236,-76,l),
(265,-80,ls),
(316,-87,o),
(325,-105,o),
(325,-119,cs),
(325,-141,o),
(304,-153,o),
(275,-153,cs),
(246,-153,o),
(229,-141,o),
(219,-126,c),
(179,-166,l),
(192,-187,o),
(223,-207,o),
(275,-207,cs),
(336,-207,o),
(390,-181,o),
(390,-119,cs),
(390,-80,o),
(368,-60,o),
(331,-60,cs),
(323,-60,o),
(308,-61,o),
(294,-64,c),
(292,-61,l),
(310,-11,l),
(420,-3,o),
(482,62,o),
(532,165,c),
(467,198,l),
(414,104,o),
(376,60,o),
(296,60,cs),
(200,60,o),
(160,123,o),
(160,219,cs),
(160,247,o),
(163,277,o),
(168,307,cs),
(184,403,ls),
(208,547,o),
(273,638,o),
(385,638,cs)
);
}
);
userData = {
com.typemytype.robofont.pointLabels = {
};
};
width = 600;
},
{
anchors = (
{
name = top;
pos = (373,698);
}
);
layerId = m003;
shapes = (
{
closed = 1;
nodes = (
(439,590,o),
(457,542,o),
(461,476,c),
(604,505,l),
(597,626,o),
(528,710,o),
(373,710,cs),
(176,710,o),
(50,525,o),
(50,254,cs),
(50,99,o),
(115,4,o),
(255,-11,c),
(231,-74,l),
(254,-76,ls),
(306,-81,o),
(322,-95,o),
(322,-112,cs),
(322,-132,o),
(301,-141,o),
(272,-141,cs),
(242,-141,o),
(221,-125,o),
(211,-113,c),
(160,-166,l),
(179,-191,o),
(219,-212,o),
(275,-212,cs),
(356,-212,o),
(418,-178,o),
(418,-110,cs),
(418,-74,o),
(389,-52,o),
(352,-52,cs),
(339,-52,o),
(325,-54,o),
(310,-59,c),
(307,-55,l),
(323,-11,l),
(438,0,o),
(508,69,o),
(559,189,c),
(432,227,l),
(405,161,o),
(364,108,o),
(300,108,cs),
(227,108,o),
(199,151,o),
(199,221,cs),
(199,253,o),
(203,275,o),
(207,299,cs),
(225,408,ls),
(244,520,o),
(285,590,o),
(367,590,cs)
);
}
);
userData = {
com.typemytype.robofont.pointLabels = {
};
};
width = 600;
}
);
unicode = 199;
},
{
glyphname = D;
layers = (
{
anchors = (
{
name = bottom;
pos = (242,0);
},
{
name = top;
pos = (345,698);
}
);
layerId = m001;
shapes = (
{
closed = 1;
nodes = (
(260,0,ls),
(472,0,o),
(552,228,o),
(552,469,cs),
(552,620,o),
(466,698,o),
(343,698,cs),
(181,698,l),
(65,0,l)
);
},
{
closed = 1;
nodes = (
(200,678,l),
(344,678,ls),
(460,678,o),
(531,603,o),
(531,468,cs),
(531,434,o),
(530,397,o),
(523,357,cs),
(513,298,ls),
(482,115,o),
(389,20,o),
(260,20,cs),
(90,20,l)
);
}
);
userData = {
com.typemytype.robofont.pointLabels = {
};
};
width = 600;
},
{
anchors = (
{
name = bottom;
pos = (242,0);
},
{
name = top;
pos = (343,698);
}
);
layerId = m002;
shapes = (
{
closed = 1;
nodes = (
(248,0,ls),
(443,0,o),
(565,148,o),
(565,473,cs),
(565,602,o),
(489,698,o),
(343,698,cs),
(172,698,l),
(55,0,l)
);
},
{
closed = 1;
nodes = (
(242,626,l),
(333,626,ls),
(431,626,o),
(483,572,o),
(483,471,cs),
(483,443,o),
(480,409,o),
(476,385,cs),
(460,289,ls),
(436,146,o),
(366,72,o),
(255,72,cs),
(149,72,l)
);
}
);
userData = {
com.typemytype.robofont.pointLabels = {
};
};
width = 600;
},
{
anchors = (
{
name = bottom;
pos = (238,0);
},
{
name = top;
pos = (345,698);
}
);
layerId = m003;
shapes = (
{
closed = 1;
nodes = (
(252,0,ls),
(469,0,o),
(588,166,o),
(588,441,cs),
(588,606,o),
(503,698,o),
(347,698,cs),
(142,698,l),
(25,0,l)
);
},
{
closed = 1;
nodes = (
(269,581,l),
(334,581,ls),
(405,581,o),
(439,545,o),
(439,469,cs),
(439,450,o),
(437,425,o),
(433,401,cs),
(412,275,ls),
(394,167,o),
(344,117,o),
(255,117,cs),
(192,117,l)
);
}
);
userData = {
com.typemytype.robofont.pointLabels = {
};
};
width = 600;
}
);
unicode = 68;
},
{
glyphname = Dcroat;
layers = (
{
layerId = m001;
shapes = (
{
closed = 1;
nodes = (
(260,0,ls),
(472,0,o),
(552,228,o),
(552,469,cs),
(552,620,o),
(466,698,o),
(343,698,cs),
(181,698,l),
(128,378,l),
(52,378,l),
(49,359,l),
(125,359,l),
(65,0,l)
);
},
{
closed = 1;
nodes = (
(147,359,l),
(343,359,l),
(346,378,l),
(150,378,l),
(200,678,l),
(344,678,ls),
(460,678,o),
(531,603,o),
(531,468,cs),
(531,434,o),
(530,397,o),
(523,357,cs),
(513,298,ls),
(482,115,o),
(389,20,o),
(260,20,cs),
(90,20,l)
);
}
);
userData = {
com.typemytype.robofont.pointLabels = {
};
};
width = 600;
},
{
layerId = m002;
shapes = (
{
closed = 1;
nodes = (
(248,0,ls),
(443,0,o),
(565,148,o),
(565,473,cs),
(565,602,o),
(489,698,o),
(343,698,cs),
(172,698,l),
(122,399,l),
(41,399,l),
(31,337,l),
(111,337,l),
(55,0,l)
);
},
{
closed = 1;
nodes = (
(194,337,l),
(333,337,l),
(343,399,l),
(204,399,l),
(242,626,l),
(333,626,ls),
(431,626,o),
(483,572,o),
(483,471,cs),
(483,443,o),
(480,409,o),
(476,385,cs),
(460,289,ls),
(436,146,o),
(366,72,o),
(255,72,cs),
(149,72,l)
);
}
);
userData = {
com.typemytype.robofont.pointLabels = {
};
};
width = 600;
},
{
layerId = m003;
shapes = (
{
closed = 1;
nodes = (
(252,0,ls),
(469,0,o),
(588,166,o),
(588,441,cs),
(588,606,o),
(503,698,o),
(347,698,cs),
(142,698,l),
(97,424,l),
(39,424,l),
(20,312,l),
(77,312,l),
(25,0,l)
);
},
{
closed = 1;
nodes = (
(225,317,l),
(335,317,l),
(352,419,l),
(242,419,l),
(269,581,l),
(334,581,ls),
(405,581,o),
(439,545,o),
(439,469,cs),
(439,450,o),
(437,425,o),
(433,401,cs),
(412,275,ls),
(394,167,o),
(344,117,o),
(255,117,cs),
(192,117,l)
);
}
);
userData = {
com.typemytype.robofont.pointLabels = {
};
};
width = 600;
}
);
unicode = 272;
},
{
glyphname = E;
layers = (
{
anchors = (
{
name = bottom;
pos = (268,0);
},
{
name = bottomright;
pos = (471,0);
},
{
name = top;
pos = (385,698);
}
);
layerId = m001;
shapes = (
{
closed = 1;
nodes = (
(474,20,l),
(90,20,l),
(144,344,l),
(514,344,l),
(518,364,l),
(148,364,l),
(200,678,l),
(584,678,l),
(587,698,l),
(181,698,l),
(65,0,l),
(471,0,l)
);
}
);
userData = {
com.typemytype.robofont.pointLabels = {
};
};
width = 600;
},
{
anchors = (
{
name = bottom;
pos = (279,0);
},
{
name = bottomright;
pos = (477,0);
},
{
name = top;
pos = (379,698);
}
);
layerId = m002;
shapes = (
{
closed = 1;
nodes = (
(489,72,l),
(141,72,l),
(182,318,l),
(517,318,l),
(529,390,l),
(194,390,l),
(234,626,l),
(580,626,l),
(592,698,l),
(164,698,l),
(47,0,l),
(477,0,l)
);
}
);
userData = {
com.typemytype.robofont.pointLabels = {
};
};
width = 600;
},
{
anchors = (
{
name = bottom;
pos = (283,0);
},
{
name = bottomright;
pos = (484,0);
},
{
name = top;
pos = (373,698);
}
);
layerId = m003;
shapes = (
{
closed = 1;
nodes = (
(504,122,l),
(205,122,l),
(233,292,l),
(520,292,l),
(540,414,l),
(254,414,l),
(281,576,l),
(581,576,l),
(601,698,l),
(155,698,l),
(38,0,l),
(484,0,l)
);
}
);
userData = {
com.typemytype.robofont.pointLabels = {
};
};
width = 600;
}
);
unicode = 69;
},
{
glyphname = Eogonek;
layers = (
{
anchors = (
{
name = bottom;
pos = (268,0);
},
{
name = top;
pos = (385,698);
}
);
layerId = m001;
shapes = (
{
closed = 1;
nodes = (
(442,0,l),
(443,-2,l),
(329,-58,o),
(306,-100,o),
(306,-137,cs),
(306,-182,o),
(339,-202,o),
(380,-202,cs),
(414,-202,o),
(442,-188,o),
(457,-170,c),
(444,-159,l),
(432,-171,o),
(412,-184,o),
(380,-184,cs),
(351,-184,o),
(327,-169,o),
(327,-137,cs),
(327,-86,o),
(370,-58,o),
(471,0,c),
(474,20,l),
(90,20,l),
(144,344,l),
(514,344,l),
(518,364,l),
(148,364,l),
(200,678,l),
(584,678,l),
(587,698,l),
(181,698,l),
(65,0,l)
);
}
);
userData = {
com.typemytype.robofont.pointLabels = {
};
};
width = 600;
},
{
anchors = (
{
name = bottom;
pos = (279,0);
},
{
name = top;
pos = (379,698);
}
);
layerId = m002;
shapes = (
{
closed = 1;
nodes = (
(414,0,l),
(415,-5,l),
(338,-39,o),
(288,-77,o),
(288,-132,cs),
(288,-186,o),
(335,-207,o),
(386,-207,cs),
(433,-207,o),
(466,-189,o),
(484,-170,c),
(446,-127,l),
(427,-144,o),
(407,-153,o),
(390,-153,cs),
(372,-153,o),
(356,-144,o),
(356,-122,cs),
(356,-101,o),
(370,-70,o),
(477,0,c),
(489,72,l),
(141,72,l),
(182,318,l),
(517,318,l),
(529,390,l),
(194,390,l),
(234,626,l),
(580,626,l),
(592,698,l),
(164,698,l),
(47,0,l)
);
}
);
userData = {
com.typemytype.robofont.pointLabels = {
};
};
width = 600;
},
{
anchors = (
{
name = bottom;
pos = (283,0);
},
{
name = top;
pos = (373,698);
}
);
layerId = m003;
shapes = (
{
closed = 1;
nodes = (
(408,0,l),
(409,-4,l),
(310,-30,o),
(269,-78,o),
(269,-127,cs),
(269,-182,o),
(320,-212,o),
(391,-212,cs),
(448,-212,o),
(487,-190,o),
(512,-158,c),
(458,-113,l),
(444,-134,o),
(425,-140,o),
(405,-140,cs),
(379,-140,o),
(368,-127,o),
(368,-110,cs),
(368,-90,o),
(379,-63,o),
(484,0,c),
(504,122,l),
(205,122,l),
(234,292,l),
(520,292,l),
(540,414,l),
(254,414,l),
(281,576,l),
(581,576,l),
(601,698,l),
(155,698,l),
(38,0,l)
);
}
);
userData = {
com.typemytype.robofont.pointLabels = {
};
};
width = 600;
}
);
unicode = 280;
},
{
glyphname = Schwa;
lastChange = "2024-07-30 19:30:01 +0000";
layers = (
{
layerId = m001;
shapes = (
{
closed = 1;
nodes = (
(466,-12,o),
(550,237,o),
(550,479,cs),
(550,640,o),
(484,710,o),
(362,710,cs),
(253,710,o),
(177,641,o),
(130,541,c),
(150,532,l),
(195,634,o),
(269,690,o),
(362,690,cs),
(479,690,o),
(529,619,o),
(529,479,cs),
(529,445,o),
(528,407,o),
(521,367,cs),
(516,340,l),
(83,340,l),
(81,329,l),
(77,293,o),
(76,255,o),
(76,219,cs),
(76,58,o),
(141,-12,o),
(262,-12,cs)
);
},
{
closed = 1;
nodes = (
(146,8,o),
(97,79,o),
(97,219,cs),
(97,250,o),
(98,284,o),
(103,320,c),
(513,320,l),
(511,308,ls),
(478,116,o),
(389,8,o),
(262,8,cs)
);
}
);
userData = {
com.typemytype.robofont.pointLabels = {
};
};
width = 600;
},
{
layerId = m002;
shapes = (
{
closed = 1;
nodes = (
(508,-12,o),
(570,298,o),
(570,464,cs),
(570,625,o),
(511,710,o),
(372,710,cs),
(245,710,o),
(160,638,o),
(113,532,c),
(177,499,l),
(220,585,o),
(275,639,o),
(365,639,cs),
(454,639,o),
(490,585,o),
(490,490,cs),
(490,467,o),
(488,437,o),
(482,402,cs),
(477,371,l),
(75,371,l),
(69,332,ls),
(65,307,o),
(62,253,o),
(62,221,cs),
(62,74,o),
(126,-12,o),
(258,-12,cs)
);
},
{
closed = 1;
nodes = (
(172,59,o),
(142,122,o),
(142,212,cs),
(142,235,o),
(144,266,o),
(150,303,c),
(466,303,l),
(464,291,ls),
(441,151,o),
(377,59,o),
(265,59,cs)
);
}
);
userData = {
com.typemytype.robofont.pointLabels = {
};
};
width = 600;
},
{
layerId = m003;
shapes = (
{
closed = 1;
nodes = (
(505,-12,o),
(597,209,o),
(597,423,cs),
(597,620,o),
(520,710,o),
(365,710,cs),
(232,710,o),
(137,643,o),
(88,515,c),
(213,466,l),
(242,541,o),
(278,591,o),
(351,591,cs),
(421,591,o),
(451,545,o),
(451,468,cs),
(451,454,o),
(450,434,o),
(446,410,cs),
(444,398,l),
(56,398,l),
(48,348,ls),
(42,312,o),
(41,275,o),
(41,256,cs),
(41,85,o),
(119,-12,o),
(273,-12,cs)
);
},
{
closed = 1;
nodes = (
(210,105,o),
(183,147,o),
(183,212,cs),
(183,234,o),
(186,267,o),
(191,291,c),
(427,291,l),
(426,285,ls),
(407,171,o),
(363,105,o),
(278,105,cs)
);
}
);
userData = {
com.typemytype.robofont.pointLabels = {
};
};
width = 600;
}
);
unicode = 399;
},
{
glyphname = F;
layers = (
{
anchors = (
{
name = bottom;
pos = (76,0);
},
{
name = top;
pos = (385,698);
}
);
layerId = m001;
shapes = (
{
closed = 1;
nodes = (
(144,344,l),
(504,344,l),
(508,364,l),
(148,364,l),
(200,678,l),
(588,678,l),
(591,698,l),
(181,698,l),
(65,0,l),
(87,0,l)
);
}
);
userData = {
com.typemytype.robofont.pointLabels = {
};
};
width = 600;
},
{
anchors = (
{
name = bottom;
pos = (87,0);
},
{
name = top;
pos = (382,698);
}
);
layerId = m002;
shapes = (
{
closed = 1;
nodes = (
(182,317,l),
(509,317,l),
(521,389,l),
(194,389,l),
(234,626,l),
(590,626,l),
(602,698,l),
(164,698,l),
(47,0,l),
(129,0,l)
);
}
);
userData = {
com.typemytype.robofont.pointLabels = {
};
};
width = 600;
},
{
anchors = (
{
name = bottom;
pos = (112,0);
},
{
name = top;
pos = (386,698);
}
);
layerId = m003;
shapes = (
{
closed = 1;
nodes = (
(234,292,l),
(516,292,l),
(536,414,l),
(254,414,l),
(281,576,l),
(597,576,l),
(617,698,l),
(155,698,l),
(38,0,l),
(185,0,l)
);
}
);
userData = {
com.typemytype.robofont.pointLabels = {
};
};
width = 600;
}
);
unicode = 70;
},
{
glyphname = G;
layers = (
{
anchors = (
{
name = bottom;
pos = (271,0);
},
{
name = top;
pos = (378,698);
}
);
layerId = m001;
shapes = (
{
closed = 1;
nodes = (
(470,0,l),
(523,315,l),
(323,315,l),
(319,295,l),
(498,295,l),
(481,195,ls),
(462,86,o),
(388,8,o),
(284,8,cs),
(161,8,o),
(110,79,o),
(110,219,cs),
(110,253,o),
(111,291,o),
(118,331,cs),
(128,390,ls),
(161,582,o),
(249,690,o),
(376,690,cs),
(468,690,o),
(517,642,o),
(540,563,c),
(560,569,l),
(535,656,o),
(479,710,o),
(376,710,cs),
(172,710,o),
(89,461,o),
(89,219,cs),
(89,58,o),
(156,-12,o),
(284,-12,cs),
(378,-12,o),
(426,39,o),
(463,103,c),
(466,103,l),
(448,0,l)
);
}
);
userData = {
com.typemytype.robofont.pointLabels = {
};
};
width = 600;
},
{
anchors = (
{
name = bottom;
pos = (288,0);
},
{
name = top;
pos = (367,698);
}
);
layerId = m002;
shapes = (
{
closed = 1;
nodes = (
(480,0,l),
(537,344,l),
(315,344,l),
(304,278,l),
(450,278,l),
(441,224,ls),
(426,134,o),
(367,58,o),
(272,58,cs),
(184,58,o),
(150,123,o),
(150,225,cs),
(150,242,o),
(151,276,o),
(156,306,cs),
(172,402,ls),
(196,545,o),
(259,638,o),
(373,638,cs),
(456,638,o),
(482,588,o),
(496,528,c),
(570,552,l),
(555,629,o),
(508,710,o),
(379,710,cs),
(127,710,o),
(66,401,o),
(66,240,cs),
(66,74,o),
(128,-12,o),
(246,-12,cs),
(337,-12,o),
(379,40,o),
(416,102,c),
(421,102,l),
(404,0,l)
);
}
);
userData = {
com.typemytype.robofont.pointLabels = {
};
};
width = 600;
},
{
anchors = (
{
name = bottom;
pos = (298,0);
},
{
name = top;
pos = (366,698);
}
);
layerId = m003;
shapes = (
{
closed = 1;
nodes = (
(504,0,l),
(566,372,l),
(312,372,l),
(295,267,l),
(418,267,l),
(410,219,ls),
(400,159,o),
(359,108,o),
(289,108,cs),
(225,108,o),
(196,154,o),
(196,224,cs),
(196,251,o),
(200,287,o),
(204,311,cs),
(221,413,ls),
(239,521,o),
(279,590,o),
(355,590,cs),
(424,590,o),
(441,536,o),
(446,476,c),
(589,504,l),
(580,625,o),
(513,710,o),
(368,710,cs),
(154,710,o),
(45,510,o),
(45,245,cs),
(45,77,o),
(116,-12,o),
(230,-12,cs),
(311,-12,o),
(346,39,o),
(381,101,c),
(390,101,l),
(373,0,l)
);
}
);
userData = {
com.typemytype.robofont.pointLabels = {
};
};
width = 600;
}
);
unicode = 71;
},
{
glyphname = H;
layers = (
{
anchors = (
{
name = bottom;
pos = (259,0);
},
{
name = top;
pos = (374,698);
}
);
layerId = m001;
shapes = (
{
closed = 1;
nodes = (
(459,0,l),
(575,698,l),
(553,698,l),
(498,364,l),
(138,364,l),
(193,698,l),
(171,698,l),
(55,0,l),
(77,0,l),
(134,344,l),
(494,344,l),
(437,0,l)
);
}
);
userData = {
com.typemytype.robofont.pointLabels = {
};
};
width = 600;
},
{
anchors = (
{
name = bottom;
pos = (255,0);
},
{
name = top;
pos = (372,698);
}
);
layerId = m002;
shapes = (
{
closed = 1;
nodes = (
(475,0,l),
(592,698,l),
(510,698,l),
(458,390,l),
(186,390,l),
(238,698,l),
(156,698,l),
(39,0,l),
(121,0,l),
(174,318,l),
(446,318,l),
(393,0,l)
);
}
);
userData = {
com.typemytype.robofont.pointLabels = {
};
};
width = 600;
},
{
anchors = (
{
name = bottom;
pos = (256,0);
},
{
name = top;
pos = (374,698);
}
);
layerId = m003;
shapes = (
{
closed = 1;
nodes = (
(496,0,l),
(612,698,l),
(464,698,l),
(417,414,l),
(237,414,l),
(284,698,l),
(136,698,l),
(20,0,l),
(168,0,l),
(217,293,l),
(397,293,l),
(348,0,l)
);
}
);
userData = {
com.typemytype.robofont.pointLabels = {
};
};
width = 600;
}
);
unicode = 72;
},
{
glyphname = Hbar;
layers = (
{
layerId = m001;
shapes = (
{
closed = 1;
nodes = (
(459,0,l),
(548,537,l),
(632,537,l),
(636,556,l),
(551,556,l),
(575,698,l),
(553,698,l),
(530,556,l),
(169,556,l),
(193,698,l),
(171,698,l),
(147,556,l),
(64,556,l),
(60,537,l),
(144,537,l),
(55,0,l),
(77,0,l),
(134,344,l),
(494,344,l),
(437,0,l)
);
},
{
closed = 1;
nodes = (
(166,537,l),
(527,537,l),
(498,364,l),
(138,364,l)
);
}
);
userData = {
com.typemytype.robofont.pointLabels = {
};
};
width = 600;
},
{
layerId = m002;
shapes = (
{
closed = 1;
nodes = (
(475,0,l),
(562,518,l),
(632,518,l),
(642,581,l),
(572,581,l),
(592,698,l),
(510,698,l),
(491,581,l),
(218,581,l),
(238,698,l),
(156,698,l),
(137,581,l),
(67,581,l),
(57,518,l),
(126,518,l),
(39,0,l),
(121,0,l),
(174,318,l),
(446,318,l),
(393,0,l)
);
},
{
closed = 1;
nodes = (
(208,518,l),
(480,518,l),
(458,390,l),
(185,390,l)
);
}
);
userData = {
com.typemytype.robofont.pointLabels = {
};
};
width = 600;
},
{
layerId = m003;
shapes = (
{
closed = 1;
nodes = (
(496,0,l),
(581,507,l),
(633,507,l),
(652,619,l),
(599,619,l),
(612,698,l),
(464,698,l),
(450,612,l),
(270,612,l),
(284,698,l),
(136,698,l),
(123,619,l),
(71,619,l),
(52,507,l),
(105,507,l),
(20,0,l),
(168,0,l),
(217,293,l),
(397,293,l),
(348,0,l)
);
},
{
closed = 1;
nodes = (
(254,514,l),
(434,514,l),
(417,414,l),
(238,414,l)
);
}
);
userData = {
com.typemytype.robofont.pointLabels = {
};
};
width = 600;
}
);
unicode = 294;
},
{
glyphname = I;
layers = (
{
anchors = (
{
name = bottom;
pos = (257,0);
},
{
name = bottomright;
pos = (465,0);
},
{
name = top;
pos = (374,698);
}
);
layerId = m001;
shapes = (
{
closed = 1;
nodes = (
(468,19,l),
(271,19,l),
(381,679,l),
(578,679,l),
(581,698,l),
(165,698,l),
(162,679,l),
(359,679,l),
(249,19,l),
(52,19,l),
(49,0,l),
(465,0,l)
);
}
);
userData = {
com.typemytype.robofont.pointLabels = {
};
};
width = 600;
},
{
anchors = (
{
name = bottom;
pos = (261,0);
},
{
name = bottomright;
pos = (473,0);
},
{
name = top;
pos = (372,698);
}
);
layerId = m002;
shapes = (
{
closed = 1;
nodes = (
(484,66,l),
(309,66,l),
(404,632,l),
(579,632,l),
(590,698,l),
(158,698,l),
(147,632,l),
(322,632,l),
(227,66,l),
(52,66,l),
(41,0,l),
(473,0,l)
);
}
);
userData = {
com.typemytype.robofont.pointLabels = {
};
};
width = 600;
},
{
anchors = (
{
name = bottom;
pos = (258,0);
},
{
name = bottomright;
pos = (483,0);
},
{
name = top;
pos = (374,698);
}
);
layerId = m003;
shapes = (
{
closed = 1;
nodes = (
(500,110,l),
(349,110,l),
(429,588,l),
(580,588,l),
(598,698,l),
(148,698,l),
(130,588,l),
(281,588,l),
(201,110,l),
(50,110,l),
(32,0,l),
(482,0,l)
);
}
);
userData = {
com.typemytype.robofont.pointLabels = {
};
};
width = 600;
}
);
unicode = 73;
},
{
glyphname = IJ;
layers = (
{
layerId = m001;
shapes = (
{
closed = 1;
nodes = (
(450,188,ls),
(430,69,o),
(365,8,o),
(260,8,cs),
(165,8,o),
(124,57,o),
(115,132,c),
(94,128,l),
(103,42,o),
(157,-12,o),
(259,-12,cs),
(375,-12,o),
(450,56,o),
(472,189,cs),
(557,698,l),
(535,698,l)
);
},
{
closed = 1;
nodes = (
(140,271,l),
(211,698,l),
(189,698,l),
(118,271,l)
);
}
);
userData = {
com.typemytype.robofont.pointLabels = {
};
};
width = 600;
},
{
layerId = m002;
shapes = (
{
closed = 1;
nodes = (
(415,195,ls),
(400,105,o),
(351,61,o),
(269,61,cs),
(175,61,o),
(153,109,o),
(145,168,c),
(66,151,l),
(78,43,o),
(154,-12,o),
(267,-12,cs),
(386,-12,o),
(472,45,o),
(493,170,cs),
(581,698,l),
(499,698,l)
);
},
{
closed = 1;
nodes = (
(180,290,l),
(247,698,l),
(165,698,l),
(98,290,l)
);
}
);
userData = {
com.typemytype.robofont.pointLabels = {
};
};
width = 600;
},
{
layerId = m003;
shapes = (
{
closed = 1;
nodes = (
(413,212,ls),
(401,140,o),
(367,108,o),
(314,108,cs),
(250,108,o),
(231,152,o),
(228,211,c),
(89,185,l),
(92,68,o),
(163,-12,o),
(303,-12,cs),
(444,-12,o),
(536,55,o),
(561,205,cs),
(643,698,l),
(494,698,l)
);
},
{
closed = 1;
nodes = (
(263,308,l),
(328,698,l),
(180,698,l),
(115,308,l)
);
}
);
userData = {
com.typemytype.robofont.pointLabels = {
};
};
width = 600;
}
);
unicode = 306;
},
{
glyphname = Iogonek;
layers = (
{
anchors = (
{
name = bottom;
pos = (257,0);
},
{
name = top;
pos = (374,698);
}
);
layerId = m001;
shapes = (
{
closed = 1;
nodes = (
(436,0,l),
(437,-2,l),
(323,-58,o),
(300,-100,o),
(300,-137,cs),
(300,-182,o),
(333,-202,o),
(374,-202,cs),
(408,-202,o),
(436,-188,o),
(451,-170,c),
(438,-159,l),
(426,-171,o),
(406,-184,o),
(374,-184,cs),
(345,-184,o),
(321,-169,o),
(321,-137,cs),
(321,-86,o),
(364,-58,o),
(465,0,c),
(468,19,l),
(271,19,l),
(381,679,l),
(578,679,l),
(581,698,l),
(165,698,l),
(162,679,l),
(359,679,l),
(249,19,l),
(52,19,l),
(49,0,l)
);
}
);
userData = {
com.typemytype.robofont.pointLabels = {
};
};
width = 600;
},
{
anchors = (
{
name = bottom;
pos = (261,0);
},
{
name = top;
pos = (372,698);
}
);
layerId = m002;
shapes = (
{
closed = 1;
nodes = (
(410,0,l),
(411,-5,l),
(334,-39,o),
(284,-77,o),
(284,-132,cs),
(284,-186,o),
(331,-207,o),
(382,-207,cs),
(429,-207,o),
(462,-189,o),
(480,-170,c),
(442,-127,l),
(423,-144,o),
(403,-153,o),
(386,-153,cs),
(368,-153,o),
(352,-144,o),
(352,-122,cs),
(352,-101,o),
(366,-70,o),
(473,0,c),
(484,66,l),
(309,66,l),
(404,632,l),
(579,632,l),
(590,698,l),
(158,698,l),
(147,632,l),
(322,632,l),
(227,66,l),
(52,66,l),
(41,0,l)
);
}
);
userData = {
com.typemytype.robofont.pointLabels = {
};
};
width = 600;
},
{
anchors = (
{
name = bottom;
pos = (258,0);
},
{
name = top;
pos = (374,698);
}
);
layerId = m003;
shapes = (
{
closed = 1;
nodes = (
(407,0,l),
(408,-4,l),
(309,-30,o),
(268,-78,o),
(268,-127,cs),
(268,-182,o),
(319,-212,o),
(390,-212,cs),
(447,-212,o),
(486,-190,o),
(511,-158,c),
(457,-113,l),
(443,-134,o),
(424,-140,o),
(404,-140,cs),
(378,-140,o),
(367,-127,o),
(367,-110,cs),
(367,-90,o),
(377,-63,o),
(482,0,c),
(500,110,l),
(349,110,l),
(429,588,l),
(580,588,l),
(598,698,l),
(148,698,l),
(130,588,l),
(281,588,l),
(201,110,l),
(50,110,l),
(32,0,l)
);
}
);
userData = {
com.typemytype.robofont.pointLabels = {
};
};
width = 600;
}
);
unicode = 302;
},
{
glyphname = J;
lastChange = "2024-08-03 13:47:42 +0000";
layers = (
{
anchors = (
{
name = acutecomb;
pos = (387,698);
},
{
name = bottom;
pos = (236,0);
},
{
name = top;
pos = (387,698);
}
);
layerId = m001;
shapes = (
{
closed = 1;
nodes = (
(227,678,l),
(510,678,l),
(429,193,ls),
(409,75,o),
(339,8,o),
(233,8,cs),
(155,8,o),
(99,45,o),
(94,123,c),
(73,119,l),
(77,42,o),
(134,-12,o),
(234,-12,cs),
(348,-12,o),
(429,60,o),
(450,187,cs),
(535,698,l),
(230,698,l)
);
}
);
userData = {
com.typemytype.robofont.pointLabels = {
};
};
width = 600;
},
{
anchors = (
{
name = acutecomb;
pos = (387,698);
},
{
name = bottom;
pos = (252,0);
},
{
name = top;
pos = (384,698);
}
);
layerId = m002;
shapes = (
{
closed = 1;
nodes = (
(205,626,l),
(459,626,l),
(387,195,ls),
(372,105,o),
(326,61,o),
(251,61,cs),
(166,61,o),
(144,109,o),
(137,168,c),
(58,151,l),
(69,43,o),
(142,-12,o),
(249,-12,cs),
(362,-12,o),
(444,45,o),
(465,170,cs),
(553,698,l),
(217,698,l)
);
}
);
userData = {
com.typemytype.robofont.pointLabels = {
};
};
width = 600;
},
{
anchors = (
{
name = acutecomb;
pos = (391,698);
},
{
name = bottom;
pos = (241,0);
},
{
name = top;
pos = (392,698);
}
);
layerId = m003;
shapes = (
{
closed = 1;
nodes = (
(181,576,l),
(415,576,l),
(353,206,ls),
(342,140,o),
(307,108,o),
(254,108,cs),
(190,108,o),
(171,152,o),
(168,211,c),
(29,185,l),
(32,68,o),
(103,-12,o),
(243,-12,cs),
(389,-12,o),
(476,60,o),
(500,202,cs),
(583,698,l),
(201,698,l)
);
}
);
userData = {
com.typemytype.robofont.pointLabels = {
};
};
width = 600;
}
);
unicode = 74;
},
{
glyphname = K;
layers = (
{
anchors = (
{
name = bottom;
pos = (268,0);
},
{
name = top;
pos = (374,698);
}
);
layerId = m001;
shapes = (
{
closed = 1;
nodes = (
(503,0,l),
(302,402,l),
(618,698,l),
(590,698,l),
(295,423,l),
(135,273,l),
(132,273,l),
(203,698,l),
(181,698,l),
(65,0,l),
(87,0,l),
(127,240,l),
(285,387,l),
(479,0,l)
);
}
);
userData = {
com.typemytype.robofont.pointLabels = {
};
};
width = 600;
},
{
anchors = (
{
name = bottom;
pos = (266,0);
},
{
name = top;
pos = (377,698);
}
);
layerId = m002;
shapes = (
{
closed = 1;
nodes = (
(530,0,l),
(347,402,l),
(645,698,l),
(541,698,l),
(319,477,l),
(185,335,l),
(181,335,l),
(242,698,l),
(160,698,l),
(43,0,l),
(125,0,l),
(162,221,l),
(287,345,l),
(440,0,l)
);
}
);
userData = {
com.typemytype.robofont.pointLabels = {
};
};
width = 600;
},
{
anchors = (
{
name = bottom;
pos = (275,0);
},
{
name = top;
pos = (384,698);
}
);
layerId = m003;
shapes = (
{
closed = 1;
nodes = (
(562,0,l),
(407,388,l),
(667,698,l),
(493,698,l),
(361,536,l),
(249,399,l),
(241,399,l),
(291,698,l),
(143,698,l),
(27,0,l),
(175,0,l),
(207,191,l),
(289,282,l),
(398,0,l)
);
}
);
userData = {
com.typemytype.robofont.pointLabels = {
};
};
width = 600;
}
);
unicode = 75;
},
{
glyphname = L;
layers = (
{
anchors = (
{
name = bottom;
pos = (298,0);
},
{
name = top;
pos = (230,698);
},
{
name = topright;
pos = (355,740);
}
);
layerId = m001;
shapes = (
{
closed = 1;
nodes = (
(488,20,l),
(128,20,l),
(241,698,l),
(219,698,l),
(103,0,l),
(485,0,l)
);
}
);
userData = {
com.typemytype.robofont.pointLabels = {
};
};
width = 600;
},
{
anchors = (
{
name = bottom;
pos = (283,0);
},
{
name = top;
pos = (235,698);
},
{
name = topright;
pos = (371,740);
}
);
layerId = m002;
shapes = (
{
closed = 1;
nodes = (
(503,72,l),
(172,72,l),
(276,698,l),
(195,698,l),
(78,0,l),
(491,0,l)
);
}
);
userData = {
com.typemytype.robofont.pointLabels = {
};
};
width = 600;
},
{
anchors = (
{
name = bottom;
pos = (277,0);
},
{
name = top;
pos = (237,698);
},
{
name = topright;
pos = (400,740);
}
);
layerId = m003;
shapes = (
{
closed = 1;
nodes = (
(521,122,l),
(219,122,l),
(315,698,l),
(167,698,l),
(51,0,l),
(501,0,l)
);
}
);
userData = {
com.typemytype.robofont.pointLabels = {
};
};
width = 600;
}
);
unicode = 76;
},
{
glyphname = Lslash;
layers = (
{
layerId = m001;
shapes = (
{
closed = 1;
nodes = (
(128,20,l),
(176,307,l),
(422,381,l),
(425,401,l),
(179,327,l),
(241,698,l),
(219,698,l),
(156,321,l),
(60,292,l),
(57,272,l),
(153,301,l),
(103,0,l),
(485,0,l),
(488,20,l)
);
}
);
userData = {
com.typemytype.robofont.pointLabels = {
};
};
width = 600;
},
{
layerId = m002;
shapes = (
{
closed = 1;
nodes = (
(172,72,l),
(209,296,l),
(429,365,l),
(440,434,l),
(221,365,l),
(276,698,l),
(195,698,l),
(136,343,l),
(49,317,l),
(38,248,l),
(124,274,l),
(78,0,l),
(491,0,l),
(503,72,l)
);
}
);
userData = {
com.typemytype.robofont.pointLabels = {
};
};
width = 600;
},
{
layerId = m003;
shapes = (
{
closed = 1;
nodes = (
(240,122,l),
(268,289,l),
(463,350,l),
(482,464,l),
(287,403,l),
(336,698,l),
(188,698,l),
(132,358,l),
(56,335,l),
(37,222,l),
(113,245,l),
(72,0,l),
(510,0,l),
(530,122,l)
);
}
);
userData = {
com.typemytype.robofont.pointLabels = {
};
};
width = 600;
}
);
unicode = 321;
},
{
glyphname = M;
lastChange = "2024-07-30 19:34:27 +0000";
layers = (
{
anchors = (
{
name = bottom;
pos = (257,0);
},
{
name = top;
pos = (375,698);
}
);
layerId = m001;
shapes = (
{
closed = 1;
nodes = (
(472,0,l),
(588,698,l),
(555,698,l),
(306,295,l),
(303,295,l),
(189,698,l),
(158,698,l),
(42,0,l),
(63,0,l),
(122,354,l),
(174,667,l),
(177,667,l),
(298,245,l),
(559,667,l),
(562,667,l),
(510,355,l),
(451,0,l)
);
}
);
userData = {
com.typemytype.robofont.pointLabels = {
};
};
width = 600;
},
{
anchors = (
{
name = bottom;
pos = (256,0);
},
{
name = top;
pos = (374,698);
}
);
layerId = m002;
shapes = (
{
closed = 1;
nodes = (
(488,0,l),
(605,698,l),
(500,698,l),
(323,389,l),
(317,389,l),
(243,698,l),
(143,698,l),
(26,0,l),
(101,0,l),
(159,350,l),
(196,574,l),
(203,574,l),
(292,214,l),
(503,574,l),
(510,574,l),
(472,350,l),
(413,0,l)
);
}
);
userData = {
com.typemytype.robofont.pointLabels = {
};
};
width = 600;
},
{
anchors = (
{
name = bottom;
pos = (257,0);
},
{
name = top;
pos = (374,698);
}
);
layerId = m003;
shapes = (
{
closed = 1;
nodes = (
(518,0,l),
(635,698,l),
(467,698,l),
(341,461,l),
(332,461,l),
(284,698,l),
(115,698,l),
(-2,0,l),
(126,0,l),
(178,311,l),
(203,508,l),
(212,508,l),
(282,149,l),
(473,508,l),
(482,508,l),
(442,311,l),
(390,0,l)
);
}
);
userData = {
com.typemytype.robofont.pointLabels = {
};
};
width = 600;
}
);
unicode = 77;
},
{
glyphname = N;
layers = (
{
anchors = (
{
name = bottom;
pos = (258,0);
},
{
name = top;
pos = (374,698);
}
);
layerId = m001;
shapes = (
{
closed = 1;
nodes = (
(459,0,l),
(575,698,l),
(554,698,l),
(442,26,l),
(439,26,l),
(204,698,l),
(171,698,l),
(55,0,l),
(76,0,l),
(188,672,l),
(191,672,l),
(426,0,l)
);
}
);
userData = {
com.typemytype.robofont.pointLabels = {
};
};
width = 600;
},
{
anchors = (
{
name = bottom;
pos = (254,0);
},
{
name = top;
pos = (371,698);
}
);
layerId = m002;
shapes = (
{
closed = 1;
nodes = (
(475,0,l),
(592,698,l),
(516,698,l),
(415,96,l),
(408,96,l),
(275,698,l),
(156,698,l),
(39,0,l),
(115,0,l),
(216,602,l),
(223,602,l),
(356,0,l)
);
}
);
userData = {
com.typemytype.robofont.pointLabels = {
};
};
width = 600;
},
{
anchors = (
{
name = bottom;
pos = (258,0);
},
{
name = top;
pos = (374,698);
}
);
layerId = m003;
shapes = (
{
closed = 1;
nodes = (
(496,0,l),
(612,698,l),
(483,698,l),
(405,230,l),
(395,230,l),
(314,698,l),
(136,698,l),
(20,0,l),
(149,0,l),
(227,468,l),
(237,468,l),
(318,0,l)
);
}
);
userData = {
com.typemytype.robofont.pointLabels = {
};
};
width = 600;
}
);
unicode = 78;
},
{
glyphname = Eng;
layers = (
{
anchors = (
{
name = top;
pos = (374,698);
}
);
layerId = m001;
shapes = (
{
closed = 1;
nodes = (
(188,672,l),
(191,672,l),
(426,0,l),
(438,0,l),
(406,-190,l),
(400,-192,l),
(232,-47,l),
(218,-61,l),
(372,-195,ls),
(384,-206,o),
(393,-212,o),
(403,-212,cs),
(419,-212,o),
(425,-201,o),
(429,-178,cs),
(575,698,l),
(554,698,l),
(442,26,l),
(439,26,l),
(204,698,l),
(171,698,l),
(55,0,l),
(76,0,l)
);
}
);
userData = {
com.typemytype.robofont.pointLabels = {
};
};
width = 600;
},
{
anchors = (
{
name = top;
pos = (371,698);
}
);
layerId = m002;
shapes = (
{
closed = 1;
nodes = (
(216,602,l),
(223,602,l),
(356,0,l),
(398,0,l),
(374,-138,l),
(356,-142,l),
(252,-32,l),
(199,-80,l),
(234,-118,ls),
(289,-177,o),
(319,-212,o),
(361,-212,cs),
(421,-212,o),
(448,-163,o),
(457,-107,cs),
(592,698,l),
(516,698,l),
(415,96,l),
(408,96,l),
(275,698,l),
(156,698,l),
(39,0,l),
(115,0,l)
);
}
);
userData = {
com.typemytype.robofont.pointLabels = {
};
};
width = 600;
},
{
anchors = (
{
name = top;
pos = (374,698);
}
);
layerId = m003;
shapes = (
{
closed = 1;
nodes = (
(227,468,l),
(237,468,l),
(318,0,l),
(369,0,l),
(353,-96,l),
(338,-100,l),
(253,-7,l),
(164,-78,l),
(195,-115,ls),
(250,-181,o),
(278,-212,o),
(345,-212,cs),
(424,-212,o),
(468,-166,o),
(488,-46,cs),
(612,698,l),
(483,698,l),
(405,230,l),
(395,230,l),
(314,698,l),
(136,698,l),
(20,0,l),
(149,0,l)
);
}
);
userData = {
com.typemytype.robofont.pointLabels = {
};
};
width = 600;
}
);
unicode = 330;
},
{
glyphname = O;
layers = (
{
anchors = (
{
name = bottom;
pos = (262,0);
},
{
name = top;
pos = (369,698);
}
);
layerId = m001;
shapes = (
{
closed = 1;
nodes = (
(466,-12,o),
(550,237,o),
(550,479,cs),
(550,640,o),
(485,710,o),
(364,710,cs),
(160,710,o),
(76,461,o),
(76,219,cs),
(76,58,o),
(141,-12,o),
(262,-12,cs)
);
},
{
closed = 1;
nodes = (
(146,8,o),
(97,79,o),
(97,219,cs),
(97,253,o),
(98,291,o),
(105,331,cs),
(115,390,ls),
(148,582,o),
(237,690,o),
(364,690,cs),
(480,690,o),
(529,619,o),
(529,479,cs),
(529,445,o),
(528,407,o),
(521,367,cs),
(511,308,ls),
(478,116,o),
(389,8,o),
(262,8,cs)
);
}
);
userData = {
com.typemytype.robofont.pointLabels = {
};
};
width = 600;
},
{
anchors = (
{
name = bottom;
pos = (263,0);
},
{
name = top;
pos = (365,698);
}
);
layerId = m002;
shapes = (
{
closed = 1;
nodes = (
(510,-12,o),
(570,297,o),
(570,473,cs),
(570,625,o),
(508,710,o),
(372,710,cs),
(122,710,o),
(62,401,o),
(62,225,cs),
(62,73,o),
(124,-12,o),
(260,-12,cs)
);
},
{
closed = 1;
nodes = (
(178,60,o),
(143,115,o),
(143,210,cs),
(143,233,o),
(145,262,o),
(150,292,cs),
(169,406,ls),
(193,549,o),
(259,638,o),
(366,638,cs),
(454,638,o),
(489,583,o),
(489,488,cs),
(489,465,o),
(487,436,o),
(482,406,cs),
(463,292,ls),
(439,149,o),
(373,60,o),
(266,60,cs)
);
}
);
userData = {
com.typemytype.robofont.pointLabels = {
};
};
width = 600;
},
{
anchors = (
{
name = bottom;
pos = (265,0);
},
{
name = top;
pos = (358,698);
}
);
layerId = m003;
shapes = (
{
closed = 1;
nodes = (
(501,-12,o),
(592,210,o),
(592,447,cs),
(592,610,o),
(518,710,o),
(349,710,cs),
(127,710,o),
(36,488,o),
(36,251,cs),
(36,88,o),
(110,-12,o),
(279,-12,cs)
);
},
{
closed = 1;
nodes = (
(216,108,o),
(187,149,o),
(187,218,cs),
(187,243,o),
(189,266,o),
(193,290,cs),
(213,410,ls),
(232,524,o),
(265,590,o),
(349,590,cs),
(412,590,o),
(441,549,o),
(441,480,cs),
(441,455,o),
(439,432,o),
(435,408,cs),
(415,288,ls),
(396,174,o),
(363,108,o),
(279,108,cs)
);
}
);
userData = {
com.typemytype.robofont.pointLabels = {
};
};
width = 600;
}
);
unicode = 79;
},
{
glyphname = Ohorn;
layers = (
{
anchors = (
{
name = bottom;
pos = (262,0);
},
{
name = top;
pos = (369,698);
}
);
layerId = m001;
shapes = (
{
closed = 1;
nodes = (
(573,809,l),
(555,698,l),
(440,698,l),
(418,706,o),
(392,710,o),
(364,710,cs),
(160,710,o),
(76,461,o),
(76,219,cs),
(76,58,o),
(141,-12,o),
(262,-12,cs),
(466,-12,o),
(550,237,o),
(550,479,cs),
(550,580,o),
(524,645,o),
(474,680,c),
(543,680,ls),
(564,680,o),
(575,689,o),
(578,709,cs),
(594,809,l)
);
},
{
closed = 1;
nodes = (
(146,8,o),
(97,79,o),
(97,219,cs),
(97,253,o),
(98,291,o),
(105,331,cs),
(115,390,ls),
(148,582,o),
(237,690,o),
(364,690,cs),
(480,690,o),
(529,619,o),
(529,479,cs),
(529,445,o),
(528,407,o),
(521,367,cs),
(511,308,ls),
(478,116,o),
(389,8,o),
(262,8,cs)
);
}
);
userData = {
com.typemytype.robofont.pointLabels = {
};
};
width = 600;
},
{
anchors = (
{
name = bottom;
pos = (263,0);
},
{
name = top;
pos = (365,698);
}
);
layerId = m002;
shapes = (
{
closed = 1;
nodes = (
(552,809,l),
(534,698,l),
(451,698,l),
(428,706,o),
(402,710,o),
(372,710,cs),
(122,710,o),
(62,401,o),
(62,225,cs),
(62,73,o),
(124,-12,o),
(260,-12,cs),
(510,-12,o),
(570,297,o),
(570,473,cs),
(570,547,o),
(556,605,o),
(518,646,c),
(532,646,ls),
(581,646,o),
(598,674,o),
(604,708,cs),
(621,809,l)
);
},
{
closed = 1;
nodes = (
(178,60,o),
(143,115,o),
(143,210,cs),
(143,233,o),
(145,262,o),
(150,292,cs),
(169,406,ls),
(193,549,o),
(259,638,o),
(366,638,cs),
(454,638,o),
(489,583,o),
(489,488,cs),
(489,465,o),
(487,436,o),
(482,406,cs),
(463,292,ls),
(439,149,o),
(373,60,o),
(266,60,cs)
);
}
);
userData = {
com.typemytype.robofont.pointLabels = {
};
};
width = 600;
},
{
anchors = (
{
name = bottom;
pos = (265,0);
},
{
name = top;
pos = (358,698);
}
);
layerId = m003;
shapes = (
{
closed = 1;
nodes = (
(558,813,l),
(538,698,l),
(440,698,l),
(414,706,o),
(383,710,o),
(349,710,cs),
(127,710,o),
(36,488,o),
(36,251,cs),
(36,88,o),
(110,-12,o),
(279,-12,cs),
(501,-12,o),
(592,210,o),
(592,447,cs),
(592,512,o),
(580,568,o),
(554,611,c),
(556,611,ls),
(628,611,o),
(653,647,o),
(664,710,cs),
(681,813,l)
);
},
{
closed = 1;
nodes = (
(216,108,o),
(187,149,o),
(187,218,cs),
(187,243,o),
(189,266,o),
(193,290,cs),
(213,410,ls),
(232,524,o),
(265,590,o),
(349,590,cs),
(412,590,o),
(441,549,o),
(441,480,cs),
(441,455,o),
(439,432,o),
(435,408,cs),
(415,288,ls),
(396,174,o),
(363,108,o),
(279,108,cs)
);
}
);
userData = {
com.typemytype.robofont.pointLabels = {
};
};
width = 600;
}
);
unicode = 416;
},
{
glyphname = Oslash;
lastChange = "2024-07-30 19:33:43 +0000";
layers = (
{
anchors = (
{
name = bottom;
pos = (262,0);
},
{
name = top;
pos = (369,698);
}
);
layerId = m001;
shapes = (
{
closed = 1;
nodes = (
(113,58,l),
(144,10,o),
(194,-12,o),
(262,-12,cs),
(466,-12,o),
(550,237,o),
(550,479,cs),
(550,538,o),
(541,586,o),
(524,621,c),
(585,705,l),
(569,716,l),
(513,640,l),
(482,688,o),
(432,710,o),
(364,710,cs),
(160,710,o),
(76,461,o),
(76,219,cs),
(76,160,o),
(85,112,o),
(102,77,c),
(41,-7,l),
(57,-18,l)
);
},
{
closed = 1;
nodes = (
(196,8,o),
(152,31,o),
(126,76,c),
(510,602,l),
(523,570,o),
(529,529,o),
(529,479,cs),
(529,445,o),
(528,407,o),
(521,367,cs),
(511,308,ls),
(478,116,o),
(389,8,o),
(262,8,cs)
);
},
{
closed = 1;
nodes = (
(103,128,o),
(97,169,o),
(97,219,cs),
(97,253,o),
(98,291,o),
(105,331,cs),
(115,390,ls),
(148,582,o),
(237,690,o),
(364,690,cs),
(430,690,o),
(474,667,o),
(500,622,c),
(116,96,l)
);
}
);
userData = {
com.typemytype.robofont.pointLabels = {
};
};
width = 600;
},
{
anchors = (
{
name = bottom;
pos = (263,0);
},
{
name = top;
pos = (365,698);
}
);
layerId = m002;
shapes = (
{
closed = 1;
nodes = (
(121,37,l),
(154,5,o),
(199,-12,o),
(260,-12,cs),
(510,-12,o),
(570,297,o),
(570,473,cs),
(570,524,o),
(563,567,o),
(549,602,c),
(622,698,l),
(565,734,l),
(511,661,l),
(478,693,o),
(433,710,o),
(372,710,cs),
(122,710,o),
(62,401,o),
(62,225,cs),
(62,174,o),
(69,131,o),
(83,96,c),
(10,0,l),
(67,-36,l)
);
},
{
closed = 1;
nodes = (
(221,60,o),
(188,75,o),
(169,102,c),
(487,523,l),
(489,512,o),
(489,501,o),
(489,488,cs),
(489,465,o),
(487,436,o),
(482,406,cs),
(463,292,ls),
(439,149,o),
(373,60,o),
(266,60,cs)
);
},
{
closed = 1;
nodes = (
(143,186,o),
(143,197,o),
(143,210,cs),
(143,233,o),
(145,262,o),
(150,292,cs),
(169,406,ls),
(193,549,o),
(259,638,o),
(366,638,cs),
(411,638,o),
(444,623,o),
(463,596,c),
(145,175,l)
);
}
);
userData = {
com.typemytype.robofont.pointLabels = {
};
};
width = 600;
},
{
anchors = (
{
name = bottom;
pos = (265,0);
},
{
name = top;
pos = (358,698);
}
);
layerId = m003;
shapes = (
{
closed = 1;
nodes = (
(132,26,l),
(169,1,o),
(218,-12,o),
(279,-12,cs),
(501,-12,o),
(592,210,o),
(592,447,cs),
(592,503,o),
(584,552,o),
(565,591,c),
(655,708,l),
(567,765,l),
(496,672,l),
(459,697,o),
(410,710,o),
(349,710,cs),
(127,710,o),
(36,488,o),
(36,251,cs),
(36,195,o),
(44,146,o),
(63,107,c),
(-27,-10,l),
(61,-67,l)
);
},
{
closed = 1;
nodes = (
(247,107,o),
(223,118,o),
(207,136,c),
(443,444,l),
(443,444,o),
(443,443,o),
(443,443,c),
(443,431,o),
(441,419,o),
(437,396,cs),
(419,288,ls),
(400,174,o),
(363,107,o),
(279,107,cs)
);
},
{
closed = 1;
nodes = (
(185,254,o),
(185,255,o),
(185,255,c),
(185,267,o),
(187,279,o),
(191,302,cs),
(209,410,ls),
(228,524,o),
(265,591,o),
(349,591,cs),
(381,591,o),
(405,580,o),
(421,562,c),
(185,254,l)
);
}
);
userData = {
com.typemytype.robofont.pointLabels = {
};
};
width = 600;
}
);
unicode = 216;
},
{
glyphname = OE;
layers = (
{
layerId = m001;
shapes = (
{
closed = 1;
nodes = (
(511,20,l),
(310,20,l),
(364,344,l),
(551,344,l),
(554,364,l),
(367,364,l),
(420,678,l),
(621,678,l),
(624,698,l),
(380,698,ls),
(174,698,o),
(61,491,o),
(61,260,cs),
(61,88,o),
(127,0,o),
(270,0,cs),
(508,0,l)
);
},
{
closed = 1;
nodes = (
(269,20,ls),
(140,20,o),
(82,95,o),
(82,260,cs),
(82,280,o),
(83,303,o),
(87,327,cs),
(97,390,ls),
(123,555,o),
(233,678,o),
(374,678,cs),
(398,678,l),
(288,20,l)
);
}
);
userData = {
com.typemytype.robofont.pointLabels = {
};
};
width = 600;
},
{
layerId = m002;
shapes = (
{
closed = 1;
nodes = (
(525,69,l),
(357,69,l),
(398,319,l),
(553,319,l),
(564,388,l),
(410,388,l),
(450,629,l),
(616,629,l),
(628,698,l),
(362,698,ls),
(167,698,o),
(42,538,o),
(42,252,cs),
(42,87,o),
(115,0,o),
(261,0,cs),
(513,0,l)
);
},
{
closed = 1;
nodes = (
(275,69,ls),
(177,69,o),
(122,122,o),
(122,227,cs),
(122,250,o),
(126,282,o),
(129,304,cs),
(142,400,ls),
(161,543,o),
(242,629,o),
(353,629,cs),
(371,629,l),
(277,69,l)
);
}
);
userData = {
com.typemytype.robofont.pointLabels = {
};
};
width = 600;
},
{
layerId = m003;
shapes = (
{
closed = 1;
nodes = (
(603,110,l),
(448,110,l),
(480,298,l),
(625,298,l),
(643,408,l),
(498,408,l),
(528,588,l),
(683,588,l),
(701,698,l),
(393,698,ls),
(166,698,o),
(59,516,o),
(59,258,cs),
(59,94,o),
(130,0,o),
(277,0,c),
(585,0,l)
);
},
{
closed = 1;
nodes = (
(305,110,ls),
(232,110,o),
(197,150,o),
(197,228,cs),
(197,246,o),
(199,266,o),
(203,290,cs),
(225,421,ls),
(245,541,o),
(295,588,o),
(385,588,cs),
(392,588,l),
(312,110,l)
);
}
);
userData = {
com.typemytype.robofont.pointLabels = {
};
};
width = 600;
}
);
unicode = 338;
},
{
glyphname = P;
layers = (
{
anchors = (
{
name = bottom;
pos = (76,0);
},
{
name = top;
pos = (376,698);
}
);
layerId = m001;
shapes = (
{
closed = 1;
nodes = (
(141,322,l),
(371,322,ls),
(502,322,o),
(572,411,o),
(572,547,cs),
(572,633,o),
(513,698,o),
(415,698,cs),
(181,698,l),
(65,0,l),
(87,0,l)
);
},
{
closed = 1;
nodes = (
(415,678,ls),
(508,678,o),
(550,616,o),
(550,547,cs),
(550,538,o),
(549,530,o),
(548,521,cs),
(542,484,ls),
(529,402,o),
(474,342,o),
(371,342,cs),
(144,342,l),
(200,678,l)
);
}
);
userData = {
com.typemytype.robofont.pointLabels = {
};
};
width = 600;
},
{
anchors = (
{
name = bottom;
pos = (88,0);
},
{
name = top;
pos = (377,698);
}
);
layerId = m002;
shapes = (
{
closed = 1;
nodes = (
(179,297,l),
(355,297,ls),
(501,297,o),
(584,386,o),
(584,534,cs),
(584,631,o),
(530,698,o),
(413,698,cs),
(164,698,l),
(47,0,l),
(129,0,l)
);
},
{
closed = 1;
nodes = (
(403,626,ls),
(464,626,o),
(500,598,o),
(500,543,cs),
(500,530,o),
(499,516,o),
(497,504,cs),
(491,468,ls),
(481,408,o),
(438,369,o),
(363,369,cs),
(191,369,l),
(234,626,l)
);
}
);
userData = {
com.typemytype.robofont.pointLabels = {
};
};
width = 600;
},
{
anchors = (
{
name = bottom;
pos = (110,0);
},
{
name = top;
pos = (363,698);
}
);
layerId = m003;
shapes = (
{
closed = 1;
nodes = (
(228,256,l),
(347,256,ls),
(498,256,o),
(596,354,o),
(596,513,cs),
(596,621,o),
(530,698,o),
(406,698,cs),
(154,698,l),
(37,0,l),
(185,0,l)
);
},
{
closed = 1;
nodes = (
(360,579,ls),
(419,579,o),
(442,561,o),
(442,516,cs),
(442,505,o),
(441,495,o),
(440,489,cs),
(435,459,ls),
(425,399,o),
(394,376,o),
(326,376,cs),
(248,376,l),
(282,579,l)
);
}
);
userData = {
com.typemytype.robofont.pointLabels = {
};
};
width = 600;
}
);
unicode = 80;
},
{
glyphname = Thorn;
layers = (
{
layerId = m001;
shapes = (
{
closed = 1;
nodes = (
(115,167,l),
(345,167,ls),
(476,167,o),
(546,256,o),
(546,392,cs),
(546,478,o),
(487,543,o),
(389,543,cs),
(177,543,l),
(203,698,l),
(181,698,l),
(65,0,l),
(87,0,l)
);
},
{
closed = 1;
nodes = (
(389,523,ls),
(482,523,o),
(524,461,o),
(524,392,cs),
(524,383,o),
(523,375,o),
(522,366,cs),
(516,329,ls),
(503,247,o),
(448,187,o),
(345,187,cs),
(118,187,l),
(174,523,l)
);
}
);
userData = {
com.typemytype.robofont.pointLabels = {
};
};
width = 600;
},
{
layerId = m002;
shapes = (
{
closed = 1;
nodes = (
(156,154,l),
(331,154,ls),
(477,154,o),
(560,243,o),
(560,391,cs),
(560,488,o),
(506,555,o),
(389,555,cs),
(223,555,l),
(247,698,l),
(165,698,l),
(48,0,l),
(130,0,l)
);
},
{
closed = 1;
nodes = (
(379,483,ls),
(440,483,o),
(476,455,o),
(476,400,cs),
(476,387,o),
(475,373,o),
(473,361,cs),
(467,325,ls),
(457,265,o),
(414,226,o),
(339,226,cs),
(168,226,l),
(211,483,l)
);
}
);
userData = {
com.typemytype.robofont.pointLabels = {
};
};
width = 600;
},
{
layerId = m003;
shapes = (
{
closed = 1;
nodes = (
(203,134,l),
(322,134,ls),
(473,134,o),
(571,232,o),
(571,391,cs),
(571,499,o),
(505,576,o),
(381,576,cs),
(278,576,l),
(298,698,l),
(150,698,l),
(33,0,l),
(181,0,l)
);
},
{
closed = 1;
nodes = (
(335,457,ls),
(394,457,o),
(417,439,o),
(417,394,cs),
(417,383,o),
(416,373,o),
(415,367,cs),
(410,337,ls),
(400,277,o),
(369,254,o),
(301,254,cs),
(223,254,l),
(257,457,l)
);
}
);
userData = {
com.typemytype.robofont.pointLabels = {
};
};
width = 600;
}
);
unicode = 222;
},
{
glyphname = Q;
layers = (
{
anchors = (
{
name = top;
pos = (369,698);
}
);
layerId = m001;
shapes = (
{
closed = 1;
nodes = (
(381,-169,o),
(388,-167,o),
(395,-161,cs),
(514,-59,l),
(501,-47,l),
(378,-150,l),
(375,-150,l),
(281,-11,l),
(471,3,o),
(550,245,o),
(550,479,cs),
(550,640,o),
(485,710,o),
(364,710,cs),
(160,710,o),
(76,461,o),
(76,219,cs),
(76,61,o),
(139,-10,o),
(256,-12,c),
(354,-156,ls),
(360,-165,o),
(367,-169,o),
(375,-169,cs)
);
},
{
closed = 1;
nodes = (
(146,8,o),
(97,79,o),
(97,219,cs),
(97,253,o),
(98,291,o),
(105,331,cs),
(115,390,ls),
(148,582,o),
(237,690,o),
(364,690,cs),
(480,690,o),
(529,619,o),
(529,479,cs),
(529,445,o),
(528,407,o),
(521,367,cs),
(511,308,ls),
(478,116,o),
(389,8,o),
(262,8,cs)
);
}
);
userData = {
com.typemytype.robofont.pointLabels = {
};
};
width = 600;
},
{
anchors = (
{
name = top;
pos = (365,698);
}
);
layerId = m002;
shapes = (
{
closed = 1;
nodes = (
(421,-182,o),
(441,-163,o),
(484,-122,cs),
(545,-64,l),
(501,-27,l),
(401,-117,l),
(388,-114,l),
(316,-6,l),
(517,35,o),
(570,307,o),
(570,473,cs),
(570,625,o),
(508,710,o),
(372,710,cs),
(122,710,o),
(62,401,o),
(62,225,cs),
(62,85,o),
(114,1,o),
(229,-10,c),
(316,-137,ls),
(334,-163,o),
(353,-182,o),
(384,-182,cs)
);
},
{
closed = 1;
nodes = (
(178,60,o),
(143,115,o),
(143,210,cs),
(143,233,o),
(145,262,o),
(150,292,cs),
(169,406,ls),
(193,549,o),
(259,638,o),
(366,638,cs),
(454,638,o),
(489,583,o),
(489,488,cs),
(489,465,o),
(487,436,o),
(482,406,cs),
(463,292,ls),
(439,149,o),
(373,60,o),
(266,60,cs)
);
}
);
userData = {
com.typemytype.robofont.pointLabels = {
};
};
width = 600;
},
{
anchors = (
{
name = top;
pos = (358,698);
}
);
layerId = m003;
shapes = (
{
closed = 1;
nodes = (
(451,-205,o),
(481,-191,o),
(540,-126,cs),
(588,-73,l),
(512,-4,l),
(427,-88,l),
(411,-84,l),
(357,-2,l),
(523,44,o),
(592,240,o),
(592,447,cs),
(592,610,o),
(518,710,o),
(349,710,cs),
(127,710,o),
(36,488,o),
(36,251,cs),
(36,110,o),
(91,17,o),
(215,-6,c),
(308,-146,ls),
(330,-178,o),
(356,-205,o),
(406,-205,cs)
);
},
{
closed = 1;
nodes = (
(216,108,o),
(187,149,o),
(187,218,cs),
(187,243,o),
(189,266,o),
(193,290,cs),
(213,410,ls),
(232,524,o),
(265,590,o),
(349,590,cs),
(412,590,o),
(441,549,o),
(441,480,cs),
(441,455,o),
(439,432,o),
(435,408,cs),
(415,288,ls),
(396,174,o),
(363,108,o),
(279,108,cs)
);
}
);
userData = {
com.typemytype.robofont.pointLabels = {
};
};
width = 600;
}
);
unicode = 81;
},
{
glyphname = R;
lastChange = "2024-07-30 19:37:35 +0000";
layers = (
{
anchors = (
{
name = bottom;
pos = (258,0);
},
{
name = top;
pos = (364,698);
}
);
layerId = m001;
shapes = (
{
closed = 1;
nodes = (
(303,322,l),
(455,0,l),
(478,0,l),
(325,322,l),
(371,322,ls),
(502,322,o),
(572,411,o),
(572,547,cs),
(572,633,o),
(513,698,o),
(415,698,cs),
(181,698,l),
(65,0,l),
(87,0,l),
(141,322,l)
);
},
{
closed = 1;
nodes = (
(200,678,l),
(415,678,ls),
(508,678,o),
(550,616,o),
(550,547,cs),
(550,538,o),
(549,530,o),
(548,521,cs),
(542,484,ls),
(529,402,o),
(474,342,o),
(371,342,cs),
(144,342,l)
);
}
);
userData = {
com.typemytype.robofont.pointLabels = {
};
};
width = 600;
},
{
anchors = (
{
name = bottom;
pos = (265,0);
},
{
name = top;
pos = (354,698);
}
);
layerId = m002;
shapes = (
{
closed = 1;
nodes = (
(293,299,l),
(412,0,l),
(501,0,l),
(374,302,l),
(375,302,l),
(506,311,o),
(584,395,o),
(584,534,cs),
(584,631,o),
(530,698,o),
(413,698,cs),
(164,698,l),
(47,0,l),
(129,0,l),
(179,299,l)
);
},
{
closed = 1;
nodes = (
(234,626,l),
(403,626,ls),
(464,626,o),
(500,598,o),
(500,543,cs),
(500,530,o),
(499,516,o),
(497,504,cs),
(491,468,ls),
(480,402,o),
(431,369,o),
(363,369,cs),
(191,369,l)
);
}
);
userData = {
com.typemytype.robofont.pointLabels = {
};
};
width = 600;
},
{
anchors = (
{
name = bottom;
pos = (275,0);
},
{
name = top;
pos = (354,698);
}
);
layerId = m003;
shapes = (
{
closed = 1;
nodes = (
(289,260,l),
(366,0,l),
(522,0,l),
(427,275,l),
(428,275,l),
(531,305,o),
(594,389,o),
(594,512,cs),
(594,623,o),
(528,698,o),
(404,698,cs),
(152,698,l),
(35,0,l),
(181,0,l),
(225,260,l)
);
},
{
closed = 1;
nodes = (
(278,579,l),
(361,579,ls),
(410,579,o),
(440,559,o),
(440,513,cs),
(440,503,o),
(439,492,o),
(437,480,cs),
(433,456,ls),
(424,398,o),
(396,376,o),
(324,376,cs),
(244,376,l)
);
}
);
userData = {
com.typemytype.robofont.pointLabels = {
};
};
width = 600;
}
);
unicode = 82;
},
{
glyphname = S;
layers = (
{
anchors = (
{
name = bottom;
pos = (256,0);
},
{
name = top;
pos = (351,698);
}
);
layerId = m001;
shapes = (
{
closed = 1;
nodes = (
(414,-12,o),
(506,61,o),
(506,196,cs),
(506,281,o),
(459,335,o),
(359,358,cs),
(273,378,ls),
(183,399,o),
(144,441,o),
(144,519,cs),
(144,632,o),
(222,690,o),
(344,690,cs),
(454,690,o),
(509,666,o),
(547,601,c),
(565,612,l),
(529,675,o),
(470,710,o),
(345,710,cs),
(214,710,o),
(122,645,o),
(122,519,cs),
(122,434,o),
(167,381,o),
(266,358,cs),
(352,338,ls),
(444,317,o),
(483,274,o),
(483,196,cs),
(483,76,o),
(405,8,o),
(275,8,cs),
(153,8,o),
(96,48,o),
(54,114,c),
(37,101,l),
(80,33,o),
(145,-12,o),
(274,-12,cs)
);
}
);
userData = {
com.typemytype.robofont.pointLabels = {
};
};
width = 600;
},
{
anchors = (
{
name = bottom;
pos = (269,0);
},
{
name = top;
pos = (356,698);
}
);
layerId = m002;
shapes = (
{
closed = 1;
nodes = (
(429,-12,o),
(532,80,o),
(532,212,cs),
(532,297,o),
(490,355,o),
(374,382,cs),
(301,399,ls),
(227,416,o),
(188,444,o),
(188,508,cs),
(188,589,o),
(250,640,o),
(351,640,cs),
(430,640,o),
(484,609,o),
(523,551,c),
(583,595,l),
(547,658,o),
(476,710,o),
(355,710,cs),
(206,710,o),
(104,631,o),
(104,502,cs),
(104,412,o),
(153,356,o),
(263,331,cs),
(338,314,ls),
(419,296,o),
(448,262,o),
(448,205,cs),
(448,116,o),
(379,59,o),
(270,59,cs),
(186,59,o),
(130,93,o),
(87,160,c),
(25,111,l),
(66,39,o),
(145,-12,o),
(266,-12,cs)
);
}
);
userData = {
com.typemytype.robofont.pointLabels = {
};
};
width = 600;
},
{
anchors = (
{
name = bottom;
pos = (269,0);
},
{
name = top;
pos = (367,698);
}
);
layerId = m003;
shapes = (
{
closed = 1;
nodes = (
(445,-12,o),
(547,87,o),
(547,230,cs),
(547,325,o),
(500,382,o),
(401,407,cs),
(335,424,ls),
(273,440,o),
(251,458,o),
(251,498,cs),
(251,554,o),
(287,590,o),
(360,590,cs),
(420,590,o),
(467,565,o),
(497,523,c),
(594,612,l),
(554,673,o),
(467,710,o),
(367,710,cs),
(201,710,o),
(98,620,o),
(98,482,cs),
(98,396,o),
(142,330,o),
(243,307,cs),
(312,291,ls),
(368,278,o),
(393,259,o),
(393,213,cs),
(393,149,o),
(353,110,o),
(277,110,cs),
(215,110,o),
(146,136,o),
(105,189,c),
(12,95,l),
(54,28,o),
(153,-12,o),
(268,-12,cs)
);
}
);
userData = {
com.typemytype.robofont.pointLabels = {
};
};
width = 600;
}
);
unicode = 83;
},
{
glyphname = Scedilla;
layers = (
{
anchors = (
{
name = top;
pos = (351,698);
}
);
layerId = m001;
shapes = (
{
closed = 1;
nodes = (
(304,-202,o),
(339,-167,o),
(339,-126,cs),
(339,-93,o),
(317,-72,o),
(280,-72,cs),
(272,-72,o),
(260,-73,o),
(251,-75,c),
(249,-73,l),
(275,-12,l),
(414,-12,o),
(506,61,o),
(506,196,cs),
(506,281,o),
(459,335,o),
(359,358,cs),
(273,378,ls),
(183,399,o),
(144,441,o),
(144,519,cs),
(144,632,o),
(222,690,o),
(344,690,cs),
(454,690,o),
(509,666,o),
(547,601,c),
(565,612,l),
(529,675,o),
(470,710,o),
(345,710,cs),
(214,710,o),
(122,645,o),
(122,519,cs),
(122,434,o),
(167,381,o),
(266,358,cs),
(352,338,ls),
(444,317,o),
(483,274,o),
(483,196,cs),
(483,76,o),
(405,8,o),
(275,8,cs),
(153,8,o),
(96,48,o),
(54,114,c),
(37,101,l),
(78,36,o),
(139,-8,o),
(257,-12,c),
(227,-84,l),
(265,-86,ls),
(304,-88,o),
(318,-104,o),
(318,-127,cs),
(318,-160,o),
(290,-184,o),
(247,-184,cs),
(219,-184,o),
(198,-174,o),
(185,-157,c),
(171,-170,l),
(183,-187,o),
(210,-202,o),
(247,-202,cs)
);
}
);
userData = {
com.typemytype.robofont.pointLabels = {
};
};
width = 600;
},
{
anchors = (
{
name = top;
pos = (356,698);
}
);
layerId = m002;
shapes = (
{
closed = 1;
nodes = (
(315,-207,o),
(369,-181,o),
(369,-119,cs),
(369,-80,o),
(347,-60,o),
(310,-60,cs),
(302,-60,o),
(287,-61,o),
(273,-64,c),
(271,-61,l),
(288,-11,l),
(438,-3,o),
(532,86,o),
(532,212,cs),
(532,297,o),
(490,355,o),
(374,382,cs),
(301,399,ls),
(227,416,o),
(188,444,o),
(188,508,cs),
(188,589,o),
(250,640,o),
(351,640,cs),
(430,640,o),
(484,609,o),
(523,551,c),
(583,595,l),
(547,658,o),
(476,710,o),
(355,710,cs),
(206,710,o),
(104,631,o),
(104,502,cs),
(104,412,o),
(153,356,o),
(263,331,cs),
(338,314,ls),
(419,296,o),
(448,262,o),
(448,205,cs),
(448,116,o),
(379,59,o),
(270,59,cs),
(186,59,o),
(130,93,o),
(87,160,c),
(25,111,l),
(63,44,o),
(133,-4,o),
(238,-11,c),
(215,-76,l),
(244,-80,ls),
(295,-87,o),
(304,-105,o),
(304,-119,cs),
(304,-141,o),
(283,-153,o),
(254,-153,cs),
(225,-153,o),
(208,-141,o),
(198,-126,c),
(158,-166,l),
(171,-187,o),
(202,-207,o),
(254,-207,cs)
);
}
);
userData = {
com.typemytype.robofont.pointLabels = {
};
};
width = 600;
},
{
anchors = (
{
name = top;
pos = (367,698);
}
);
layerId = m003;
shapes = (
{
closed = 1;
nodes = (
(332,-212,o),
(394,-178,o),
(394,-110,cs),
(394,-74,o),
(365,-52,o),
(328,-52,cs),
(315,-52,o),
(301,-54,o),
(286,-59,c),
(283,-55,l),
(299,-11,l),
(457,0,o),
(547,95,o),
(547,230,cs),
(547,325,o),
(500,382,o),
(401,407,cs),
(335,424,ls),
(273,440,o),
(251,458,o),
(251,498,cs),
(251,554,o),
(287,590,o),
(360,590,cs),
(420,590,o),
(467,565,o),
(497,523,c),
(594,612,l),
(554,673,o),
(467,710,o),
(367,710,cs),
(201,710,o),
(98,620,o),
(98,482,cs),
(98,396,o),
(142,330,o),
(243,307,cs),
(312,291,ls),
(368,278,o),
(393,259,o),
(393,213,cs),
(393,149,o),
(353,110,o),
(277,110,cs),
(215,110,o),
(146,136,o),
(105,189,c),
(12,95,l),
(49,35,o),
(131,-2,o),
(231,-11,c),
(207,-74,l),
(230,-76,ls),
(282,-81,o),
(298,-95,o),
(298,-112,cs),
(298,-132,o),
(277,-141,o),
(248,-141,cs),
(218,-141,o),
(197,-125,o),
(187,-113,c),
(136,-166,l),
(155,-191,o),
(195,-212,o),
(251,-212,cs)
);
}
);
userData = {
com.typemytype.robofont.pointLabels = {
};
};
width = 600;
}
);
unicode = 350;
},
{
glyphname = Germandbls;
layers = (
{
layerId = m001;
shapes = (
{
closed = 1;
nodes = (
(76,0,l),
(189,678,l),
(566,678,l),
(332,399,l),
(329,379,l),
(355,379,ls),
(487,379,o),
(546,332,o),
(546,249,cs),
(546,237,o),
(544,224,o),
(535,169,cs),
(517,61,o),
(438,8,o),
(340,8,cs),
(254,8,o),
(216,40,o),
(187,90,c),
(169,79,l),
(199,26,o),
(245,-12,o),
(338,-12,cs),
(485,-12,o),
(567,92,o),
(567,241,cs),
(567,345,o),
(501,398,o),
(359,398,c),
(359,402,l),
(589,676,l),
(593,698,l),
(170,698,l),
(54,0,l)
);
}
);
userData = {
com.typemytype.robofont.pointLabels = {
};
};
width = 600;
},
{
layerId = m002;
shapes = (
{
closed = 1;
nodes = (
(103,0,l),
(208,626,l),
(511,626,l),
(303,409,l),
(290,332,l),
(384,332,ls),
(452,332,o),
(485,295,o),
(485,239,cs),
(485,229,o),
(484,219,o),
(477,177,cs),
(465,105,o),
(412,58,o),
(338,58,cs),
(287,58,o),
(247,81,o),
(223,122,c),
(159,80,l),
(193,20,o),
(256,-12,o),
(338,-12,cs),
(493,-12,o),
(570,105,o),
(570,226,cs),
(570,341,o),
(501,395,o),
(391,399,c),
(391,403,l),
(596,616,l),
(610,698,l),
(138,698,l),
(21,0,l)
);
}
);
userData = {
com.typemytype.robofont.pointLabels = {
};
};
width = 600;
},
{
layerId = m003;
shapes = (
{
closed = 1;
nodes = (
(136,0,l),
(234,586,l),
(462,586,l),
(298,419,l),
(278,302,l),
(362,302,ls),
(412,302,o),
(431,279,o),
(431,245,cs),
(431,235,o),
(430,217,o),
(425,196,cs),
(414,148,o),
(391,105,o),
(334,105,cs),
(304,105,o),
(277,114,o),
(257,140,c),
(170,48,l),
(208,8,o),
(276,-12,o),
(332,-12,cs),
(505,-12,o),
(579,134,o),
(579,252,cs),
(579,362,o),
(502,404,o),
(437,406,c),
(438,412,l),
(594,569,l),
(615,698,l),
(105,698,l),
(-11,0,l)
);
}
);
userData = {
com.typemytype.robofont.pointLabels = {
};
};
width = 600;
}
);
unicode = 7838;
},
{
glyphname = T;
layers = (
{
anchors = (
{
name = bottom;
pos = (257,0);
},
{
name = top;
pos = (373,698);
}
);
layerId = m001;
shapes = (
{
closed = 1;
nodes = (
(632,698,l),
(114,698,l),
(111,678,l),
(359,678,l),
(246,0,l),
(268,0,l),
(381,678,l),
(629,678,l)
);
}
);
userData = {
com.typemytype.robofont.pointLabels = {
};
};
width = 600;
},
{
anchors = (
{
name = bottom;
pos = (258,0);
},
{
name = top;
pos = (368,698);
}
);
layerId = m002;
shapes = (
{
closed = 1;
nodes = (
(649,698,l),
(99,698,l),
(87,626,l),
(321,626,l),
(216,0,l),
(298,0,l),
(403,626,l),
(637,626,l)
);
}
);
userData = {
com.typemytype.robofont.pointLabels = {
};
};
width = 600;
},
{
anchors = (
{
name = bottom;
pos = (258,0);
},
{
name = top;
pos = (373,698);
}
);
layerId = m003;
shapes = (
{
closed = 1;
nodes = (
(649,698,l),
(97,698,l),
(77,576,l),
(279,576,l),
(183,0,l),
(331,0,l),
(427,576,l),
(629,576,l)
);
}
);
userData = {
com.typemytype.robofont.pointLabels = {
};
};
width = 600;
}
);
unicode = 84;
},
{
glyphname = Tbar;
layers = (
{
anchors = (
{
name = bottom;
pos = (257,0);
},
{
name = top;
pos = (373,698);
}
);
layerId = m001;
shapes = (
{
closed = 1;
nodes = (
(523,384,l),
(332,384,l),
(381,678,l),
(629,678,l),
(632,698,l),
(114,698,l),
(111,678,l),
(359,678,l),
(310,384,l),
(119,384,l),
(116,365,l),
(307,365,l),
(246,0,l),
(268,0,l),
(329,365,l),
(520,365,l)
);
}
);
userData = {
com.typemytype.robofont.pointLabels = {
};
};
width = 600;
},
{
anchors = (
{
name = bottom;
pos = (258,0);
},
{
name = top;
pos = (368,698);
}
);
layerId = m002;
shapes = (
{
closed = 1;
nodes = (
(536,400,l),
(365,400,l),
(403,626,l),
(637,626,l),
(649,698,l),
(99,698,l),
(87,626,l),
(321,626,l),
(283,400,l),
(112,400,l),
(101,338,l),
(273,338,l),
(216,0,l),
(298,0,l),
(355,338,l),
(525,338,l)
);
}
);
userData = {
com.typemytype.robofont.pointLabels = {
};
};
width = 600;
},
{
anchors = (
{
name = bottom;
pos = (258,0);
},
{
name = top;
pos = (373,698);
}
);
layerId = m003;
shapes = (
{
closed = 1;
nodes = (
(538,396,l),
(397,396,l),
(427,576,l),
(629,576,l),
(649,698,l),
(97,698,l),
(77,576,l),
(279,576,l),
(249,396,l),
(108,396,l),
(89,284,l),
(230,284,l),
(183,0,l),
(331,0,l),
(378,284,l),
(519,284,l)
);
}
);
userData = {
com.typemytype.robofont.pointLabels = {
};
};
width = 600;
}
);
unicode = 358;
},
{
glyphname = Tcedilla;
layers = (
{
anchors = (
{
name = top;
pos = (373,698);
}
);
layerId = m001;
shapes = (
{
closed = 1;
nodes = (
(290,-202,o),
(325,-167,o),
(325,-126,cs),
(325,-93,o),
(303,-72,o),
(266,-72,cs),
(258,-72,o),
(246,-73,o),
(237,-75,c),
(235,-73,l),
(265,0,l),
(268,0,l),
(381,678,l),
(629,678,l),
(632,698,l),
(114,698,l),
(111,678,l),
(359,678,l),
(246,0,l),
(248,0,l),
(213,-84,l),
(251,-86,ls),
(290,-88,o),
(304,-104,o),
(304,-127,cs),
(304,-160,o),
(276,-184,o),
(233,-184,cs),
(205,-184,o),
(184,-174,o),
(171,-157,c),
(157,-170,l),
(169,-187,o),
(196,-202,o),
(233,-202,cs)
);
}
);
userData = {
com.typemytype.robofont.pointLabels = {
};
};
width = 600;
},
{
anchors = (
{
name = top;
pos = (368,698);
}
);
layerId = m002;
shapes = (
{
closed = 1;
nodes = (
(305,-207,o),
(359,-181,o),
(359,-119,cs),
(359,-80,o),
(337,-60,o),
(300,-60,cs),
(292,-60,o),
(277,-61,o),
(263,-64,c),
(261,-61,l),
(283,0,l),
(298,0,l),
(403,626,l),
(637,626,l),
(649,698,l),
(99,698,l),
(87,626,l),
(321,626,l),
(216,0,l),
(232,0,l),
(205,-76,l),
(234,-80,ls),
(285,-87,o),
(294,-105,o),
(294,-119,cs),
(294,-141,o),
(273,-153,o),
(244,-153,cs),
(215,-153,o),
(198,-141,o),
(188,-126,c),
(148,-166,l),
(161,-187,o),
(192,-207,o),
(244,-207,cs)
);
}
);
userData = {
com.typemytype.robofont.pointLabels = {
};
};
width = 600;
},
{
anchors = (
{
name = top;
pos = (373,698);
}
);
layerId = m003;
shapes = (
{
closed = 1;
nodes = (
(322,-212,o),
(383,-175,o),
(383,-114,cs),
(383,-70,o),
(352,-52,o),
(316,-52,cs),
(304,-52,o),
(290,-54,o),
(275,-59,c),
(272,-55,l),
(292,0,l),
(331,0,l),
(427,576,l),
(629,576,l),
(649,698,l),
(97,698,l),
(77,576,l),
(279,576,l),
(183,0,l),
(224,0,l),
(196,-74,l),
(219,-76,ls),
(274,-81,o),
(287,-97,o),
(287,-112,cs),
(287,-132,o),
(265,-141,o),
(240,-141,cs),
(206,-141,o),
(186,-125,o),
(176,-113,c),
(125,-166,l),
(144,-191,o),
(183,-212,o),
(243,-212,cs)
);
}
);
userData = {
com.typemytype.robofont.pointLabels = {
};
};
width = 600;
}
);
unicode = 354;
},
{
glyphname = U;
layers = (
{
anchors = (
{
name = bottom;
pos = (256,0);
},
{
name = bottomright;
pos = (348,0);
},
{
name = top;
pos = (373,698);
}
);
layerId = m001;
shapes = (
{
closed = 1;
nodes = (
(101,276,ls),
(93,228,o),
(87,184,o),
(87,149,cs),
(87,32,o),
(142,-12,o),
(259,-12,cs),
(412,-12,o),
(469,57,o),
(504,270,cs),
(575,698,l),
(553,698,l),
(482,271,ls),
(449,73,o),
(401,8,o),
(261,8,cs),
(154,8,o),
(108,44,o),
(108,149,cs),
(108,183,o),
(114,221,o),
(122,271,cs),
(193,698,l),
(171,698,l)
);
}
);
userData = {
com.typemytype.robofont.pointLabels = {
};
};
width = 600;
},
{
anchors = (
{
name = bottom;
pos = (256,0);
},
{
name = bottomright;
pos = (364,0);
},
{
name = top;
pos = (367,698);
}
);
layerId = m002;
shapes = (
{
closed = 1;
nodes = (
(91,323,ls),
(82,269,o),
(73,209,o),
(73,166,cs),
(73,52,o),
(126,-12,o),
(269,-12,cs),
(452,-12,o),
(489,84,o),
(524,291,cs),
(592,698,l),
(510,698,l),
(439,274,ls),
(416,137,o),
(398,60,o),
(266,60,cs),
(177,60,o),
(154,104,o),
(154,173,cs),
(154,198,o),
(157,226,o),
(169,298,cs),
(236,698,l),
(154,698,l)
);
}
);
userData = {
com.typemytype.robofont.pointLabels = {
};
};
width = 600;
},
{
anchors = (
{
name = bottom;
pos = (267,0);
},
{
name = bottomright;
pos = (404,0);
},
{
name = top;
pos = (371,698);
}
);
layerId = m003;
shapes = (
{
closed = 1;
nodes = (
(60,291,ls),
(53,249,o),
(49,210,o),
(49,176,cs),
(49,62,o),
(103,-12,o),
(269,-12,cs),
(470,-12,o),
(516,86,o),
(547,272,cs),
(618,698,l),
(471,698,l),
(397,255,ls),
(382,165,o),
(366,108,o),
(277,108,cs),
(216,108,o),
(194,136,o),
(194,186,cs),
(194,200,o),
(196,224,o),
(202,260,cs),
(275,698,l),
(128,698,l)
);
}
);
userData = {
com.typemytype.robofont.pointLabels = {
};
};
width = 600;
}
);
unicode = 85;
},
{
glyphname = Uhorn;
lastChange = "2024-07-30 19:39:27 +0000";
layers = (
{
anchors = (
{
name = bottom;
pos = (256,0);
},
{
name = top;
pos = (373,698);
}
);
layerId = m001;
shapes = (
{
closed = 1;
nodes = (
(101,276,ls),
(93,228,o),
(87,184,o),
(87,149,cs),
(87,32,o),
(142,-12,o),
(259,-12,cs),
(412,-12,o),
(469,57,o),
(504,270,cs),
(572,680,l),
(639,680,ls),
(660,680,o),
(671,689,o),
(674,709,cs),
(690,809,l),
(669,809,l),
(651,698,l),
(553,698,l),
(482,271,ls),
(449,73,o),
(401,8,o),
(261,8,cs),
(154,8,o),
(108,44,o),
(108,149,cs),
(108,183,o),
(114,221,o),
(122,271,cs),
(193,698,l),
(171,698,l)
);
}
);
userData = {
com.typemytype.robofont.pointLabels = {
};
};
width = 600;
},
{
anchors = (
{
name = bottom;
pos = (256,0);
},
{
name = top;
pos = (367,698);
}
);
layerId = m002;
shapes = (
{
closed = 1;
nodes = (
(91,323,ls),
(82,269,o),
(73,209,o),
(73,166,cs),
(73,52,o),
(126,-12,o),
(269,-12,cs),
(452,-12,o),
(489,84,o),
(524,291,cs),
(583,646,l),
(602,646,ls),
(651,646,o),
(668,674,o),
(674,708,cs),
(691,809,l),
(622,809,l),
(604,698,l),
(510,698,l),
(439,274,ls),
(416,137,o),
(398,60,o),
(266,60,cs),
(177,60,o),
(154,104,o),
(154,173,cs),
(154,198,o),
(157,226,o),
(169,298,cs),
(236,698,l),
(154,698,l)
);
}
);
userData = {
com.typemytype.robofont.pointLabels = {
};
};
width = 600;
},
{
anchors = (
{
name = bottom;
pos = (267,0);
},
{
name = top;
pos = (370,698);
}
);
layerId = m003;
shapes = (
{
closed = 1;
nodes = (
(60,291,ls),
(53,249,o),
(49,210,o),
(49,176,cs),
(49,62,o),
(103,-12,o),
(269,-12,cs),
(470,-12,o),
(516,86,o),
(547,271,cs),
(604,617,l),
(605,617,l),
(645,630,o),
(661,661,o),
(670,710,c),
(687,813,l),
(564,813,l),
(544,698,l),
(471,698,l),
(397,256,ls),
(382,165,o),
(366,108,o),
(277,108,cs),
(216,108,o),
(194,136,o),
(194,186,cs),
(194,200,o),
(196,225,o),
(202,261,cs),
(275,698,l),
(128,698,l)
);
}
);
userData = {
com.typemytype.robofont.pointLabels = {
};
};
width = 600;
}
);
unicode = 431;
},
{
glyphname = Uogonek;
layers = (
{
anchors = (
{
name = bottom;
pos = (256,0);
},
{
name = top;
pos = (373,698);
}
);
layerId = m001;
shapes = (
{
closed = 1;
nodes = (
(101,276,ls),
(93,228,o),
(87,184,o),
(87,149,cs),
(87,32,o),
(142,-12,o),
(259,-12,cs),
(276,-12,o),
(292,-11,o),
(307,-9,c),
(308,-11,l),
(218,-59,o),
(204,-106,o),
(204,-136,cs),
(204,-183,o),
(237,-202,o),
(278,-202,cs),
(312,-202,o),
(340,-188,o),
(355,-170,c),
(342,-159,l),
(330,-171,o),
(310,-184,o),
(279,-184,cs),
(249,-184,o),
(225,-172,o),
(225,-135,cs),
(225,-85,o),
(269,-44,o),
(364,5,cs),
(445,47,o),
(477,105,o),
(504,270,cs),
(575,698,l),
(553,698,l),
(482,271,ls),
(449,73,o),
(401,8,o),
(261,8,cs),
(154,8,o),
(108,44,o),
(108,149,cs),
(108,183,o),
(114,221,o),
(122,271,cs),
(193,698,l),
(171,698,l)
);
}
);
userData = {
com.typemytype.robofont.pointLabels = {
};
};
width = 600;
},
{
anchors = (
{
name = bottom;
pos = (256,0);
},
{
name = top;
pos = (367,698);
}
);
layerId = m002;
shapes = (
{
closed = 1;
nodes = (
(91,323,ls),
(82,269,o),
(73,209,o),
(73,166,cs),
(73,52,o),
(126,-12,o),
(269,-12,cs),
(277,-12,o),
(284,-12,o),
(292,-11,c),
(293,-16,l),
(231,-45,o),
(189,-83,o),
(189,-132,cs),
(189,-186,o),
(236,-207,o),
(287,-207,cs),
(334,-207,o),
(367,-189,o),
(385,-170,c),
(347,-127,l),
(328,-144,o),
(308,-153,o),
(291,-153,cs),
(273,-153,o),
(257,-144,o),
(257,-122,cs),
(257,-93,o),
(281,-49,o),
(378,5,cs),
(472,57,o),
(499,142,o),
(524,291,cs),
(592,698,l),
(510,698,l),
(439,274,ls),
(416,137,o),
(398,60,o),
(266,60,cs),
(177,60,o),
(154,104,o),
(154,173,cs),
(154,198,o),
(157,226,o),
(169,298,cs),
(236,698,l),
(154,698,l)
);
}
);
userData = {
com.typemytype.robofont.pointLabels = {
};
};
width = 600;
},
{
anchors = (
{
name = bottom;
pos = (267,0);
},
{
name = top;
pos = (371,698);
}
);
layerId = m003;
shapes = (
{
closed = 1;
nodes = (
(60,291,ls),
(53,249,o),
(49,210,o),
(49,176,cs),
(49,62,o),
(103,-12,o),
(269,-12,cs),
(279,-12,o),
(286,-12,o),
(298,-10,c),
(300,-16,l),
(228,-43,o),
(195,-83,o),
(195,-127,cs),
(195,-182,o),
(246,-212,o),
(317,-212,cs),
(374,-212,o),
(413,-190,o),
(438,-158,c),
(384,-113,l),
(370,-134,o),
(351,-140,o),
(331,-140,cs),
(305,-140,o),
(294,-127,o),
(294,-110,cs),
(294,-90,o),
(310,-37,o),
(401,9,cs),
(502,60,o),
(525,142,o),
(547,271,cs),
(618,698,l),
(471,698,l),
(397,256,ls),
(382,165,o),
(366,108,o),
(277,108,cs),
(216,108,o),
(194,136,o),
(194,186,cs),
(194,200,o),
(196,225,o),
(202,261,cs),
(275,698,l),
(128,698,l)
);
}
);
userData = {
com.typemytype.robofont.pointLabels = {
};
};
width = 600;
}
);
unicode = 370;
},
{
glyphname = V;
lastChange = "2024-07-30 19:40:39 +0000";
layers = (
{
anchors = (
{
name = bottom;
pos = (257,0);
},
{
name = top;
pos = (374,698);
}
);
layerId = m001;
shapes = (
{
closed = 1;
nodes = (
(618,698,l),
(594,698,l),
(422,350,l),
(262,26,l),
(259,26,l),
(207,349,l),
(151,698,l),
(128,698,l),
(242,0,l),
(272,0,l)
);
}
);
userData = {
com.typemytype.robofont.pointLabels = {
};
};
width = 600;
},
{
anchors = (
{
name = bottom;
pos = (255,0);
},
{
name = top;
pos = (355,698);
}
);
layerId = m002;
shapes = (
{
closed = 1;
nodes = (
(635,698,l),
(549,698,l),
(392,349,l),
(271,81,l),
(266,81,l),
(231,349,l),
(187,698,l),
(109,698,l),
(201,0,l),
(313,0,l)
);
}
);
userData = {
com.typemytype.robofont.pointLabels = {
};
};
width = 600;
},
{
anchors = (
{
name = bottom;
pos = (257,0);
},
{
name = top;
pos = (374,698);
}
);
layerId = m003;
shapes = (
{
closed = 1;
nodes = (
(661,698,l),
(499,698,l),
(363,347,l),
(285,142,l),
(276,142,l),
(267,347,l),
(243,698,l),
(85,698,l),
(152,0,l),
(363,0,l)
);
}
);
userData = {
com.typemytype.robofont.pointLabels = {
};
};
width = 600;
}
);
unicode = 86;
},
{
glyphname = W;
lastChange = "2024-07-30 19:41:13 +0000";
layers = (
{
anchors = (
{
name = bottom;
pos = (257,0);
},
{
name = top;
pos = (373,698);
}
);
layerId = m001;
shapes = (
{
closed = 1;
nodes = (
(331,454,l),
(334,454,l),
(393,0,l),
(431,0,l),
(615,698,l),
(595,698,l),
(491,307,l),
(415,22,l),
(411,22,l),
(351,484,l),
(323,484,l),
(109,22,l),
(105,22,l),
(124,304,l),
(151,698,l),
(131,698,l),
(83,0,l),
(121,0,l)
);
}
);
userData = {
com.typemytype.robofont.pointLabels = {
};
};
width = 600;
},
{
anchors = (
{
name = bottom;
pos = (258,0);
},
{
name = top;
pos = (363,698);
}
);
layerId = m002;
shapes = (
{
closed = 1;
nodes = (
(322,421,l),
(330,421,l),
(345,0,l),
(466,0,l),
(637,698,l),
(562,698,l),
(467,298,l),
(416,82,l),
(408,82,l),
(387,516,l),
(293,516,l),
(130,82,l),
(122,82,l),
(143,305,l),
(180,698,l),
(107,698,l),
(46,0,l),
(167,0,l)
);
}
);
userData = {
com.typemytype.robofont.pointLabels = {
};
};
width = 600;
},
{
anchors = (
{
name = bottom;
pos = (256,0);
},
{
name = top;
pos = (374,698);
}
);
layerId = m003;
shapes = (
{
closed = 1;
nodes = (
(317,386,l),
(327,386,l),
(312,0,l),
(502,0,l),
(661,698,l),
(540,698,l),
(447,274,l),
(420,136,l),
(411,136,l),
(417,546,l),
(282,546,l),
(155,136,l),
(146,136,l),
(163,280,l),
(211,698,l),
(84,698,l),
(10,0,l),
(200,0,l)
);
}
);
userData = {
com.typemytype.robofont.pointLabels = {
};
};
width = 600;
}
);
unicode = 87;
},
{
glyphname = X;
lastChange = "2024-07-30 19:42:10 +0000";
layers = (
{
anchors = (
{
name = bottom;
pos = (258,0);
},
{
name = top;
pos = (374,698);
}
);
layerId = m001;
shapes = (
{
closed = 1;
nodes = (
(617,698,l),
(589,698,l),
(475,560,l),
(322,375,l),
(319,375,l),
(230,553,l),
(157,698,l),
(133,698,l),
(305,356,l),
(8,0,l),
(36,0,l),
(163,153,l),
(315,336,l),
(318,336,l),
(412,148,l),
(486,0,l),
(510,0,l),
(332,355,l)
);
}
);
userData = {
com.typemytype.robofont.pointLabels = {
};
};
width = 600;
},
{
anchors = (
{
name = bottom;
pos = (261,0);
},
{
name = top;
pos = (377,698);
}
);
layerId = m002;
shapes = (
{
closed = 1;
nodes = (
(643,698,l),
(547,698,l),
(441,563,l),
(332,425,l),
(328,425,l),
(264,563,l),
(202,698,l),
(114,698,l),
(275,360,l),
(-16,0,l),
(80,0,l),
(191,141,l),
(309,290,l),
(313,290,l),
(381,141,l),
(445,0,l),
(533,0,l),
(367,353,l)
);
}
);
userData = {
com.typemytype.robofont.pointLabels = {
};
};
width = 600;
},
{
anchors = (
{
name = bottom;
pos = (256,0);
},
{
name = top;
pos = (373,698);
}
);
layerId = m003;
shapes = (
{
closed = 1;
nodes = (
(650,698,l),
(488,698,l),
(410,587,l),
(340,475,l),
(332,475,l),
(299,587,l),
(260,698,l),
(94,698,l),
(223,361,l),
(-33,0,l),
(130,0,l),
(227,139,l),
(293,249,l),
(302,249,l),
(336,139,l),
(385,0,l),
(550,0,l),
(413,359,l)
);
}
);
userData = {
com.typemytype.robofont.pointLabels = {
};
};
width = 600;
}
);
unicode = 88;
},
{
glyphname = Y;
lastChange = "2024-07-30 19:42:28 +0000";
layers = (
{
anchors = (
{
name = bottom;
pos = (257,0);
},
{
name = top;
pos = (374,698);
}
);
layerId = m001;
shapes = (
{
closed = 1;
nodes = (
(317,294,l),
(645,698,l),
(619,698,l),
(473,518,l),
(310,317,l),
(307,317,l),
(211,517,l),
(124,698,l),
(101,698,l),
(295,294,l),
(246,0,l),
(268,0,l)
);
}
);
userData = {
com.typemytype.robofont.pointLabels = {
};
};
width = 600;
},
{
anchors = (
{
name = bottom;
pos = (259,0);
},
{
name = top;
pos = (364,698);
}
);
layerId = m002;
shapes = (
{
closed = 1;
nodes = (
(345,279,l),
(656,698,l),
(558,698,l),
(427,515,l),
(312,354,l),
(308,354,l),
(249,515,l),
(178,698,l),
(90,698,l),
(262,272,l),
(216,0,l),
(298,0,l)
);
}
);
userData = {
com.typemytype.robofont.pointLabels = {
};
};
width = 600;
},
{
anchors = (
{
name = bottom;
pos = (258,0);
},
{
name = top;
pos = (367,698);
}
);
layerId = m003;
shapes = (
{
closed = 1;
nodes = (
(373,249,l),
(668,698,l),
(503,698,l),
(403,534,l),
(325,397,l),
(316,397,l),
(285,534,l),
(236,698,l),
(78,698,l),
(225,246,l),
(184,0,l),
(332,0,l)
);
}
);
userData = {
com.typemytype.robofont.pointLabels = {
};
};
width = 600;
}
);
unicode = 89;
},
{
glyphname = Z;
layers = (
{
anchors = (
{
name = bottom;
pos = (257,0);
},
{
name = top;
pos = (374,698);
}
);
layerId = m001;
shapes = (
{
closed = 1;
nodes = (
(35,20,l),
(599,676,l),
(603,698,l),
(144,698,l),
(141,678,l),
(573,678,l),
(9,22,l),
(5,0,l),
(509,0,l),
(512,20,l)
);
}
);
userData = {
com.typemytype.robofont.pointLabels = {
};
};
width = 600;
},
{
anchors = (
{
name = bottom;
pos = (257,0);
},
{
name = top;
pos = (364,698);
}
);
layerId = m002;
shapes = (
{
closed = 1;
nodes = (
(111,72,l),
(597,624,l),
(609,698,l),
(141,698,l),
(129,626,l),
(503,626,l),
(17,74,l),
(5,0,l),
(508,0,l),
(520,72,l)
);
}
);
userData = {
com.typemytype.robofont.pointLabels = {
};
};
width = 600;
},
{
anchors = (
{
name = bottom;
pos = (253,0);
},
{
name = top;
pos = (364,698);
}
);
layerId = m003;
shapes = (
{
closed = 1;
nodes = (
(204,122,l),
(591,568,l),
(612,698,l),
(133,698,l),
(113,576,l),
(417,576,l),
(30,130,l),
(8,0,l),
(507,0,l),
(527,122,l)
);
}
);
userData = {
com.typemytype.robofont.pointLabels = {
};
};
width = 600;
}
);
unicode = 90;
},
{
glyphname = a;
layers = (
{
anchors = (
{
name = bottom;
pos = (235,0);
},
{
name = bottomright;
pos = (517,0);
},
{
name = top;
pos = (321,516);
}
);
layerId = m001;
shapes = (
{
closed = 1;
nodes = (
(335,-12,o),
(389,40,o),
(428,115,c),
(431,115,l),
(417,30,ls),
(414,10,o),
(420,0,o),
(440,0,cs),
(517,0,l),
(521,19,l),
(436,19,l),
(519,516,l),
(498,516,l),
(483,423,l),
(480,423,l),
(460,484,o),
(404,528,o),
(313,528,cs),
(167,528,o),
(71,384,o),
(71,186,cs),
(71,72,o),
(130,-12,o),
(244,-12,cs)
);
},
{
closed = 1;
nodes = (
(135,7,o),
(91,89,o),
(91,186,cs),
(91,203,o),
(92,220,o),
(95,237,cs),
(103,286,ls),
(124,412,o),
(199,509,o),
(313,509,cs),
(441,509,o),
(482,424,o),
(471,355,cs),
(446,204,ls),
(435,138,o),
(397,83,o),
(358,48,cs),
(325,19,o),
(288,7,o),
(244,7,cs)
);
}
);
userData = {
com.typemytype.robofont.pointLabels = {
};
};
width = 600;
},
{
anchors = (
{
name = bottom;
pos = (240,0);
},
{
name = bottomright;
pos = (524,0);
},
{
name = top;
pos = (316,516);
}
);
layerId = m002;
shapes = (
{
closed = 1;
nodes = (
(302,-12,o),
(352,41,o),
(392,122,c),
(395,122,l),
(389,85,ls),
(381,38,o),
(402,0,o),
(466,0,cs),
(524,0,l),
(536,70,l),
(465,70,l),
(539,516,l),
(461,516,l),
(446,426,l),
(443,426,l),
(421,493,o),
(370,528,o),
(296,528,cs),
(117,528,o),
(56,326,o),
(56,188,cs),
(56,56,o),
(112,-12,o),
(213,-12,cs)
);
},
{
closed = 1;
nodes = (
(171,57,o),
(135,103,o),
(135,180,cs),
(135,193,o),
(136,207,o),
(139,225,cs),
(151,297,ls),
(167,393,o),
(222,459,o),
(318,459,cs),
(394,459,o),
(445,418,o),
(433,346,cs),
(414,232,ls),
(406,185,o),
(385,144,o),
(359,114,cs),
(324,74,o),
(282,57,o),
(240,57,cs)
);
}
);
userData = {
com.typemytype.robofont.pointLabels = {
};
};
width = 600;
},
{
anchors = (
{
name = bottom;
pos = (248,0);
},
{
name = bottomright;
pos = (534,0);
},
{
name = top;
pos = (326,516);
}
);
layerId = m003;
shapes = (
{
closed = 1;
nodes = (
(272,-12,o),
(311,44,o),
(350,123,c),
(355,123,l),
(353,110,ls),
(342,38,o),
(384,0,o),
(459,0,cs),
(534,0,l),
(552,107,l),
(499,107,l),
(567,516,l),
(421,516,l),
(405,420,l),
(398,420,l),
(383,488,o),
(349,528,o),
(271,528,cs),
(126,528,o),
(38,392,o),
(38,193,cs),
(38,68,o),
(73,-12,o),
(181,-12,cs)
);
},
{
closed = 1;
nodes = (
(200,101,o),
(186,139,o),
(186,187,cs),
(186,205,o),
(188,221,o),
(190,233,cs),
(200,293,ls),
(213,371,o),
(244,415,o),
(317,415,cs),
(379,415,o),
(399,384,o),
(390,330,cs),
(376,247,ls),
(369,204,o),
(347,168,o),
(332,149,cs),
(309,120,o),
(281,101,o),
(247,101,cs)
);
}
);
userData = {
com.typemytype.robofont.pointLabels = {
};
};
width = 600;
}
);
unicode = 97;
},
{
glyphname = aogonek;
layers = (
{
anchors = (
{
name = bottom;
pos = (235,0);
},
{
name = top;
pos = (321,516);
}
);
layerId = m001;
shapes = (
{
closed = 1;
nodes = (
(460,-202,o),
(488,-188,o),
(503,-170,c),
(490,-159,l),
(478,-171,o),
(458,-184,o),
(426,-184,cs),
(397,-184,o),
(373,-169,o),
(373,-137,cs),
(373,-86,o),
(416,-58,o),
(517,0,c),
(521,19,l),
(436,19,l),
(519,516,l),
(498,516,l),
(483,423,l),
(480,423,l),
(460,484,o),
(404,528,o),
(313,528,cs),
(167,528,o),
(71,384,o),
(71,186,cs),
(71,72,o),
(130,-12,o),
(244,-12,cs),
(335,-12,o),
(389,40,o),
(428,115,c),
(431,115,l),
(417,30,ls),
(414,10,o),
(420,0,o),
(440,0,cs),
(492,0,l),
(374,-60,o),
(352,-100,o),
(352,-137,cs),
(352,-182,o),
(385,-202,o),
(426,-202,cs)
);
},
{
closed = 1;
nodes = (
(135,7,o),
(91,89,o),
(91,186,cs),
(91,203,o),
(92,220,o),
(95,237,cs),
(103,286,ls),
(124,412,o),
(199,509,o),
(313,509,cs),
(441,509,o),
(482,424,o),
(471,355,cs),
(446,204,ls),
(435,138,o),
(397,83,o),
(358,48,cs),
(325,19,o),
(288,7,o),
(244,7,cs)
);
}
);
userData = {
com.typemytype.robofont.pointLabels = {
};
};
width = 600;
},
{
anchors = (
{
name = bottom;
pos = (240,0);
},
{
name = top;
pos = (316,516);
}
);
layerId = m002;
shapes = (
{
closed = 1;
nodes = (
(480,-207,o),
(513,-189,o),
(531,-170,c),
(493,-127,l),
(474,-144,o),
(454,-153,o),
(437,-153,cs),
(419,-153,o),
(403,-144,o),
(403,-122,cs),
(403,-101,o),
(417,-70,o),
(524,0,c),
(536,70,l),
(465,70,l),
(539,516,l),
(461,516,l),
(446,426,l),
(443,426,l),
(421,493,o),
(370,528,o),
(296,528,cs),
(117,528,o),
(56,326,o),
(56,188,cs),
(56,56,o),
(112,-12,o),
(213,-12,cs),
(302,-12,o),
(352,41,o),
(392,122,c),
(395,122,l),
(389,85,ls),
(381,39,o),
(401,2,o),
(461,0,c),
(461,-5,l),
(386,-40,o),
(335,-77,o),
(335,-132,cs),
(335,-186,o),
(382,-207,o),
(433,-207,cs)
);
},
{
closed = 1;
nodes = (
(171,57,o),
(135,103,o),
(135,180,cs),
(135,193,o),
(136,207,o),
(139,225,cs),
(151,297,ls),
(167,393,o),
(222,459,o),
(318,459,cs),
(394,459,o),
(445,418,o),
(433,346,cs),
(414,232,ls),
(406,185,o),
(385,144,o),
(359,114,cs),
(324,74,o),
(282,57,o),
(240,57,cs)
);
}
);
userData = {
com.typemytype.robofont.pointLabels = {
};
};
width = 600;
},
{
anchors = (
{
name = bottom;
pos = (248,0);
},
{
name = top;
pos = (326,516);
}
);
layerId = m003;
shapes = (
{
closed = 1;
nodes = (
(498,-212,o),
(537,-190,o),
(562,-158,c),
(508,-113,l),
(494,-134,o),
(475,-140,o),
(455,-140,cs),
(429,-140,o),
(418,-127,o),
(418,-110,cs),
(418,-90,o),
(429,-63,o),
(534,0,c),
(552,107,l),
(499,107,l),
(567,516,l),
(421,516,l),
(405,420,l),
(398,420,l),
(383,488,o),
(349,528,o),
(271,528,cs),
(126,528,o),
(38,392,o),
(38,193,cs),
(38,68,o),
(73,-12,o),
(181,-12,cs),
(272,-12,o),
(311,44,o),
(350,123,c),
(355,123,l),
(353,110,ls),
(342,38,o),
(383,0,o),
(458,0,c),
(459,-4,l),
(360,-30,o),
(319,-78,o),
(319,-127,cs),
(319,-182,o),
(370,-212,o),
(441,-212,cs)
);
},
{
closed = 1;
nodes = (
(200,101,o),
(186,139,o),
(186,187,cs),
(186,205,o),
(188,221,o),
(190,233,cs),
(200,293,ls),
(213,371,o),
(244,415,o),
(317,415,cs),
(379,415,o),
(399,384,o),
(390,330,cs),
(376,247,ls),
(369,204,o),
(347,168,o),
(332,149,cs),
(309,120,o),
(281,101,o),
(247,101,cs)
);
}
);
userData = {
com.typemytype.robofont.pointLabels = {
};
};
width = 600;
}
);
unicode = 261;
},
{
glyphname = ae;
layers = (
{
anchors = (
{
name = top;
pos = (365,516);
}
);
layerId = m001;
shapes = (
{
closed = 1;
nodes = (
(204,-12,o),
(253,44,o),
(277,117,c),
(280,117,l),
(285,30,o),
(326,-12,o),
(390,-12,cs),
(467,-12,o),
(515,44,o),
(548,115,c),
(530,123,l),
(497,51,o),
(453,7,o),
(390,7,cs),
(334,7,o),
(297,50,o),
(297,152,cs),
(297,176,o),
(300,204,o),
(306,237,cs),
(308,248,l),
(505,253,o),
(589,311,o),
(589,426,cs),
(589,483,o),
(553,528,o),
(490,528,cs),
(427,528,o),
(368,490,o),
(332,404,c),
(329,404,l),
(332,486,o),
(290,528,o),
(215,528,cs),
(143,528,o),
(94,483,o),
(64,429,c),
(81,421,l),
(114,473,o),
(149,509,o),
(215,509,cs),
(272,509,o),
(311,484,o),
(311,404,cs),
(311,392,o),
(310,379,o),
(307,363,cs),
(290,266,l),
(212,262,ls),
(68,255,o),
(4,199,o),
(4,91,cs),
(4,28,o),
(42,-12,o),
(114,-12,cs)
);
},
{
closed = 1;
nodes = (
(53,7,o),
(25,39,o),
(25,91,cs),
(25,98,o),
(25,108,o),
(29,128,cs),
(45,214,o),
(106,238,o),
(214,244,cs),
(288,248,l),
(274,164,ls),
(260,79,o),
(209,7,o),
(116,7,cs)
);
},
{
closed = 1;
nodes = (
(536,509,o),
(568,478,o),
(568,425,cs),
(568,313,o),
(483,269,o),
(311,266,c),
(313,282,ls),
(331,427,o),
(405,509,o),
(486,509,cs)
);
}
);
userData = {
com.typemytype.robofont.pointLabels = {
};
};
width = 600;
},
{
anchors = (
{
name = top;
pos = (350,516);
}
);
layerId = m002;
shapes = (
{
closed = 1;
nodes = (
(195,-12,o),
(241,36,o),
(261,122,c),
(267,122,l),
(270,36,o),
(323,-12,o),
(396,-12,cs),
(479,-12,o),
(533,52,o),
(561,114,c),
(507,141,l),
(481,91,o),
(453,50,o),
(401,50,cs),
(351,50,o),
(323,87,o),
(323,159,cs),
(323,172,o),
(324,194,o),
(327,212,cs),
(331,236,l),
(536,242,o),
(596,324,o),
(596,408,cs),
(596,485,o),
(545,528,o),
(476,528,cs),
(412,528,o),
(366,492,o),
(335,430,c),
(331,430,l),
(331,478,o),
(299,528,o),
(214,528,cs),
(134,528,o),
(79,483,o),
(49,428,c),
(95,393,l),
(126,442,o),
(158,469,o),
(208,469,cs),
(258,469,o),
(282,442,o),
(282,388,cs),
(282,377,o),
(281,361,o),
(278,343,cs),
(268,287,l),
(206,284,ls),
(82,278,o),
(0,222,o),
(0,116,cs),
(0,32,o),
(52,-12,o),
(121,-12,cs)
);
},
{
closed = 1;
nodes = (
(95,47,o),
(68,70,o),
(68,110,cs),
(68,117,o),
(68,125,o),
(71,143,cs),
(82,209,o),
(127,227,o),
(205,231,cs),
(259,234,l),
(245,150,ls),
(235,90,o),
(190,47,o),
(138,47,cs)
);
},
{
closed = 1;
nodes = (
(510,469,o),
(530,446,o),
(530,406,cs),
(530,345,o),
(485,294,o),
(339,289,c),
(342,307,ls),
(355,392,o),
(400,469,o),
(471,469,cs)
);
}
);
userData = {
com.typemytype.robofont.pointLabels = {
};
};
width = 600;
},
{
anchors = (
{
name = top;
pos = (333,516);
}
);
layerId = m003;
shapes = (
{
closed = 1;
nodes = (
(176,-12,o),
(222,27,o),
(241,105,c),
(245,105,l),
(256,20,o),
(315,-12,o),
(388,-12,cs),
(472,-12,o),
(524,31,o),
(561,118,c),
(470,157,l),
(453,114,o),
(433,83,o),
(397,83,cs),
(360,83,o),
(341,115,o),
(341,167,cs),
(341,179,o),
(342,197,o),
(345,215,cs),
(347,226,l),
(559,230,o),
(601,323,o),
(601,394,cs),
(601,472,o),
(550,528,o),
(466,528,cs),
(401,528,o),
(354,495,o),
(327,449,c),
(324,449,l),
(316,508,o),
(267,528,o),
(208,528,cs),
(134,528,o),
(83,497,o),
(44,411,c),
(124,365,l),
(143,411,o),
(167,437,o),
(203,437,cs),
(234,437,o),
(253,417,o),
(253,378,cs),
(253,369,o),
(252,359,o),
(250,347,cs),
(243,305,l),
(203,305,ls),
(69,305,o),
(-8,234,o),
(-8,121,cs),
(-8,30,o),
(41,-12,o),
(110,-12,cs)
);
},
{
closed = 1;
nodes = (
(120,77,o),
(101,91,o),
(101,125,cs),
(101,127,o),
(101,138,o),
(104,157,cs),
(113,206,o),
(148,228,o),
(201,228,cs),
(230,228,l),
(222,179,ls),
(211,112,o),
(186,77,o),
(146,77,cs)
);
},
{
closed = 1;
nodes = (
(478,439,o),
(496,422,o),
(496,390,cs),
(496,346,o),
(461,307,o),
(360,303,c),
(361,311,l),
(376,399,o),
(407,439,o),
(450,439,cs)
);
}
);
userData = {
com.typemytype.robofont.pointLabels = {
};
};
width = 600;
}
);
unicode = 230;
},
{
glyphname = b;
layers = (
{
anchors = (
{
name = bottom;
pos = (286,0);
}
);
layerId = m001;
shapes = (
{
closed = 1;
nodes = (
(101,0,l),
(116,93,l),
(119,93,l),
(139,32,o),
(195,-12,o),
(286,-12,cs),
(432,-12,o),
(528,132,o),
(528,330,cs),
(528,444,o),
(469,528,o),
(355,528,cs),
(264,528,o),
(210,476,o),
(171,401,c),
(168,401,l),
(224,740,l),
(203,740,l),
(80,0,l)
);
},
{
closed = 1;
nodes = (
(158,7,o),
(117,92,o),
(128,161,cs),
(153,312,ls),
(164,378,o),
(202,433,o),
(241,468,cs),
(274,497,o),
(311,509,o),
(355,509,cs),
(464,509,o),
(508,427,o),
(508,330,cs),
(508,313,o),
(507,296,o),
(504,279,cs),
(496,230,ls),
(475,104,o),
(400,7,o),
(286,7,cs)
);
}
);
userData = {
com.typemytype.robofont.pointLabels = {
};
};
width = 600;
},
{
anchors = (
{
name = bottom;
pos = (291,0);
}
);
layerId = m002;
shapes = (
{
closed = 1;
nodes = (
(131,0,l),
(146,90,l),
(149,90,l),
(171,23,o),
(224,-12,o),
(300,-12,cs),
(482,-12,o),
(544,190,o),
(544,328,cs),
(544,460,o),
(487,528,o),
(383,528,cs),
(292,528,o),
(240,475,o),
(200,394,c),
(197,394,l),
(255,740,l),
(177,740,l),
(53,0,l)
);
},
{
closed = 1;
nodes = (
(199,57,o),
(147,98,o),
(159,170,cs),
(178,284,ls),
(186,332,o),
(209,373,o),
(235,402,cs),
(271,442,o),
(313,459,o),
(356,459,cs),
(428,459,o),
(465,413,o),
(465,336,cs),
(465,323,o),
(464,309,o),
(461,291,cs),
(449,219,ls),
(433,123,o),
(375,57,o),
(276,57,cs)
);
}
);
userData = {
com.typemytype.robofont.pointLabels = {
};
};
width = 600;
},
{
anchors = (
{
name = bottom;
pos = (318,0);
}
);
layerId = m003;
shapes = (
{
closed = 1;
nodes = (
(167,0,l),
(183,96,l),
(190,96,l),
(205,28,o),
(244,-12,o),
(325,-12,cs),
(468,-12,o),
(562,123,o),
(562,328,cs),
(562,449,o),
(520,528,o),
(411,528,cs),
(323,528,o),
(277,472,o),
(238,393,c),
(233,393,l),
(290,740,l),
(144,740,l),
(21,0,l)
);
},
{
closed = 1;
nodes = (
(215,101,o),
(189,132,o),
(198,186,cs),
(212,269,ls),
(219,312,o),
(243,347,o),
(259,366,cs),
(283,396,o),
(310,415,o),
(346,415,cs),
(396,415,o),
(413,377,o),
(414,328,cs),
(414,311,o),
(412,295,o),
(410,283,cs),
(400,223,ls),
(387,145,o),
(350,101,o),
(278,101,cs)
);
}
);
userData = {
com.typemytype.robofont.pointLabels = {
};
};
width = 600;
}
);
unicode = 98;
},
{
glyphname = c;
layers = (
{
anchors = (
{
name = bottom;
pos = (260,0);
},
{
name = top;
pos = (326,516);
}
);
layerId = m001;
shapes = (
{
closed = 1;
nodes = (
(361,-12,o),
(426,49,o),
(481,139,c),
(463,147,l),
(410,62,o),
(351,7,o),
(264,7,cs),
(152,7,o),
(103,94,o),
(103,201,cs),
(103,221,o),
(104,233,o),
(107,253,cs),
(115,302,ls),
(136,429,o),
(220,509,o),
(334,509,cs),
(404,509,o),
(458,473,o),
(475,408,c),
(494,413,l),
(478,481,o),
(417,528,o),
(335,528,cs),
(188,528,o),
(83,409,o),
(83,201,cs),
(83,77,o),
(144,-12,o),
(265,-12,cs)
);
}
);
userData = {
com.typemytype.robofont.pointLabels = {
};
};
width = 600;
},
{
anchors = (
{
name = bottom;
pos = (272,0);
},
{
name = top;
pos = (339,516);
}
);
layerId = m002;
shapes = (
{
closed = 1;
nodes = (
(378,-12,o),
(443,44,o),
(508,149,c),
(452,182,l),
(370,69,o),
(326,56,o),
(280,56,cs),
(205,56,o),
(154,97,o),
(154,185,cs),
(154,198,o),
(155,209,o),
(159,233,cs),
(169,293,ls),
(187,401,o),
(244,460,o),
(332,460,cs),
(396,460,o),
(434,441,o),
(454,378,c),
(521,404,l),
(503,472,o),
(450,528,o),
(341,528,cs),
(194,528,o),
(75,403,o),
(75,206,cs),
(75,77,o),
(142,-12,o),
(270,-12,cs)
);
}
);
userData = {
com.typemytype.robofont.pointLabels = {
};
};
width = 600;
},
{
anchors = (
{
name = bottom;
pos = (276,0);
},
{
name = top;
pos = (339,516);
}
);
layerId = m003;
shapes = (
{
closed = 1;
nodes = (
(397,-12,o),
(465,48,o),
(533,156,c),
(442,215,l),
(369,119,o),
(339,105,o),
(297,105,cs),
(231,105,o),
(206,141,o),
(206,194,cs),
(206,210,o),
(208,229,o),
(210,241,cs),
(220,301,ls),
(232,373,o),
(274,411,o),
(331,411,cs),
(389,411,o),
(410,384,o),
(424,341,c),
(543,397,l),
(521,475,o),
(461,528,o),
(343,528,cs),
(159,528,o),
(57,382,o),
(57,206,cs),
(57,68,o),
(133,-12,o),
(273,-12,cs)
);
}
);
userData = {
com.typemytype.robofont.pointLabels = {
};
};
width = 600;
}
);
unicode = 99;
},
{
glyphname = ccedilla;
lastChange = "2024-07-30 19:51:03 +0000";
layers = (
{
anchors = (
{
name = top;
pos = (326,516);
}
);
layerId = m001;
shapes = (
{
closed = 1;
nodes = (
(188,528,o),
(83,409,o),
(83,201,cs),
(83,86,o),
(135,2,o),
(238,-10,c),
(208,-84,l),
(246,-86,ls),
(285,-88,o),
(299,-104,o),
(299,-127,cs),
(299,-160,o),
(271,-184,o),
(228,-184,cs),
(200,-184,o),
(179,-174,o),
(166,-157,c),
(152,-170,l),
(164,-187,o),
(191,-202,o),
(228,-202,cs),
(285,-202,o),
(320,-167,o),
(320,-126,cs),
(320,-93,o),
(298,-72,o),
(261,-72,cs),
(253,-72,o),
(241,-73,o),
(232,-75,c),
(230,-73,l),
(256,-12,l),
(259,-12,o),
(262,-12,o),
(265,-12,cs),
(361,-12,o),
(426,49,o),
(481,139,c),
(463,147,l),
(410,62,o),
(351,7,o),
(264,7,cs),
(152,7,o),
(103,94,o),
(103,201,cs),
(103,221,o),
(104,233,o),
(107,253,cs),
(115,302,ls),
(136,429,o),
(220,509,o),
(334,509,cs),
(404,509,o),
(458,473,o),
(475,408,c),
(494,413,l),
(478,481,o),
(417,528,o),
(335,528,cs)
);
}
);
userData = {
com.typemytype.robofont.pointLabels = {
};
};
width = 600;
},
{
anchors = (
{
name = top;
pos = (339,516);
}
);
layerId = m002;
shapes = (
{
closed = 1;
nodes = (
(194,528,o),
(75,403,o),
(75,206,cs),
(75,87,o),
(132,2,o),
(242,-10,c),
(218,-76,l),
(247,-80,ls),
(298,-87,o),
(307,-105,o),
(307,-119,cs),
(307,-141,o),
(286,-153,o),
(257,-153,cs),
(228,-153,o),
(211,-141,o),
(201,-126,c),
(161,-166,l),
(174,-187,o),
(205,-207,o),
(257,-207,cs),
(318,-207,o),
(372,-181,o),
(372,-119,cs),
(372,-80,o),
(350,-60,o),
(313,-60,cs),
(305,-60,o),
(290,-61,o),
(276,-64,c),
(274,-61,l),
(292,-11,l),
(292,-11,o),
(293,-11,o),
(293,-11,cs),
(387,-4,o),
(448,51,o),
(508,149,c),
(452,182,l),
(370,69,o),
(326,56,o),
(280,56,cs),
(205,56,o),
(154,97,o),
(154,185,cs),
(154,198,o),
(155,209,o),
(159,233,cs),
(169,293,ls),
(187,401,o),
(244,460,o),
(332,460,cs),
(396,460,o),
(434,441,o),
(454,378,c),
(521,404,l),
(503,472,o),
(450,528,o),
(341,528,cs)
);
}
);
userData = {
com.typemytype.robofont.pointLabels = {
};
};
width = 600;
},
{
anchors = (
{
name = top;
pos = (340,516);
}
);
layerId = m003;
shapes = (
{
closed = 1;
nodes = (
(159,528,o),
(57,382,o),
(57,206,cs),
(57,80,o),
(121,2,o),
(239,-10,c),
(214,-74,l),
(237,-76,ls),
(289,-81,o),
(305,-95,o),
(305,-112,cs),
(305,-132,o),
(284,-141,o),
(255,-141,cs),
(225,-141,o),
(204,-125,o),
(194,-113,c),
(143,-166,l),
(162,-191,o),
(202,-212,o),
(258,-212,cs),
(339,-212,o),
(401,-178,o),
(401,-110,cs),
(401,-74,o),
(372,-52,o),
(335,-52,cs),
(322,-52,o),
(308,-54,o),
(293,-59,c),
(290,-55,l),
(306,-11,l),
(306,-11,o),
(306,-11,o),
(306,-11,cs),
(409,-1,o),
(471,58,o),
(533,156,c),
(442,215,l),
(369,119,o),
(339,105,o),
(297,105,cs),
(231,105,o),
(206,141,o),
(206,194,cs),
(206,210,o),
(208,229,o),
(210,241,cs),
(220,301,ls),
(232,372,o),
(273,411,o),
(331,411,cs),
(389,411,o),
(410,384,o),
(424,341,c),
(543,397,l),
(521,475,o),
(461,528,o),
(343,528,cs)
);
}
);
userData = {
com.typemytype.robofont.pointLabels = {
};
};
width = 600;
}
);
unicode = 231;
},
{
glyphname = d;
layers = (
{
anchors = (
{
name = bottom;
pos = (244,0);
},
{
name = topright;
pos = (626,740);
}
);
layerId = m001;
shapes = (
{
closed = 1;
nodes = (
(433,0,l),
(556,740,l),
(535,740,l),
(483,423,l),
(480,423,l),
(460,484,o),
(404,528,o),
(313,528,cs),
(167,528,o),
(71,384,o),
(71,186,cs),
(71,72,o),
(130,-12,o),
(244,-12,cs),
(335,-12,o),
(389,40,o),
(428,115,c),
(431,115,l),
(412,0,l)
);
},
{
closed = 1;
nodes = (
(135,7,o),
(91,89,o),
(91,186,cs),
(91,203,o),
(92,220,o),
(95,237,cs),
(103,286,ls),
(124,412,o),
(199,509,o),
(313,509,cs),
(441,509,o),
(482,424,o),
(471,355,cs),
(446,204,ls),
(435,138,o),
(397,83,o),
(358,48,cs),
(325,19,o),
(288,7,o),
(244,7,cs)
);
}
);
userData = {
com.typemytype.robofont.pointLabels = {
};
};
width = 600;
},
{
anchors = (
{
name = bottom;
pos = (227,0);
},
{
name = topright;
pos = (647,740);
}
);
layerId = m002;
shapes = (
{
closed = 1;
nodes = (
(461,0,l),
(585,740,l),
(507,740,l),
(454,426,l),
(451,426,l),
(429,493,o),
(376,528,o),
(300,528,cs),
(118,528,o),
(56,326,o),
(56,188,cs),
(56,56,o),
(113,-12,o),
(217,-12,cs),
(308,-12,o),
(360,41,o),
(400,122,c),
(403,122,l),
(383,0,l)
);
},
{
closed = 1;
nodes = (
(172,57,o),
(135,103,o),
(135,180,cs),
(135,193,o),
(136,207,o),
(139,225,cs),
(151,297,ls),
(167,393,o),
(224,459,o),
(323,459,cs),
(400,459,o),
(453,418,o),
(441,346,cs),
(422,232,ls),
(414,184,o),
(391,143,o),
(365,114,cs),
(329,74,o),
(287,57,o),
(244,57,cs)
);
}
);
userData = {
com.typemytype.robofont.pointLabels = {
};
};
width = 600;
},
{
anchors = (
{
name = bottom;
pos = (198,0);
},
{
name = topright;
pos = (667,740);
}
);
layerId = m003;
shapes = (
{
closed = 1;
nodes = (
(493,0,l),
(616,740,l),
(470,740,l),
(417,420,l),
(410,420,l),
(395,488,o),
(356,528,o),
(275,528,cs),
(132,528,o),
(38,393,o),
(38,188,cs),
(38,67,o),
(80,-12,o),
(189,-12,cs),
(277,-12,o),
(323,44,o),
(362,123,c),
(367,123,l),
(347,0,l)
);
},
{
closed = 1;
nodes = (
(204,101,o),
(187,139,o),
(186,188,cs),
(186,205,o),
(188,221,o),
(190,233,cs),
(200,293,ls),
(213,371,o),
(250,415,o),
(322,415,cs),
(385,415,o),
(411,384,o),
(402,330,cs),
(388,247,ls),
(381,204,o),
(357,169,o),
(341,150,cs),
(317,120,o),
(290,101,o),
(254,101,cs)
);
}
);
userData = {
com.typemytype.robofont.pointLabels = {
};
};
width = 600;
}
);
unicode = 100;
},
{
glyphname = dcaron;
layers = (
{
layerId = m001;
shapes = (
{
closed = 1;
nodes = (
(335,-12,o),
(389,40,o),
(428,115,c),
(431,115,l),
(412,0,l),
(433,0,l),
(556,740,l),
(535,740,l),
(483,423,l),
(480,423,l),
(460,484,o),
(404,528,o),
(313,528,cs),
(167,528,o),
(71,384,o),
(71,186,cs),
(71,72,o),
(130,-12,o),
(244,-12,cs)
);
},
{
closed = 1;
nodes = (
(135,7,o),
(91,89,o),
(91,186,cs),
(91,203,o),
(92,220,o),
(95,237,cs),
(103,286,ls),
(124,412,o),
(199,509,o),
(313,509,cs),
(441,509,o),
(482,424,o),
(471,355,cs),
(446,204,ls),
(435,138,o),
(397,83,o),
(358,48,cs),
(325,19,o),
(288,7,o),
(244,7,cs)
);
},
{
closed = 1;
nodes = (
(615,564,l),
(668,740,l),
(643,740,l),
(598,564,l)
);
}
);
userData = {
com.typemytype.robofont.pointLabels = {
};
};
width = 600;
},
{
layerId = m002;
shapes = (
{
closed = 1;
nodes = (
(280,-12,o),
(331,41,o),
(369,122,c),
(372,122,l),
(352,0,l),
(430,0,l),
(554,740,l),
(476,740,l),
(424,426,l),
(421,426,l),
(401,493,o),
(348,528,o),
(275,528,cs),
(100,528,o),
(40,325,o),
(40,188,cs),
(40,56,o),
(95,-12,o),
(193,-12,cs)
);
},
{
closed = 1;
nodes = (
(154,57,o),
(119,103,o),
(119,181,cs),
(119,194,o),
(120,208,o),
(123,226,cs),
(135,298,ls),
(151,394,o),
(205,459,o),
(298,459,cs),
(368,459,o),
(423,421,o),
(410,346,cs),
(391,233,ls),
(383,185,o),
(360,142,o),
(337,115,cs),
(299,70,o),
(258,57,o),
(222,57,cs)
);
},
{
closed = 1;
nodes = (
(648,553,l),
(728,740,l),
(626,740,l),
(590,553,l)
);
}
);
userData = {
com.typemytype.robofont.pointLabels = {
};
};
width = 600;
},
{
layerId = m003;
shapes = (
{
closed = 1;
nodes = (
(215,-12,o),
(246,33,o),
(277,95,c),
(284,95,l),
(268,0,l),
(407,0,l),
(531,740,l),
(392,740,l),
(338,420,l),
(332,420,l),
(317,487,o),
(288,528,o),
(219,528,cs),
(100,528,o),
(18,393,o),
(18,188,cs),
(18,67,o),
(55,-12,o),
(150,-12,cs)
);
},
{
closed = 1;
nodes = (
(183,101,o),
(165,132,o),
(165,172,cs),
(165,196,o),
(167,215,o),
(170,233,cs),
(181,299,ls),
(193,370,o),
(217,415,o),
(267,415,cs),
(312,415,o),
(333,385,o),
(324,334,cs),
(303,210,ls),
(296,168,o),
(275,135,o),
(258,119,cs),
(245,108,o),
(235,101,o),
(213,101,cs)
);
},
{
closed = 1;
nodes = (
(622,530,l),
(711,740,l),
(582,740,l),
(546,530,l)
);
}
);
userData = {
com.typemytype.robofont.pointLabels = {
};
};
width = 600;
}
);
unicode = 271;
},
{
glyphname = dcroat;
layers = (
{
layerId = m001;
shapes = (
{
closed = 1;
nodes = (
(433,0,l),
(539,636,l),
(610,636,l),
(613,654,l),
(542,654,l),
(556,740,l),
(535,740,l),
(521,654,l),
(355,654,l),
(352,636,l),
(518,636,l),
(483,423,l),
(480,423,l),
(460,484,o),
(404,528,o),
(313,528,cs),
(167,528,o),
(71,384,o),
(71,186,cs),
(71,72,o),
(130,-12,o),
(244,-12,cs),
(335,-12,o),
(389,40,o),
(428,115,c),
(431,115,l),
(412,0,l)
);
},
{
closed = 1;
nodes = (
(135,7,o),
(91,89,o),
(91,186,cs),
(91,203,o),
(92,220,o),
(95,237,cs),
(103,286,ls),
(124,412,o),
(199,509,o),
(313,509,cs),
(441,509,o),
(482,424,o),
(471,355,cs),
(446,204,ls),
(435,138,o),
(397,83,o),
(358,48,cs),
(325,19,o),
(288,7,o),
(244,7,cs)
);
}
);
userData = {
com.typemytype.robofont.pointLabels = {
};
};
width = 600;
},
{
layerId = m002;
shapes = (
{
closed = 1;
nodes = (
(461,0,l),
(563,609,l),
(627,609,l),
(637,669,l),
(573,669,l),
(585,740,l),
(507,740,l),
(495,669,l),
(342,669,l),
(332,609,l),
(485,609,l),
(454,426,l),
(451,426,l),
(429,493,o),
(376,528,o),
(300,528,cs),
(118,528,o),
(56,326,o),
(56,188,cs),
(56,56,o),
(113,-12,o),
(217,-12,cs),
(308,-12,o),
(360,41,o),
(400,122,c),
(403,122,l),
(383,0,l)
);
},
{
closed = 1;
nodes = (
(172,57,o),
(135,103,o),
(135,180,cs),
(135,193,o),
(136,207,o),
(139,225,cs),
(151,297,ls),
(167,393,o),
(224,459,o),
(323,459,cs),
(400,459,o),
(453,418,o),
(441,346,cs),
(422,232,ls),
(414,184,o),
(391,143,o),
(365,114,cs),
(329,74,o),
(287,57,o),
(244,57,cs)
);
}
);
userData = {
com.typemytype.robofont.pointLabels = {
};
};
width = 600;
},
{
layerId = m003;
shapes = (
{
closed = 1;
nodes = (
(493,0,l),
(590,581,l),
(644,581,l),
(662,689,l),
(608,689,l),
(617,740,l),
(471,740,l),
(462,689,l),
(322,689,l),
(304,581,l),
(444,581,l),
(417,420,l),
(410,420,l),
(395,488,o),
(356,528,o),
(275,528,c),
(132,528,o),
(38,393,o),
(38,188,cs),
(38,67,o),
(80,-12,o),
(189,-12,cs),
(277,-12,o),
(323,44,o),
(362,123,c),
(367,123,l),
(347,0,l)
);
},
{
closed = 1;
nodes = (
(204,101,o),
(187,139,o),
(186,188,cs),
(186,205,o),
(188,221,o),
(190,233,cs),
(200,293,ls),
(213,371,o),
(250,415,o),
(322,415,cs),
(385,415,o),
(411,384,o),
(402,330,cs),
(388,247,ls),
(381,204,o),
(357,169,o),
(341,150,cs),
(317,120,o),
(290,101,o),
(254,101,cs)
);
}
);
userData = {
com.typemytype.robofont.pointLabels = {
};
};
width = 600;
}
);
unicode = 273;
},
{
glyphname = eth;
layers = (
{
layerId = m001;
shapes = (
{
closed = 1;
nodes = (
(495,745,l),
(377,670,l),
(350,698,o),
(323,721,o),
(299,740,c),
(266,740,l),
(299,717,o),
(332,690,o),
(361,660,c),
(249,589,l),
(259,575,l),
(372,647,l),
(427,585,o),
(470,508,o),
(485,421,c),
(482,419,l),
(454,476,o),
(397,508,o),
(327,508,cs),
(183,508,o),
(78,379,o),
(78,180,cs),
(78,62,o),
(147,-12,o),
(257,-12,cs),
(403,-12,o),
(512,106,o),
(512,330,cs),
(512,480,o),
(453,585,o),
(389,657,c),
(505,731,l)
);
},
{
closed = 1;
nodes = (
(162,7,o),
(98,72,o),
(98,180,cs),
(98,197,o),
(99,217,o),
(102,237,cs),
(110,281,ls),
(134,412,o),
(221,489,o),
(330,489,cs),
(426,489,o),
(490,424,o),
(490,316,cs),
(490,299,o),
(489,279,o),
(486,259,cs),
(478,215,ls),
(454,84,o),
(369,7,o),
(258,7,cs)
);
}
);
userData = {
com.typemytype.robofont.pointLabels = {
};
};
width = 600;
},
{
layerId = m002;
shapes = (
{
closed = 1;
nodes = (
(500,753,l),
(396,687,l),
(374,709,o),
(351,727,o),
(333,740,c),
(208,740,l),
(257,714,o),
(299,683,o),
(334,649,c),
(238,588,l),
(269,542,l),
(373,607,l),
(424,545,o),
(455,477,o),
(467,415,c),
(462,413,l),
(441,466,o),
(383,504,o),
(317,504,cs),
(168,504,o),
(60,369,o),
(60,198,cs),
(60,72,o),
(138,-12,o),
(256,-12,cs),
(438,-12,o),
(539,125,o),
(539,335,cs),
(539,473,o),
(489,575,o),
(433,645,c),
(531,707,l)
);
},
{
closed = 1;
nodes = (
(191,56,o),
(140,95,o),
(140,176,cs),
(140,187,o),
(141,203,o),
(145,227,cs),
(154,281,ls),
(171,385,o),
(240,436,o),
(329,436,cs),
(407,436,o),
(458,397,o),
(458,316,cs),
(458,305,o),
(457,289,o),
(453,265,cs),
(444,211,ls),
(427,109,o),
(359,56,o),
(269,56,cs)
);
}
);
userData = {
com.typemytype.robofont.pointLabels = {
};
};
width = 600;
},
{
layerId = m003;
shapes = (
{
closed = 1;
nodes = (
(513,753,l),
(418,702,l),
(403,716,o),
(388,728,o),
(373,740,c),
(150,740,l),
(204,709,o),
(254,674,o),
(295,636,c),
(204,588,l),
(245,528,l),
(347,583,l),
(392,529,o),
(423,469,o),
(431,408,c),
(423,404,l),
(400,464,o),
(356,500,o),
(280,500,cs),
(138,500,o),
(32,375,o),
(32,204,cs),
(32,71,o),
(112,-12,o),
(255,-12,cs),
(438,-12,o),
(568,102,o),
(568,353,cs),
(568,476,o),
(527,574,o),
(468,648,c),
(552,693,l)
);
},
{
closed = 1;
nodes = (
(214,97,o),
(179,126,o),
(179,183,cs),
(179,192,o),
(180,202,o),
(182,214,cs),
(191,268,ls),
(204,346,o),
(252,389,o),
(319,389,cs),
(376,389,o),
(411,360,o),
(411,303,cs),
(411,294,o),
(410,284,o),
(408,272,cs),
(399,218,ls),
(386,140,o),
(338,97,o),
(271,97,cs)
);
}
);
userData = {
com.typemytype.robofont.pointLabels = {
};
};
width = 600;
}
);
unicode = 240;
},
{
glyphname = e;
layers = (
{
anchors = (
{
name = bottom;
pos = (271,0);
},
{
name = bottomright;
pos = (346,0);
},
{
name = top;
pos = (341,516);
}
);
layerId = m001;
shapes = (
{
closed = 1;
nodes = (
(365,-12,o),
(433,36,o),
(488,141,c),
(470,150,l),
(426,61,o),
(362,7,o),
(273,7,cs),
(149,7,o),
(103,95,o),
(103,205,cs),
(103,206,o),
(103,220,o),
(104,231,c),
(461,238,o),
(505,338,o),
(505,405,cs),
(505,481,o),
(444,528,o),
(343,528,cs),
(189,528,o),
(83,382,o),
(83,212,cs),
(83,66,o),
(149,-12,o),
(273,-12,cs)
);
},
{
closed = 1;
nodes = (
(443,509,o),
(483,464,o),
(483,405,cs),
(483,332,o),
(422,255,o),
(106,250,c),
(111,281,ls),
(134,425,o),
(233,509,o),
(341,509,cs)
);
}
);
userData = {
com.typemytype.robofont.pointLabels = {
};
};
width = 600;
},
{
anchors = (
{
name = bottom;
pos = (281,0);
},
{
name = bottomright;
pos = (360,0);
},
{
name = top;
pos = (354,516);
}
);
layerId = m002;
shapes = (
{
closed = 1;
nodes = (
(386,-12,o),
(456,40,o),
(514,135,c),
(459,169,l),
(401,87,o),
(358,55,o),
(284,55,cs),
(176,55,o),
(155,122,o),
(155,194,cs),
(155,196,o),
(155,207,o),
(156,217,c),
(485,226,o),
(532,316,o),
(532,389,cs),
(532,479,o),
(458,528,o),
(357,528,cs),
(191,528,o),
(73,396,o),
(73,209,cs),
(73,61,o),
(147,-12,o),
(277,-12,cs)
);
},
{
closed = 1;
nodes = (
(425,463,o),
(452,428,o),
(452,386,cs),
(452,336,o),
(414,279,o),
(162,271,c),
(163,281,ls),
(178,398,o),
(246,463,o),
(350,463,cs)
);
}
);
userData = {
com.typemytype.robofont.pointLabels = {
};
};
width = 600;
},
{
anchors = (
{
name = bottom;
pos = (294,0);
},
{
name = bottomright;
pos = (409,0);
},
{
name = top;
pos = (343,516);
}
);
layerId = m003;
shapes = (
{
closed = 1;
nodes = (
(413,-12,o),
(479,52,o),
(533,129,c),
(442,188,l),
(389,120,o),
(357,100,o),
(300,100,cs),
(230,100,o),
(201,131,o),
(201,186,cs),
(201,191,o),
(201,195,o),
(202,203,c),
(496,214,o),
(550,303,o),
(550,386,cs),
(550,481,o),
(464,528,o),
(360,528,cs),
(177,528,o),
(56,400,o),
(56,208,cs),
(56,71,o),
(129,-12,o),
(281,-12,cs)
);
},
{
closed = 1;
nodes = (
(389,425,o),
(409,406,o),
(409,373,cs),
(409,340,o),
(397,297,o),
(212,287,c),
(215,301,ls),
(234,390,o),
(282,425,o),
(345,425,cs)
);
}
);
userData = {
com.typemytype.robofont.pointLabels = {
};
};
width = 600;
}
);
unicode = 101;
},
{
glyphname = eogonek;
layers = (
{
anchors = (
{
name = bottom;
pos = (271,0);
},
{
name = top;
pos = (341,516);
}
);
layerId = m001;
shapes = (
{
closed = 1;
nodes = (
(334,-202,o),
(360,-188,o),
(375,-170,c),
(362,-159,l),
(350,-171,o),
(332,-184,o),
(302,-184,cs),
(268,-184,o),
(245,-170,o),
(245,-136,cs),
(245,-79,o),
(285,-45,o),
(381,16,cs),
(422,42,o),
(457,82,o),
(488,141,c),
(470,150,l),
(426,61,o),
(362,7,o),
(273,7,cs),
(149,7,o),
(103,95,o),
(103,205,cs),
(103,206,o),
(103,220,o),
(104,231,c),
(461,238,o),
(505,338,o),
(505,405,cs),
(505,481,o),
(444,528,o),
(343,528,cs),
(189,528,o),
(83,382,o),
(83,212,cs),
(83,66,o),
(149,-12,o),
(273,-12,cs),
(292,-12,o),
(311,-9,o),
(329,-3,c),
(330,-5,l),
(237,-57,o),
(224,-103,o),
(224,-138,cs),
(224,-182,o),
(258,-202,o),
(302,-202,cs)
);
},
{
closed = 1;
nodes = (
(443,509,o),
(483,464,o),
(483,405,cs),
(483,332,o),
(422,255,o),
(106,250,c),
(111,281,ls),
(134,425,o),
(233,509,o),
(341,509,cs)
);
}
);
userData = {
com.typemytype.robofont.pointLabels = {
};
};
width = 600;
},
{
anchors = (
{
name = bottom;
pos = (281,0);
},
{
name = top;
pos = (354,516);
}
);
layerId = m002;
shapes = (
{
closed = 1;
nodes = (
(366,-207,o),
(399,-189,o),
(417,-170,c),
(379,-127,l),
(360,-144,o),
(341,-153,o),
(325,-153,cs),
(306,-153,o),
(289,-143,o),
(289,-119,cs),
(289,-85,o),
(311,-45,o),
(410,24,cs),
(450,52,o),
(484,85,o),
(514,135,c),
(459,169,l),
(401,87,o),
(358,55,o),
(284,55,cs),
(176,55,o),
(155,122,o),
(155,194,cs),
(155,196,o),
(155,207,o),
(156,217,c),
(485,226,o),
(532,316,o),
(532,389,cs),
(532,479,o),
(458,528,o),
(357,528,cs),
(191,528,o),
(73,396,o),
(73,209,cs),
(73,61,o),
(147,-12,o),
(277,-12,cs),
(293,-12,o),
(309,-11,o),
(323,-9,c),
(324,-13,l),
(261,-43,o),
(221,-80,o),
(221,-132,cs),
(221,-186,o),
(268,-207,o),
(319,-207,cs)
);
},
{
closed = 1;
nodes = (
(425,463,o),
(452,428,o),
(452,386,cs),
(452,336,o),
(414,279,o),
(162,271,c),
(163,281,ls),
(178,398,o),
(246,463,o),
(350,463,cs)
);
}
);
userData = {
com.typemytype.robofont.pointLabels = {
};
};
width = 600;
},
{
anchors = (
{
name = bottom;
pos = (294,0);
},
{
name = top;
pos = (343,516);
}
);
layerId = m003;
shapes = (
{
closed = 1;
nodes = (
(383,-212,o),
(422,-190,o),
(447,-158,c),
(393,-113,l),
(379,-134,o),
(360,-140,o),
(340,-140,cs),
(318,-140,o),
(303,-131,o),
(303,-106,cs),
(303,-77,o),
(326,-41,o),
(410,12,cs),
(474,52,o),
(503,87,o),
(533,129,c),
(442,188,l),
(389,120,o),
(357,100,o),
(300,100,cs),
(231,100,o),
(201,131,o),
(201,185,cs),
(201,191,o),
(201,197,o),
(202,203,c),
(496,214,o),
(550,303,o),
(550,386,cs),
(550,481,o),
(464,528,o),
(360,528,cs),
(177,528,o),
(56,400,o),
(56,208,cs),
(56,71,o),
(129,-12,o),
(281,-12,cs),
(292,-12,o),
(309,-11,o),
(316,-10,c),
(317,-14,l),
(249,-36,o),
(204,-77,o),
(204,-127,cs),
(204,-182,o),
(255,-212,o),
(326,-212,cs)
);
},
{
closed = 1;
nodes = (
(389,425,o),
(409,406,o),
(409,373,cs),
(409,340,o),
(397,297,o),
(212,287,c),
(215,301,ls),
(234,390,o),
(282,425,o),
(345,425,cs)
);
}
);
userData = {
com.typemytype.robofont.pointLabels = {
};
};
width = 600;
}
);
unicode = 281;
},
{
glyphname = schwa;
layers = (
{
layerId = m001;
shapes = (
{
closed = 1;
nodes = (
(409,-12,o),
(515,134,o),
(515,304,cs),
(515,450,o),
(449,528,o),
(325,528,cs),
(233,528,o),
(165,480,o),
(110,375,c),
(128,366,l),
(172,455,o),
(236,509,o),
(325,509,cs),
(449,509,o),
(495,421,o),
(495,311,cs),
(495,310,o),
(495,296,o),
(494,285,c),
(137,278,o),
(93,178,o),
(93,111,cs),
(93,35,o),
(154,-12,o),
(255,-12,cs)
);
},
{
closed = 1;
nodes = (
(155,7,o),
(115,52,o),
(115,111,cs),
(115,184,o),
(176,261,o),
(492,266,c),
(487,235,ls),
(464,91,o),
(365,7,o),
(257,7,cs)
);
}
);
userData = {
com.typemytype.robofont.pointLabels = {
};
};
width = 600;
},
{
layerId = m002;
shapes = (
{
closed = 1;
nodes = (
(409,-12,o),
(527,120,o),
(527,307,cs),
(527,455,o),
(453,528,o),
(323,528,cs),
(214,528,o),
(144,476,o),
(86,381,c),
(141,347,l),
(199,429,o),
(242,461,o),
(316,461,cs),
(424,461,o),
(445,394,o),
(445,322,cs),
(445,320,o),
(445,309,o),
(444,299,c),
(115,290,o),
(68,200,o),
(68,127,cs),
(68,37,o),
(142,-12,o),
(243,-12,cs)
);
},
{
closed = 1;
nodes = (
(175,53,o),
(148,88,o),
(148,130,cs),
(148,180,o),
(186,237,o),
(438,245,c),
(437,235,ls),
(422,118,o),
(354,53,o),
(250,53,cs)
);
}
);
userData = {
com.typemytype.robofont.pointLabels = {
};
};
width = 600;
},
{
layerId = m003;
shapes = (
{
closed = 1;
nodes = (
(423,-12,o),
(544,116,o),
(544,308,cs),
(544,445,o),
(471,528,o),
(319,528,cs),
(187,528,o),
(121,464,o),
(67,387,c),
(158,328,l),
(211,396,o),
(243,416,o),
(300,416,cs),
(370,416,o),
(399,385,o),
(399,330,cs),
(399,325,o),
(399,321,o),
(398,313,c),
(104,302,o),
(50,213,o),
(50,130,cs),
(50,35,o),
(136,-12,o),
(240,-12,cs)
);
},
{
closed = 1;
nodes = (
(211,91,o),
(191,110,o),
(191,143,cs),
(191,176,o),
(203,219,o),
(388,229,c),
(385,215,ls),
(366,126,o),
(318,91,o),
(255,91,cs)
);
}
);
userData = {
com.typemytype.robofont.pointLabels = {
};
};
width = 600;
}
);
unicode = 601;
},
{
glyphname = f;
layers = (
{
layerId = m001;
shapes = (
{
closed = 1;
nodes = (
(225,-212,o),
(231,-201,o),
(235,-178,cs),
(348,497,l),
(573,497,l),
(576,516,l),
(351,516,l),
(385,721,l),
(610,721,l),
(613,740,l),
(394,740,ls),
(374,740,o),
(365,732,o),
(362,711,cs),
(330,516,l),
(137,516,l),
(134,497,l),
(327,497,l),
(212,-191,l),
(206,-193,l),
(4,-12,l),
(-10,-26,l),
(178,-195,ls),
(191,-206,o),
(199,-212,o),
(209,-212,cs)
);
}
);
userData = {
com.typemytype.robofont.pointLabels = {
};
};
width = 600;
},
{
layerId = m002;
shapes = (
{
closed = 1;
nodes = (
(256,-212,o),
(283,-163,o),
(292,-107,cs),
(385,449,l),
(594,449,l),
(605,516,l),
(396,516,l),
(422,673,l),
(630,673,l),
(641,740,l),
(468,740,ls),
(391,740,o),
(347,691,o),
(336,623,cs),
(318,516,l),
(134,516,l),
(123,449,l),
(307,449,l),
(209,-138,l),
(191,-142,l),
(37,22,l),
(-16,-26,l),
(45,-93,ls),
(125,-180,o),
(154,-212,o),
(196,-212,cs)
);
}
);
userData = {
com.typemytype.robofont.pointLabels = {
};
};
width = 600;
},
{
layerId = m003;
shapes = (
{
closed = 1;
nodes = (
(257,-212,o),
(315,-165,o),
(334,-53,cs),
(410,402,l),
(597,402,l),
(616,516,l),
(430,516,l),
(448,626,l),
(634,626,l),
(653,740,l),
(475,740,ls),
(368,740,o),
(311,680,o),
(297,594,cs),
(284,516,l),
(121,516,l),
(102,402,l),
(265,402,l),
(183,-92,l),
(171,-97,l),
(68,39,l),
(-32,-30,l),
(9,-89,ls),
(61,-163,o),
(100,-212,o),
(173,-212,cs)
);
}
);
userData = {
com.typemytype.robofont.pointLabels = {
};
};
width = 600;
}
);
unicode = 102;
},
{
glyphname = g;
layers = (
{
anchors = (
{
name = top;
pos = (321,516);
}
);
layerId = m001;
shapes = (
{
closed = 1;
nodes = (
(330,-212,o),
(408,-150,o),
(430,-18,cs),
(519,516,l),
(498,516,l),
(483,423,l),
(480,423,l),
(460,484,o),
(404,528,o),
(313,528,cs),
(167,528,o),
(71,384,o),
(71,186,cs),
(71,72,o),
(130,-12,o),
(244,-12,cs),
(335,-12,o),
(389,40,o),
(428,115,c),
(431,115,l),
(410,-13,ls),
(389,-140,o),
(317,-193,o),
(207,-193,cs),
(137,-193,o),
(94,-169,o),
(65,-131,c),
(49,-145,l),
(82,-186,o),
(132,-212,o),
(207,-212,cs)
);
},
{
closed = 1;
nodes = (
(135,7,o),
(91,89,o),
(91,186,cs),
(91,203,o),
(92,220,o),
(95,237,cs),
(103,286,ls),
(124,412,o),
(199,509,o),
(313,509,cs),
(441,509,o),
(482,424,o),
(471,355,cs),
(446,204,ls),
(435,138,o),
(397,83,o),
(358,48,cs),
(325,19,o),
(288,7,o),
(244,7,cs)
);
}
);
userData = {
com.typemytype.robofont.pointLabels = {
};
};
width = 600;
},
{
anchors = (
{
name = top;
pos = (328,516);
}
);
layerId = m002;
shapes = (
{
closed = 1;
nodes = (
(341,-212,o),
(435,-152,o),
(461,0,cs),
(547,516,l),
(469,516,l),
(454,426,l),
(451,426,l),
(429,493,o),
(376,528,o),
(300,528,cs),
(122,528,o),
(57,334,o),
(57,201,cs),
(57,75,o),
(113,5,o),
(219,5,cs),
(310,5,o),
(364,56,o),
(403,139,c),
(407,139,l),
(386,15,ls),
(367,-99,o),
(311,-143,o),
(217,-143,cs),
(154,-143,o),
(112,-123,o),
(85,-89,c),
(31,-141,l),
(68,-187,o),
(129,-212,o),
(212,-212,cs)
);
},
{
closed = 1;
nodes = (
(174,74,o),
(137,119,o),
(137,201,cs),
(137,215,o),
(139,227,o),
(142,245,cs),
(151,299,ls),
(167,395,o),
(226,459,o),
(323,459,cs),
(400,459,o),
(453,418,o),
(441,346,cs),
(425,248,ls),
(416,192,o),
(387,152,o),
(368,131,cs),
(331,90,o),
(289,74,o),
(246,74,cs)
);
}
);
userData = {
com.typemytype.robofont.pointLabels = {
};
};
width = 600;
},
{
anchors = (
{
name = top;
pos = (331,516);
}
);
layerId = m003;
shapes = (
{
closed = 1;
nodes = (
(377,-212,o),
(473,-131,o),
(501,36,cs),
(581,516,l),
(435,516,l),
(419,420,l),
(411,420,l),
(397,488,o),
(358,528,o),
(275,528,cs),
(130,528,o),
(41,396,o),
(41,208,cs),
(41,93,o),
(85,8,o),
(196,8,cs),
(285,8,o),
(330,64,o),
(368,143,c),
(374,143,l),
(359,54,ls),
(338,-72,o),
(294,-99,o),
(220,-99,cs),
(174,-99,o),
(132,-85,o),
(100,-46,c),
(13,-136,l),
(65,-197,o),
(128,-212,o),
(224,-212,cs)
);
},
{
closed = 1;
nodes = (
(210,122,o),
(191,158,o),
(191,202,cs),
(191,223,o),
(193,239,o),
(195,251,cs),
(202,293,ls),
(214,365,o),
(251,415,o),
(325,415,cs),
(390,415,o),
(413,381,o),
(405,333,cs),
(394,266,ls),
(386,218,o),
(361,187,o),
(345,168,cs),
(321,140,o),
(296,122,o),
(260,122,cs)
);
}
);
userData = {
com.typemytype.robofont.pointLabels = {
};
};
width = 600;
}
);
unicode = 103;
},
{
glyphname = h;
layers = (
{
anchors = (
{
name = bottom;
pos = (262,0);
},
{
name = top;
pos = (215,698);
}
);
layerId = m001;
shapes = (
{
closed = 1;
nodes = (
(109,0,l),
(161,312,ls),
(171,370,o),
(202,418,o),
(223,444,cs),
(261,492,o),
(310,509,o),
(357,509,cs),
(435,509,o),
(477,468,o),
(477,386,cs),
(477,367,o),
(475,346,o),
(472,329,cs),
(417,0,l),
(438,0,l),
(493,330,ls),
(496,349,o),
(498,368,o),
(498,387,cs),
(498,476,o),
(449,528,o),
(360,528,cs),
(272,528,o),
(218,480,o),
(179,402,c),
(176,402,l),
(232,740,l),
(211,740,l),
(88,0,l)
);
}
);
userData = {
com.typemytype.robofont.pointLabels = {
};
};
width = 600;
},
{
anchors = (
{
name = bottom;
pos = (260,0);
},
{
name = top;
pos = (212,698);
}
);
layerId = m002;
shapes = (
{
closed = 1;
nodes = (
(137,0,l),
(185,285,ls),
(195,344,o),
(233,390,o),
(244,403,cs),
(273,437,o),
(308,459,o),
(353,459,cs),
(411,459,o),
(439,421,o),
(439,360,cs),
(439,349,o),
(438,329,o),
(434,305,cs),
(383,0,l),
(461,0,l),
(513,312,ls),
(517,335,o),
(519,359,o),
(519,379,cs),
(519,473,o),
(465,528,o),
(379,528,cs),
(296,528,o),
(245,476,o),
(207,394,c),
(203,394,l),
(261,740,l),
(183,740,l),
(59,0,l)
);
}
);
userData = {
com.typemytype.robofont.pointLabels = {
};
};
width = 600;
},
{
anchors = (
{
name = bottom;
pos = (260,0);
},
{
name = top;
pos = (213,698);
}
);
layerId = m003;
shapes = (
{
closed = 1;
nodes = (
(171,0,l),
(216,269,ls),
(223,311,o),
(248,349,o),
(263,369,cs),
(286,399,o),
(310,416,o),
(344,416,cs),
(389,416,o),
(404,382,o),
(404,355,cs),
(404,330,o),
(400,311,o),
(397,293,cs),
(348,0,l),
(494,0,l),
(540,275,ls),
(548,323,o),
(551,350,o),
(551,379,cs),
(551,459,o),
(511,528,o),
(410,528,cs),
(328,528,o),
(281,477,o),
(242,393,c),
(237,393,l),
(294,740,l),
(148,740,l),
(25,0,l)
);
}
);
userData = {
com.typemytype.robofont.pointLabels = {
};
};
width = 600;
}
);
unicode = 104;
},
{
glyphname = hbar;
layers = (
{
layerId = m001;
shapes = (
{
closed = 1;
nodes = (
(109,0,l),
(161,312,ls),
(171,370,o),
(202,418,o),
(223,444,cs),
(261,492,o),
(310,509,o),
(357,509,cs),
(435,509,o),
(477,468,o),
(477,386,cs),
(477,367,o),
(475,346,o),
(472,329,cs),
(417,0,l),
(438,0,l),
(493,330,ls),
(496,349,o),
(498,368,o),
(498,387,cs),
(498,476,o),
(449,528,o),
(360,528,cs),
(272,528,o),
(218,480,o),
(179,402,c),
(176,402,l),
(215,636,l),
(380,636,l),
(383,654,l),
(218,654,l),
(232,740,l),
(211,740,l),
(197,654,l),
(125,654,l),
(122,636,l),
(194,636,l),
(88,0,l)
);
}
);
userData = {
com.typemytype.robofont.pointLabels = {
};
};
width = 600;
},
{
layerId = m002;
shapes = (
{
closed = 1;
nodes = (
(137,0,l),
(185,285,ls),
(195,344,o),
(233,390,o),
(244,403,cs),
(273,437,o),
(308,459,o),
(353,459,cs),
(411,459,o),
(439,421,o),
(439,360,cs),
(439,349,o),
(438,329,o),
(434,305,cs),
(383,0,l),
(461,0,l),
(513,312,ls),
(517,335,o),
(519,359,o),
(519,379,cs),
(519,473,o),
(465,528,o),
(379,528,cs),
(296,528,o),
(245,476,o),
(207,394,c),
(203,394,l),
(239,609,l),
(390,609,l),
(400,669,l),
(249,669,l),
(261,740,l),
(183,740,l),
(171,669,l),
(106,669,l),
(96,609,l),
(161,609,l),
(59,0,l)
);
}
);
userData = {
com.typemytype.robofont.pointLabels = {
};
};
width = 600;
},
{
layerId = m003;
shapes = (
{
closed = 1;
nodes = (
(171,0,l),
(216,269,ls),
(223,311,o),
(248,349,o),
(263,369,cs),
(286,399,o),
(310,416,o),
(344,416,cs),
(389,416,o),
(404,382,o),
(404,355,cs),
(404,330,o),
(400,310,o),
(397,292,cs),
(348,0,l),
(494,0,l),
(540,275,ls),
(548,323,o),
(551,350,o),
(551,379,cs),
(551,459,o),
(511,528,o),
(410,528,cs),
(328,528,o),
(281,477,o),
(242,393,c),
(237,393,l),
(268,581,l),
(403,581,l),
(421,689,l),
(286,689,l),
(294,740,l),
(148,740,l),
(140,689,l),
(81,689,l),
(63,581,l),
(122,581,l),
(25,0,l)
);
}
);
userData = {
com.typemytype.robofont.pointLabels = {
};
};
width = 600;
}
);
unicode = 295;
},
{
glyphname = i;
layers = (
{
anchors = (
{
name = bottom;
pos = (222,0);
},
{
name = bottomright;
pos = (250,0);
}
);
layerId = m001;
shapes = (
{
closed = 1;
nodes = (
(368,691,o),
(377,699,o),
(380,713,cs),
(381,719,o),
(382,723,o),
(382,727,cs),
(382,736,o),
(376,745,o),
(356,745,cs),
(338,745,o),
(329,737,o),
(326,723,cs),
(325,717,o),
(324,713,o),
(324,709,cs),
(324,700,o),
(330,691,o),
(350,691,cs)
);
},
{
closed = 1;
nodes = (
(235,-12,o),
(247,-2,o),
(264,9,cs),
(507,174,l),
(496,189,l),
(231,10,l),
(226,13,l),
(324,516,l),
(94,516,l),
(91,497,l),
(299,497,l),
(211,42,ls),
(206,17,o),
(205,11,o),
(205,7,cs),
(205,-4,o),
(211,-12,o),
(223,-12,cs)
);
}
);
userData = {
com.typemytype.robofont.pointLabels = {
};
};
width = 600;
},
{
anchors = (
{
name = bottom;
pos = (264,0);
},
{
name = bottomright;
pos = (322,0);
}
);
layerId = m002;
shapes = (
{
closed = 1;
nodes = (
(380,631,o),
(401,649,o),
(406,679,cs),
(408,691,o),
(410,700,o),
(410,708,cs),
(410,729,o),
(395,748,o),
(352,748,cs),
(312,748,o),
(291,730,o),
(286,700,cs),
(284,688,o),
(282,679,o),
(282,671,cs),
(282,650,o),
(297,631,o),
(340,631,cs)
);
},
{
closed = 1;
nodes = (
(317,-12,o),
(354,12,o),
(448,99,cs),
(539,183,l),
(492,227,l),
(295,57,l),
(272,66,l),
(359,516,l),
(93,516,l),
(82,449,l),
(268,449,l),
(200,97,ls),
(198,85,o),
(195,70,o),
(195,57,cs),
(195,17,o),
(222,-12,o),
(272,-12,cs)
);
}
);
userData = {
com.typemytype.robofont.pointLabels = {
};
};
width = 600;
},
{
anchors = (
{
name = bottom;
pos = (296,0);
},
{
name = bottomright;
pos = (466,0);
}
);
layerId = m003;
shapes = (
{
closed = 1;
nodes = (
(399,584,o),
(426,608,o),
(433,650,cs),
(437,674,o),
(438,683,o),
(438,690,cs),
(438,725,o),
(416,751,o),
(356,751,cs),
(296,751,o),
(269,727,o),
(262,685,cs),
(258,661,o),
(257,652,o),
(257,645,cs),
(257,610,o),
(279,584,o),
(339,584,cs)
);
},
{
closed = 1;
nodes = (
(367,-12,o),
(423,27,o),
(490,103,cs),
(551,173,l),
(471,244,l),
(331,101,l),
(314,106,l),
(391,516,l),
(87,516,l),
(68,402,l),
(224,402,l),
(184,188,ls),
(176,147,o),
(174,130,o),
(174,108,cs),
(174,35,o),
(216,-12,o),
(298,-12,cs)
);
}
);
userData = {
com.typemytype.robofont.pointLabels = {
};
};
width = 600;
}
);
unicode = 105;
},
{
glyphname = idotless;
layers = (
{
anchors = (
{
name = bottom;
pos = (222,0);
},
{
name = bottomright;
pos = (250,0);
},
{
name = top;
pos = (313,516);
}
);
layerId = m001;
shapes = (
{
closed = 1;
nodes = (
(235,-12,o),
(247,-2,o),
(264,9,cs),
(507,174,l),
(496,189,l),
(231,10,l),
(226,13,l),
(324,516,l),
(94,516,l),
(91,497,l),
(299,497,l),
(211,42,ls),
(206,17,o),
(205,11,o),
(205,7,cs),
(205,-4,o),
(211,-12,o),
(223,-12,cs)
);
}
);
userData = {
com.typemytype.robofont.pointLabels = {
};
};
width = 600;
},
{
anchors = (
{
name = bottom;
pos = (264,0);
},
{
name = bottomright;
pos = (322,0);
},
{
name = top;
pos = (316,516);
}
);
layerId = m002;
shapes = (
{
closed = 1;
nodes = (
(317,-12,o),
(354,12,o),
(448,99,cs),
(539,183,l),
(492,227,l),
(295,57,l),
(272,66,l),
(359,516,l),
(93,516,l),
(82,449,l),
(268,449,l),
(200,97,ls),
(198,85,o),
(195,70,o),
(195,57,cs),
(195,17,o),
(222,-12,o),
(272,-12,cs)
);
}
);
userData = {
com.typemytype.robofont.pointLabels = {
};
};
width = 600;
},
{
anchors = (
{
name = bottom;
pos = (292,0);
},
{
name = bottomright;
pos = (393,0);
},
{
name = top;
pos = (318,516);
}
);
layerId = m003;
shapes = (
{
closed = 1;
nodes = (
(367,-12,o),
(423,27,o),
(490,103,cs),
(551,173,l),
(471,244,l),
(331,101,l),
(314,106,l),
(391,516,l),
(87,516,l),
(68,402,l),
(224,402,l),
(184,188,ls),
(176,147,o),
(174,130,o),
(174,108,cs),
(174,35,o),
(216,-12,o),
(298,-12,cs)
);
}
);
userData = {
com.typemytype.robofont.pointLabels = {
};
};
width = 600;
}
);
unicode = 305;
},
{
glyphname = iogonek;
lastChange = "2024-07-30 19:53:13 +0000";
layers = (
{
anchors = (
{
name = bottom;
pos = (222,0);
}
);
layerId = m001;
shapes = (
{
closed = 1;
nodes = (
(212,-202,o),
(240,-188,o),
(255,-170,c),
(242,-159,l),
(230,-171,o),
(210,-184,o),
(178,-184,cs),
(149,-184,o),
(125,-167,o),
(125,-134,cs),
(125,-81,o),
(165,-56,o),
(256,5,cs),
(507,174,l),
(496,189,l),
(231,10,l),
(226,13,l),
(324,516,l),
(94,516,l),
(91,497,l),
(299,497,l),
(211,42,ls),
(205,13,o),
(205,9,o),
(205,4,cs),
(205,-2,o),
(209,-8,o),
(216,-8,c),
(216,-8,o),
(217,-8,o),
(217,-8,c),
(217,-8,l),
(129,-57,o),
(104,-93,o),
(104,-134,cs),
(104,-180,o),
(137,-202,o),
(178,-202,cs)
);
},
{
closed = 1;
nodes = (
(368,691,o),
(377,699,o),
(380,713,cs),
(381,719,o),
(382,723,o),
(382,727,cs),
(382,736,o),
(376,745,o),
(356,745,cs),
(338,745,o),
(329,737,o),
(326,723,cs),
(325,717,o),
(324,713,o),
(324,709,cs),
(324,700,o),
(330,691,o),
(350,691,cs)
);
}
);
userData = {
com.typemytype.robofont.pointLabels = {
};
};
width = 600;
},
{
anchors = (
{
name = bottom;
pos = (264,0);
}
);
layerId = m002;
shapes = (
{
closed = 1;
nodes = (
(311,-207,o),
(344,-189,o),
(362,-170,c),
(324,-127,l),
(305,-144,o),
(285,-153,o),
(268,-153,cs),
(250,-153,o),
(234,-144,o),
(234,-122,cs),
(234,-98,o),
(252,-68,o),
(354,21,cs),
(539,183,l),
(492,227,l),
(295,57,l),
(272,66,l),
(359,516,l),
(93,516,l),
(82,449,l),
(268,449,l),
(200,97,ls),
(198,85,o),
(195,70,o),
(195,57,cs),
(195,24,o),
(214,-10,o),
(253,-10,cs),
(258,-10,o),
(263,-10,o),
(268,-10,c),
(269,-15,l),
(209,-47,o),
(166,-81,o),
(166,-132,cs),
(166,-186,o),
(213,-207,o),
(264,-207,cs)
);
},
{
closed = 1;
nodes = (
(380,631,o),
(401,649,o),
(406,679,cs),
(408,691,o),
(410,700,o),
(410,708,cs),
(410,729,o),
(395,748,o),
(352,748,cs),
(312,748,o),
(291,730,o),
(286,700,cs),
(284,688,o),
(282,679,o),
(282,671,cs),
(282,650,o),
(297,631,o),
(340,631,cs)
);
}
);
userData = {
com.typemytype.robofont.pointLabels = {
};
};
width = 600;
},
{
anchors = (
{
name = bottom;
pos = (292,0);
}
);
layerId = m003;
shapes = (
{
closed = 1;
nodes = (
(393,-212,o),
(432,-190,o),
(457,-158,c),
(403,-113,l),
(389,-134,o),
(370,-140,o),
(350,-140,cs),
(326,-140,o),
(313,-128,o),
(313,-109,cs),
(313,-71,o),
(345,-42,o),
(404,20,cs),
(551,173,l),
(471,244,l),
(331,101,l),
(314,106,l),
(391,516,l),
(87,516,l),
(68,402,l),
(224,402,l),
(184,188,ls),
(176,147,o),
(174,130,o),
(174,108,cs),
(174,35,o),
(216,-12,o),
(298,-12,cs),
(306,-12,o),
(307,-12,o),
(315,-11,c),
(317,-15,l),
(259,-43,o),
(214,-75,o),
(214,-127,cs),
(214,-182,o),
(265,-212,o),
(336,-212,cs)
);
},
{
closed = 1;
nodes = (
(403,584,o),
(427,611,o),
(433,650,cs),
(438,680,o),
(438,683,o),
(438,690,cs),
(438,725,o),
(415,751,o),
(356,751,cs),
(292,751,o),
(267,724,o),
(261,684,cs),
(257,656,o),
(257,652,o),
(257,646,cs),
(257,610,o),
(280,584,o),
(338,584,cs)
);
}
);
userData = {
com.typemytype.robofont.pointLabels = {
};
};
width = 600;
}
);
unicode = 303;
},
{
glyphname = ij;
layers = (
{
layerId = m001;
shapes = (
{
closed = 1;
nodes = (
(110,0,l),
(196,516,l),
(175,516,l),
(89,0,l)
);
},
{
closed = 1;
nodes = (
(386,-212,o),
(392,-201,o),
(396,-178,cs),
(511,516,l),
(490,516,l),
(373,-190,l),
(367,-192,l),
(208,-51,l),
(195,-65,l),
(339,-195,ls),
(352,-206,o),
(360,-212,o),
(370,-212,cs)
);
},
{
closed = 1;
nodes = (
(234,691,o),
(243,699,o),
(246,713,cs),
(247,719,o),
(248,723,o),
(248,727,cs),
(248,736,o),
(242,745,o),
(222,745,cs),
(204,745,o),
(195,737,o),
(192,723,cs),
(191,717,o),
(190,713,o),
(190,709,cs),
(190,700,o),
(196,691,o),
(216,691,cs)
);
},
{
closed = 1;
nodes = (
(549,691,o),
(558,699,o),
(561,713,cs),
(562,719,o),
(563,723,o),
(563,727,cs),
(563,736,o),
(557,745,o),
(537,745,cs),
(519,745,o),
(510,737,o),
(507,723,cs),
(506,717,o),
(505,713,o),
(505,709,cs),
(505,700,o),
(511,691,o),
(531,691,cs)
);
}
);
userData = {
com.typemytype.robofont.pointLabels = {
};
};
width = 600;
},
{
layerId = m002;
shapes = (
{
closed = 1;
nodes = (
(141,0,l),
(227,516,l),
(149,516,l),
(63,0,l)
);
},
{
closed = 1;
nodes = (
(395,-212,o),
(422,-163,o),
(431,-107,cs),
(535,516,l),
(457,516,l),
(348,-138,l),
(330,-142,l),
(226,-32,l),
(173,-80,l),
(208,-118,ls),
(263,-177,o),
(293,-212,o),
(335,-212,cs)
);
},
{
closed = 1;
nodes = (
(250,631,o),
(271,649,o),
(276,679,cs),
(278,691,o),
(280,700,o),
(280,708,cs),
(280,729,o),
(265,748,o),
(222,748,cs),
(182,748,o),
(161,730,o),
(156,700,cs),
(154,688,o),
(152,679,o),
(152,671,cs),
(152,650,o),
(167,631,o),
(210,631,cs)
);
},
{
closed = 1;
nodes = (
(558,631,o),
(579,649,o),
(584,679,cs),
(586,691,o),
(588,700,o),
(588,708,cs),
(588,729,o),
(573,748,o),
(530,748,cs),
(490,748,o),
(469,730,o),
(464,700,cs),
(462,688,o),
(460,679,o),
(460,671,cs),
(460,650,o),
(475,631,o),
(518,631,cs)
);
}
);
userData = {
com.typemytype.robofont.pointLabels = {
};
};
width = 600;
},
{
layerId = m003;
shapes = (
{
closed = 1;
nodes = (
(176,0,l),
(262,516,l),
(116,516,l),
(30,0,l)
);
},
{
closed = 1;
nodes = (
(398,-212,o),
(453,-152,o),
(472,-37,cs),
(564,516,l),
(418,516,l),
(316,-96,l),
(303,-101,l),
(220,-6,l),
(122,-78,l),
(151,-119,ls),
(187,-169,o),
(236,-212,o),
(302,-212,cs)
);
},
{
closed = 1;
nodes = (
(273,584,o),
(297,611,o),
(303,650,cs),
(308,680,o),
(308,683,o),
(308,690,cs),
(308,725,o),
(286,751,o),
(226,751,cs),
(162,751,o),
(138,724,o),
(132,685,cs),
(127,655,o),
(127,652,o),
(127,645,cs),
(127,610,o),
(149,584,o),
(209,584,cs)
);
},
{
closed = 1;
nodes = (
(570,584,o),
(594,611,o),
(600,650,cs),
(605,680,o),
(605,683,o),
(605,690,cs),
(605,725,o),
(583,751,o),
(523,751,cs),
(459,751,o),
(435,724,o),
(429,685,cs),
(424,655,o),
(424,652,o),
(424,645,cs),
(424,610,o),
(446,584,o),
(506,584,cs)
);
}
);
userData = {
com.typemytype.robofont.pointLabels = {
};
};
width = 600;
}
);
unicode = 307;
},
{
glyphname = j;
layers = (
{
layerId = m001;
shapes = (
{
closed = 1;
nodes = (
(345,-212,o),
(351,-201,o),
(355,-178,cs),
(470,516,l),
(139,516,l),
(136,497,l),
(446,497,l),
(332,-190,l),
(326,-192,l),
(124,-12,l),
(110,-26,l),
(298,-195,ls),
(311,-206,o),
(319,-212,o),
(329,-212,cs)
);
},
{
closed = 1;
nodes = (
(505,691,o),
(514,699,o),
(517,713,cs),
(518,719,o),
(519,723,o),
(519,727,cs),
(519,736,o),
(513,745,o),
(493,745,cs),
(475,745,o),
(466,737,o),
(463,723,cs),
(462,717,o),
(461,713,o),
(461,709,cs),
(461,700,o),
(467,691,o),
(487,691,cs)
);
}
);
userData = {
com.typemytype.robofont.pointLabels = {
};
};
width = 600;
},
{
layerId = m002;
shapes = (
{
closed = 1;
nodes = (
(334,-212,o),
(361,-162,o),
(370,-107,cs),
(474,516,l),
(183,516,l),
(172,449,l),
(385,449,l),
(287,-138,l),
(269,-142,l),
(111,26,l),
(58,-22,l),
(123,-93,ls),
(209,-187,o),
(234,-212,o),
(275,-212,cs)
);
},
{
closed = 1;
nodes = (
(497,631,o),
(518,649,o),
(523,679,cs),
(525,691,o),
(527,700,o),
(527,708,cs),
(527,729,o),
(512,748,o),
(469,748,cs),
(429,748,o),
(408,730,o),
(403,700,cs),
(401,688,o),
(399,679,o),
(399,671,cs),
(399,650,o),
(414,631,o),
(457,631,cs)
);
}
);
userData = {
com.typemytype.robofont.pointLabels = {
};
};
width = 600;
},
{
layerId = m003;
shapes = (
{
closed = 1;
nodes = (
(312,-212,o),
(365,-162,o),
(386,-37,cs),
(478,516,l),
(143,516,l),
(124,402,l),
(313,402,l),
(230,-96,l),
(217,-101,l),
(104,54,l),
(4,-15,l),
(36,-65,ls),
(97,-160,o),
(137,-212,o),
(216,-212,cs)
);
},
{
closed = 1;
nodes = (
(482,584,o),
(509,608,o),
(516,650,cs),
(520,674,o),
(521,683,o),
(521,690,cs),
(521,725,o),
(499,751,o),
(439,751,cs),
(379,751,o),
(352,727,o),
(345,685,cs),
(341,661,o),
(340,652,o),
(340,645,cs),
(340,610,o),
(362,584,o),
(422,584,cs)
);
}
);
userData = {
com.typemytype.robofont.pointLabels = {
};
};
width = 600;
}
);
unicode = 106;
},
{
glyphname = jdotless;
lastChange = "2024-08-03 13:49:29 +0000";
layers = (
{
anchors = (
{
name = top;
pos = (330,515);
}
);
layerId = m001;
shapes = (
{
closed = 1;
nodes = (
(356,-212,o),
(357,-162,o),
(354,-177,cs),
(470,516,l),
(223,516,l),
(220,496,l),
(457,496,l),
(344,-180,l),
(321,-183,l),
(118,-2,l),
(112,-29,l),
(210,-121,ls),
(321,-214,o),
(331,-212,o),
(334,-212,cs)
);
}
);
userData = {
com.typemytype.robofont.pointLabels = {
};
};
width = 600;
},
{
anchors = (
{
name = top;
pos = (333,516);
}
);
layerId = m002;
shapes = (
{
closed = 1;
nodes = (
(334,-212,o),
(361,-162,o),
(370,-107,cs),
(474,516,l),
(183,516,l),
(172,449,l),
(385,449,l),
(287,-138,l),
(269,-142,l),
(111,26,l),
(58,-22,l),
(123,-93,ls),
(209,-187,o),
(234,-212,o),
(275,-212,cs)
);
}
);
userData = {
com.typemytype.robofont.pointLabels = {
};
};
width = 600;
},
{
anchors = (
{
name = top;
pos = (336,517);
}
);
layerId = m003;
shapes = (
{
closed = 1;
nodes = (
(312,-212,o),
(365,-162,o),
(386,-37,cs),
(478,516,l),
(143,516,l),
(124,402,l),
(313,402,l),
(230,-96,l),
(217,-101,l),
(104,54,l),
(4,-15,l),
(36,-65,ls),
(97,-160,o),
(137,-212,o),
(216,-212,cs)
);
}
);
userData = {
com.typemytype.robofont.pointLabels = {
};
};
width = 600;
}
);
unicode = 567;
},
{
glyphname = k;
layers = (
{
anchors = (
{
name = bottom;
pos = (233,0);
}
);
layerId = m001;
shapes = (
{
closed = 1;
nodes = (
(100,0,l),
(152,312,ls),
(162,369,o),
(191,425,o),
(237,464,cs),
(273,495,o),
(319,509,o),
(368,509,cs),
(452,509,o),
(484,469,o),
(484,411,cs),
(484,340,o),
(429,277,o),
(231,231,c),
(355,13,ls),
(365,-4,o),
(370,-12,o),
(382,-12,cs),
(395,-12,o),
(403,-3,o),
(434,26,cs),
(574,158,l),
(562,171,l),
(386,9,l),
(381,9,l),
(259,222,l),
(460,268,o),
(506,344,o),
(506,411,cs),
(506,478,o),
(464,528,o),
(369,528,cs),
(291,528,o),
(218,494,o),
(170,402,c),
(167,402,l),
(223,740,l),
(202,740,l),
(79,0,l)
);
}
);
userData = {
com.typemytype.robofont.pointLabels = {
};
};
width = 600;
},
{
anchors = (
{
name = bottom;
pos = (251,0);
}
);
layerId = m002;
shapes = (
{
closed = 1;
nodes = (
(137,0,l),
(185,285,ls),
(192,328,o),
(213,366,o),
(242,402,cs),
(270,436,o),
(304,461,o),
(355,461,cs),
(409,461,o),
(439,433,o),
(439,386,cs),
(439,325,o),
(388,268,o),
(221,227,c),
(302,51,ls),
(323,5,o),
(345,-12,o),
(379,-12,cs),
(417,-12,o),
(447,10,o),
(499,62,cs),
(570,133,l),
(527,178,l),
(394,56,l),
(381,58,l),
(310,213,l),
(485,256,o),
(519,339,o),
(519,401,cs),
(519,478,o),
(466,528,o),
(384,528,cs),
(298,528,o),
(244,473,o),
(207,394,c),
(203,394,l),
(261,740,l),
(183,740,l),
(59,0,l)
);
}
);
userData = {
com.typemytype.robofont.pointLabels = {
};
};
width = 600;
},
{
anchors = (
{
name = bottom;
pos = (248,0);
}
);
layerId = m003;
shapes = (
{
closed = 1;
nodes = (
(170,0,l),
(215,269,ls),
(223,317,o),
(241,346,o),
(261,371,cs),
(291,409,o),
(316,419,o),
(341,419,cs),
(384,419,o),
(408,395,o),
(408,361,cs),
(408,297,o),
(344,262,o),
(225,227,c),
(275,90,ls),
(298,26,o),
(331,-12,o),
(394,-12,cs),
(447,-12,o),
(491,14,o),
(534,60,cs),
(586,116,l),
(516,185,l),
(434,105,l),
(419,108,l),
(377,218,l),
(492,253,o),
(554,311,o),
(554,406,cs),
(554,474,o),
(505,528,o),
(420,528,cs),
(332,528,o),
(277,470,o),
(242,393,c),
(236,393,l),
(293,740,l),
(147,740,l),
(24,0,l)
);
}
);
userData = {
com.typemytype.robofont.pointLabels = {
};
};
width = 600;
}
);
unicode = 107;
},
{
glyphname = kgreenlandic;
layers = (
{
anchors = (
{
name = bottom;
pos = (284,0);
}
);
layerId = m001;
shapes = (
{
closed = 1;
nodes = (
(518,0,l),
(306,305,l),
(576,516,l),
(545,516,l),
(291,317,l),
(155,210,l),
(152,210,l),
(203,516,l),
(182,516,l),
(96,0,l),
(117,0,l),
(147,181,l),
(290,292,l),
(493,0,l)
);
}
);
userData = {
com.typemytype.robofont.pointLabels = {
};
};
width = 600;
},
{
anchors = (
{
name = bottom;
pos = (284,0);
}
);
layerId = m002;
shapes = (
{
closed = 1;
nodes = (
(537,0,l),
(358,307,l),
(591,516,l),
(490,516,l),
(305,351,l),
(196,254,l),
(191,254,l),
(234,516,l),
(156,516,l),
(71,0,l),
(149,0,l),
(176,157,l),
(296,259,l),
(447,0,l)
);
}
);
userData = {
com.typemytype.robofont.pointLabels = {
};
};
width = 600;
},
{
anchors = (
{
name = bottom;
pos = (263,0);
}
);
layerId = m003;
shapes = (
{
closed = 1;
nodes = (
(539,0,l),
(375,301,l),
(605,516,l),
(437,516,l),
(310,397,l),
(228,315,l),
(220,315,l),
(253,516,l),
(108,516,l),
(22,0,l),
(167,0,l),
(193,157,l),
(262,219,l),
(374,0,l)
);
}
);
userData = {
com.typemytype.robofont.pointLabels = {
};
};
width = 600;
}
);
unicode = 312;
},
{
glyphname = l;
layers = (
{
anchors = (
{
name = bottom;
pos = (216,0);
},
{
name = top;
pos = (339,698);
},
{
name = topright;
pos = (462,740);
}
);
layerId = m001;
shapes = (
{
closed = 1;
nodes = (
(226,-12,o),
(238,-3,o),
(255,9,cs),
(498,174,l),
(487,189,l),
(222,10,l),
(217,13,l),
(358,740,l),
(128,740,l),
(125,721,l),
(333,721,l),
(201,42,ls),
(197,21,o),
(196,11,o),
(196,7,cs),
(196,-4,o),
(202,-12,o),
(214,-12,cs)
);
}
);
userData = {
com.typemytype.robofont.pointLabels = {
};
};
width = 600;
},
{
anchors = (
{
name = bottom;
pos = (248,0);
},
{
name = top;
pos = (332,698);
},
{
name = topright;
pos = (466,740);
}
);
layerId = m002;
shapes = (
{
closed = 1;
nodes = (
(289,-12,o),
(325,5,o),
(422,93,cs),
(526,187,l),
(481,231,l),
(276,57,l),
(251,65,l),
(381,740,l),
(118,740,l),
(107,673,l),
(289,673,l),
(177,91,ls),
(175,82,o),
(174,68,o),
(174,59,cs),
(174,18,o),
(195,-12,o),
(249,-12,cs)
);
}
);
userData = {
com.typemytype.robofont.pointLabels = {
};
};
width = 600;
},
{
anchors = (
{
name = bottom;
pos = (270,0);
},
{
name = top;
pos = (326,698);
},
{
name = topright;
pos = (470,740);
}
);
layerId = m003;
shapes = (
{
closed = 1;
nodes = (
(339,-12,o),
(395,27,o),
(462,103,cs),
(523,173,l),
(443,244,l),
(303,101,l),
(288,106,l),
(405,740,l),
(106,740,l),
(87,626,l),
(239,626,l),
(158,188,ls),
(150,147,o),
(148,130,o),
(148,108,cs),
(148,35,o),
(188,-12,o),
(270,-12,cs)
);
}
);
userData = {
com.typemytype.robofont.pointLabels = {
};
};
width = 600;
}
);
unicode = 108;
},
{
glyphname = lslash;
layers = (
{
layerId = m001;
shapes = (
{
closed = 1;
nodes = (
(226,-12,o),
(238,-3,o),
(255,9,cs),
(498,174,l),
(487,189,l),
(222,10,l),
(217,13,l),
(278,327,l),
(456,382,l),
(459,402,l),
(282,348,l),
(358,740,l),
(128,740,l),
(125,721,l),
(333,721,l),
(259,342,l),
(91,290,l),
(88,270,l),
(255,321,l),
(201,42,ls),
(197,21,o),
(196,11,o),
(196,7,cs),
(196,-4,o),
(202,-12,o),
(214,-12,cs)
);
}
);
userData = {
com.typemytype.robofont.pointLabels = {
};
};
width = 600;
},
{
layerId = m002;
shapes = (
{
closed = 1;
nodes = (
(289,-12,o),
(325,5,o),
(422,93,cs),
(526,187,l),
(481,231,l),
(276,57,l),
(251,65,l),
(299,312,l),
(456,360,l),
(467,429,l),
(312,382,l),
(381,740,l),
(118,740,l),
(107,673,l),
(289,673,l),
(228,357,l),
(71,309,l),
(59,240,l),
(215,287,l),
(177,91,ls),
(175,82,o),
(174,68,o),
(174,59,cs),
(174,18,o),
(195,-12,o),
(249,-12,cs)
);
}
);
userData = {
com.typemytype.robofont.pointLabels = {
};
};
width = 600;
},
{
layerId = m003;
shapes = (
{
closed = 1;
nodes = (
(339,-12,o),
(395,27,o),
(462,103,cs),
(523,173,l),
(443,244,l),
(303,101,l),
(288,106,l),
(329,327,l),
(478,372,l),
(496,479,l),
(349,435,l),
(405,740,l),
(106,740,l),
(87,626,l),
(239,626,l),
(196,391,l),
(69,353,l),
(51,246,l),
(176,284,l),
(158,188,ls),
(150,147,o),
(148,130,o),
(148,108,cs),
(148,35,o),
(188,-12,o),
(270,-12,cs)
);
}
);
userData = {
com.typemytype.robofont.pointLabels = {
};
};
width = 600;
}
);
unicode = 322;
},
{
glyphname = m;
layers = (
{
anchors = (
{
name = bottom;
pos = (269,0);
},
{
name = top;
pos = (359,516);
}
);
layerId = m001;
shapes = (
{
closed = 1;
nodes = (
(123,360,ls),
(131,406,o),
(154,441,o),
(174,466,cs),
(195,492,o),
(221,509,o),
(259,509,cs),
(303,509,o),
(329,485,o),
(329,438,cs),
(329,423,o),
(326,404,o),
(323,384,cs),
(259,0,l),
(280,0,l),
(341,366,ls),
(348,406,o),
(367,441,o),
(387,464,cs),
(415,496,o),
(441,509,o),
(474,509,cs),
(521,509,o),
(545,478,o),
(545,431,cs),
(545,418,o),
(543,401,o),
(540,384,cs),
(476,0,l),
(497,0,l),
(562,390,ls),
(564,404,o),
(566,419,o),
(566,431,cs),
(566,487,o),
(533,528,o),
(477,528,cs),
(418,528,o),
(374,484,o),
(350,433,c),
(347,433,l),
(351,493,o),
(319,528,o),
(262,528,cs),
(200,528,o),
(161,481,o),
(139,438,c),
(136,438,l),
(149,516,l),
(128,516,l),
(42,0,l),
(63,0,l)
);
}
);
userData = {
com.typemytype.robofont.pointLabels = {
};
};
width = 600;
},
{
anchors = (
{
name = bottom;
pos = (257,0);
},
{
name = top;
pos = (352,516);
}
);
layerId = m002;
shapes = (
{
closed = 1;
nodes = (
(140,334,ls),
(145,364,o),
(157,397,o),
(176,424,cs),
(192,447,o),
(215,464,o),
(243,464,cs),
(271,464,o),
(285,447,o),
(285,405,cs),
(285,389,o),
(283,370,o),
(279,346,cs),
(221,0,l),
(293,0,l),
(349,334,ls),
(354,364,o),
(366,398,o),
(385,424,cs),
(402,447,o),
(422,464,o),
(450,464,cs),
(480,464,o),
(494,445,o),
(494,408,cs),
(494,394,o),
(491,370,o),
(487,346,cs),
(429,0,l),
(501,0,l),
(561,359,ls),
(565,383,o),
(568,410,o),
(568,429,cs),
(568,492,o),
(537,528,o),
(480,528,cs),
(420,528,o),
(381,489,o),
(355,430,c),
(352,430,l),
(356,486,o),
(331,528,o),
(273,528,cs),
(216,528,o),
(185,487,o),
(161,435,c),
(157,435,l),
(170,516,l),
(98,516,l),
(12,0,l),
(84,0,l)
);
}
);
userData = {
com.typemytype.robofont.pointLabels = {
};
};
width = 600;
},
{
anchors = (
{
name = bottom;
pos = (257,0);
},
{
name = top;
pos = (355,516);
}
);
layerId = m003;
shapes = (
{
closed = 1;
nodes = (
(160,324,ls),
(163,342,o),
(170,366,o),
(184,389,cs),
(200,415,o),
(215,421,o),
(230,421,cs),
(249,421,o),
(259,408,o),
(259,383,cs),
(259,369,o),
(257,353,o),
(255,341,cs),
(198,0,l),
(316,0,l),
(368,312,ls),
(374,348,o),
(381,369,o),
(393,389,cs),
(408,414,o),
(423,421,o),
(440,421,cs),
(458,421,o),
(469,406,o),
(469,382,cs),
(469,369,o),
(467,353,o),
(465,341,cs),
(408,0,l),
(526,0,l),
(585,356,ls),
(589,380,o),
(592,409,o),
(592,432,cs),
(592,495,o),
(563,528,o),
(504,528,cs),
(441,528,o),
(405,484,o),
(380,426,c),
(375,426,l),
(382,494,o),
(350,528,o),
(297,528,cs),
(243,528,o),
(206,486,o),
(183,426,c),
(177,426,l),
(192,516,l),
(74,516,l),
(-12,0,l),
(106,0,l)
);
}
);
userData = {
com.typemytype.robofont.pointLabels = {
};
};
width = 600;
}
);
unicode = 109;
},
{
glyphname = n;
layers = (
{
anchors = (
{
name = bottom;
pos = (262,0);
},
{
name = top;
pos = (349,516);
}
);
layerId = m001;
shapes = (
{
closed = 1;
nodes = (
(161,312,ls),
(171,370,o),
(202,418,o),
(223,444,cs),
(261,492,o),
(310,509,o),
(357,509,cs),
(435,509,o),
(477,468,o),
(477,386,cs),
(477,367,o),
(475,346,o),
(472,329,cs),
(417,0,l),
(438,0,l),
(493,330,ls),
(496,349,o),
(498,368,o),
(498,387,cs),
(498,476,o),
(449,528,o),
(360,528,cs),
(272,528,o),
(218,480,o),
(179,402,c),
(176,402,l),
(195,516,l),
(174,516,l),
(88,0,l),
(109,0,l)
);
}
);
userData = {
com.typemytype.robofont.pointLabels = {
};
};
width = 600;
},
{
anchors = (
{
name = bottom;
pos = (253,0);
},
{
name = top;
pos = (337,516);
}
);
layerId = m002;
shapes = (
{
closed = 1;
nodes = (
(185,285,ls),
(195,344,o),
(233,390,o),
(244,403,cs),
(273,437,o),
(308,459,o),
(353,459,cs),
(411,459,o),
(439,421,o),
(439,360,cs),
(439,349,o),
(438,329,o),
(434,305,cs),
(383,0,l),
(461,0,l),
(513,312,ls),
(517,335,o),
(519,359,o),
(519,379,cs),
(519,473,o),
(465,528,o),
(379,528,cs),
(296,528,o),
(245,476,o),
(207,394,c),
(203,394,l),
(223,516,l),
(145,516,l),
(59,0,l),
(137,0,l)
);
}
);
userData = {
com.typemytype.robofont.pointLabels = {
};
};
width = 600;
},
{
anchors = (
{
name = bottom;
pos = (261,0);
},
{
name = top;
pos = (332,516);
}
);
layerId = m003;
shapes = (
{
closed = 1;
nodes = (
(216,269,ls),
(223,311,o),
(248,349,o),
(263,369,cs),
(286,399,o),
(310,416,o),
(344,416,cs),
(389,416,o),
(404,382,o),
(404,355,cs),
(404,330,o),
(400,311,o),
(397,293,cs),
(348,0,l),
(494,0,l),
(540,275,ls),
(548,323,o),
(551,350,o),
(551,379,cs),
(551,459,o),
(511,528,o),
(410,528,cs),
(328,528,o),
(281,477,o),
(242,393,c),
(237,393,l),
(257,516,l),
(111,516,l),
(25,0,l),
(171,0,l)
);
}
);
userData = {
com.typemytype.robofont.pointLabels = {
};
};
width = 600;
}
);
unicode = 110;
},
{
glyphname = napostrophe;
layers = (
{
layerId = m001;
shapes = (
{
closed = 1;
nodes = (
(109,0,l),
(161,312,ls),
(171,370,o),
(202,418,o),
(223,444,cs),
(261,492,o),
(310,509,o),
(357,509,cs),
(435,509,o),
(477,468,o),
(477,386,cs),
(477,367,o),
(475,346,o),
(472,329,cs),
(417,0,l),
(438,0,l),
(493,330,ls),
(496,349,o),
(498,368,o),
(498,387,cs),
(498,476,o),
(449,528,o),
(360,528,cs),
(272,528,o),
(218,480,o),
(179,402,c),
(176,402,l),
(195,516,l),
(174,516,l),
(88,0,l)
);
},
{
closed = 1;
nodes = (
(60,490,l),
(179,740,l),
(137,740,l),
(42,490,l)
);
}
);
userData = {
com.typemytype.robofont.pointLabels = {
};
};
width = 600;
},
{
layerId = m002;
shapes = (
{
closed = 1;
nodes = (
(137,0,l),
(184,285,ls),
(194,344,o),
(232,390,o),
(243,403,cs),
(272,437,o),
(307,459,o),
(352,459,cs),
(410,459,o),
(439,421,o),
(439,360,cs),
(439,349,o),
(438,331,o),
(434,308,cs),
(383,0,l),
(461,0,l),
(513,315,ls),
(517,342,o),
(519,361,o),
(519,379,cs),
(519,473,o),
(464,528,o),
(378,528,cs),
(295,528,o),
(244,476,o),
(206,394,c),
(202,394,l),
(222,516,l),
(144,516,l),
(59,0,l)
);
},
{
closed = 1;
nodes = (
(104,556,l),
(186,740,l),
(95,740,l),
(52,556,l)
);
}
);
userData = {
com.typemytype.robofont.pointLabels = {
};
};
width = 600;
},
{
layerId = m003;
shapes = (
{
closed = 1;
nodes = (
(220,0,l),
(268,286,ls),
(275,328,o),
(298,364,o),
(313,380,c),
(334,405,o),
(353,415,o),
(382,415,cs),
(420,415,o),
(432,385,o),
(432,361,cs),
(432,336,o),
(430,317,o),
(426,293,cs),
(377,0,l),
(517,0,l),
(564,281,ls),
(572,329,o),
(574,358,o),
(574,388,cs),
(574,463,o),
(538,528,o),
(446,528,cs),
(370,528,o),
(328,482,o),
(293,408,c),
(288,408,l),
(306,516,l),
(166,516,l),
(80,0,l)
);
},
{
closed = 1;
nodes = (
(130,530,l),
(222,740,l),
(93,740,l),
(57,530,l)
);
}
);
userData = {
com.typemytype.robofont.pointLabels = {
};
};
width = 600;
}
);
unicode = 329;
},
{
glyphname = eng;
layers = (
{
anchors = (
{
name = top;
pos = (349,516);
}
);
layerId = m001;
shapes = (
{
closed = 1;
nodes = (
(398,-212,o),
(404,-201,o),
(408,-178,cs),
(493,330,ls),
(496,349,o),
(498,368,o),
(498,387,cs),
(498,476,o),
(449,528,o),
(360,528,cs),
(272,528,o),
(218,480,o),
(179,402,c),
(176,402,l),
(195,516,l),
(174,516,l),
(88,0,l),
(109,0,l),
(161,312,ls),
(171,370,o),
(202,418,o),
(223,444,cs),
(261,492,o),
(310,509,o),
(357,509,cs),
(435,509,o),
(477,468,o),
(477,386,cs),
(477,367,o),
(475,346,o),
(472,329,cs),
(385,-190,l),
(379,-192,l),
(214,-46,l),
(201,-60,l),
(351,-195,ls),
(364,-207,o),
(372,-212,o),
(382,-212,cs)
);
}
);
userData = {
com.typemytype.robofont.pointLabels = {
};
};
width = 600;
},
{
anchors = (
{
name = top;
pos = (337,516);
}
);
layerId = m002;
shapes = (
{
closed = 1;
nodes = (
(407,-212,o),
(434,-163,o),
(443,-107,cs),
(513,312,ls),
(517,335,o),
(519,359,o),
(519,379,cs),
(519,473,o),
(465,528,o),
(379,528,cs),
(296,528,o),
(245,476,o),
(207,394,c),
(203,394,l),
(223,516,l),
(145,516,l),
(59,0,l),
(137,0,l),
(185,285,ls),
(195,344,o),
(233,390,o),
(244,403,cs),
(273,437,o),
(308,459,o),
(353,459,cs),
(411,459,o),
(439,421,o),
(439,360,cs),
(439,349,o),
(438,329,o),
(434,305,cs),
(360,-138,l),
(342,-142,l),
(238,-32,l),
(185,-80,l),
(220,-118,ls),
(275,-177,o),
(305,-212,o),
(347,-212,cs)
);
}
);
userData = {
com.typemytype.robofont.pointLabels = {
};
};
width = 600;
},
{
anchors = (
{
name = top;
pos = (332,516);
}
);
layerId = m003;
shapes = (
{
closed = 1;
nodes = (
(414,-212,o),
(469,-152,o),
(488,-37,c),
(540,275,ls),
(548,323,o),
(551,350,o),
(551,379,cs),
(551,459,o),
(511,528,o),
(410,528,cs),
(328,528,o),
(281,477,o),
(242,393,c),
(237,393,l),
(257,516,l),
(111,516,l),
(25,0,l),
(171,0,l),
(216,269,ls),
(223,311,o),
(248,349,o),
(263,369,cs),
(286,399,o),
(310,416,o),
(344,416,cs),
(389,416,o),
(404,382,o),
(404,355,cs),
(404,330,o),
(400,311,o),
(397,293,cs),
(332,-96,l),
(319,-101,l),
(248,-20,l),
(155,-89,l),
(173,-115,ls),
(208,-166,o),
(251,-212,o),
(318,-212,cs)
);
}
);
userData = {
com.typemytype.robofont.pointLabels = {
};
};
width = 600;
}
);
unicode = 331;
},
{
glyphname = o;
layers = (
{
anchors = (
{
name = bottom;
pos = (266,0);
},
{
name = top;
pos = (333,516);
}
);
layerId = m001;
shapes = (
{
closed = 1;
nodes = (
(420,-12,o),
(518,118,o),
(518,335,cs),
(518,445,o),
(453,528,o),
(334,528,cs),
(180,528,o),
(82,398,o),
(82,181,cs),
(82,71,o),
(147,-12,o),
(266,-12,cs)
);
},
{
closed = 1;
nodes = (
(151,7,o),
(102,86,o),
(102,183,cs),
(102,208,o),
(103,218,o),
(106,237,cs),
(114,286,ls),
(137,425,o),
(213,509,o),
(332,509,cs),
(449,509,o),
(498,430,o),
(498,333,cs),
(498,308,o),
(497,298,o),
(494,279,cs),
(486,230,ls),
(463,91,o),
(387,7,o),
(268,7,cs)
);
}
);
userData = {
com.typemytype.robofont.pointLabels = {
};
};
width = 600;
},
{
anchors = (
{
name = bottom;
pos = (257,0);
},
{
name = top;
pos = (343,516);
}
);
layerId = m002;
shapes = (
{
closed = 1;
nodes = (
(417,-12,o),
(536,113,o),
(536,310,cs),
(536,439,o),
(468,528,o),
(334,528,cs),
(183,528,o),
(64,403,o),
(64,206,cs),
(64,77,o),
(133,-12,o),
(265,-12,cs)
);
},
{
closed = 1;
nodes = (
(192,56,o),
(143,96,o),
(143,183,cs),
(143,195,o),
(144,210,o),
(148,234,cs),
(158,294,ls),
(175,396,o),
(234,460,o),
(331,460,cs),
(408,460,o),
(457,420,o),
(457,333,cs),
(457,321,o),
(456,306,o),
(452,282,cs),
(442,222,ls),
(425,120,o),
(366,56,o),
(269,56,cs)
);
}
);
userData = {
com.typemytype.robofont.pointLabels = {
};
};
width = 600;
},
{
anchors = (
{
name = bottom;
pos = (259,0);
},
{
name = top;
pos = (343,516);
}
);
layerId = m003;
shapes = (
{
closed = 1;
nodes = (
(438,-12,o),
(557,109,o),
(557,306,cs),
(557,442,o),
(475,528,o),
(335,528,cs),
(162,528,o),
(43,407,o),
(43,210,cs),
(43,74,o),
(125,-12,o),
(265,-12,cs)
);
},
{
closed = 1;
nodes = (
(222,97,o),
(188,127,o),
(188,188,cs),
(188,200,o),
(191,217,o),
(193,229,cs),
(206,307,ls),
(218,379,o),
(260,419,o),
(324,419,cs),
(378,419,o),
(412,389,o),
(412,328,cs),
(412,316,o),
(409,299,o),
(407,287,cs),
(394,209,ls),
(382,137,o),
(340,97,o),
(276,97,cs)
);
}
);
userData = {
com.typemytype.robofont.pointLabels = {
};
};
width = 600;
}
);
unicode = 111;
},
{
glyphname = ohorn;
lastChange = "2024-07-30 19:58:51 +0000";
layers = (
{
anchors = (
{
name = bottom;
pos = (266,0);
},
{
name = top;
pos = (333,516);
}
);
layerId = m001;
shapes = (
{
closed = 1;
nodes = (
(420,-12,o),
(518,118,o),
(518,335,cs),
(518,405,o),
(491,464,o),
(441,498,c),
(510,498,ls),
(531,498,o),
(542,507,o),
(545,527,cs),
(561,627,l),
(540,627,l),
(522,516,l),
(406,516,l),
(385,524,o),
(361,528,o),
(334,528,cs),
(180,528,o),
(82,398,o),
(82,181,cs),
(82,71,o),
(147,-12,o),
(266,-12,cs)
);
},
{
closed = 1;
nodes = (
(151,7,o),
(102,86,o),
(102,183,cs),
(102,208,o),
(103,218,o),
(106,237,cs),
(114,286,ls),
(137,425,o),
(213,509,o),
(332,509,cs),
(449,509,o),
(498,430,o),
(498,333,cs),
(498,308,o),
(497,298,o),
(494,279,cs),
(486,230,ls),
(463,91,o),
(387,7,o),
(268,7,cs)
);
}
);
userData = {
com.typemytype.robofont.pointLabels = {
};
};
width = 600;
},
{
anchors = (
{
name = bottom;
pos = (257,0);
},
{
name = top;
pos = (343,516);
}
);
layerId = m002;
shapes = (
{
closed = 1;
nodes = (
(417,-12,o),
(536,113,o),
(536,310,cs),
(536,376,o),
(519,430,o),
(482,468,c),
(508,468,ls),
(557,468,o),
(575,492,o),
(581,526,cs),
(598,627,l),
(529,627,l),
(511,516,l),
(411,516,l),
(389,524,o),
(363,528,o),
(334,528,cs),
(183,528,o),
(64,403,o),
(64,206,cs),
(64,77,o),
(133,-12,o),
(265,-12,cs)
);
},
{
closed = 1;
nodes = (
(192,56,o),
(143,96,o),
(143,183,cs),
(143,195,o),
(144,210,o),
(148,234,cs),
(158,294,ls),
(175,396,o),
(234,460,o),
(331,460,cs),
(408,460,o),
(457,420,o),
(457,333,cs),
(457,321,o),
(456,306,o),
(452,282,cs),
(442,222,ls),
(425,120,o),
(366,56,o),
(269,56,cs)
);
}
);
userData = {
com.typemytype.robofont.pointLabels = {
};
};
width = 600;
},
{
anchors = (
{
name = bottom;
pos = (259,0);
},
{
name = top;
pos = (343,516);
}
);
layerId = m003;
shapes = (
{
closed = 1;
nodes = (
(438,-12,o),
(557,109,o),
(557,306,cs),
(557,361,o),
(545,399,o),
(519,433,c),
(520,433,l),
(589,435,o),
(612,466,o),
(623,528,cs),
(640,631,l),
(517,631,l),
(497,516,l),
(418,516,l),
(393,524,o),
(365,528,o),
(335,528,cs),
(162,528,o),
(43,407,o),
(43,210,cs),
(43,74,o),
(125,-12,o),
(265,-12,cs)
);
},
{
closed = 1;
nodes = (
(222,97,o),
(188,127,o),
(188,188,cs),
(188,200,o),
(191,217,o),
(193,229,cs),
(206,307,ls),
(218,379,o),
(260,419,o),
(324,419,cs),
(378,419,o),
(412,389,o),
(412,328,cs),
(412,316,o),
(409,299,o),
(407,287,cs),
(394,209,ls),
(382,137,o),
(340,97,o),
(276,97,cs)
);
}
);
userData = {
com.typemytype.robofont.pointLabels = {
};
};
width = 600;
}
);
unicode = 417;
},
{
glyphname = oslash;
lastChange = "2024-07-30 20:10:48 +0000";
layers = (
{
anchors = (
{
name = bottom;
pos = (266,0);
},
{
name = top;
pos = (333,516);
}
);
layerId = m001;
shapes = (
{
closed = 1;
nodes = (
(121,54,l),
(152,14,o),
(200,-12,o),
(266,-12,cs),
(420,-12,o),
(518,118,o),
(518,335,cs),
(518,378,o),
(507,416,o),
(489,447,c),
(567,530,l),
(554,542,l),
(479,462,l),
(448,502,o),
(400,528,o),
(334,528,cs),
(180,528,o),
(82,398,o),
(82,181,cs),
(82,138,o),
(93,100,o),
(111,69,c),
(33,-14,l),
(46,-26,l)
);
},
{
closed = 1;
nodes = (
(396,509,o),
(440,486,o),
(466,448,c),
(124,83,l),
(109,112,o),
(102,146,o),
(102,183,cs),
(102,208,o),
(103,218,o),
(106,237,cs),
(114,286,ls),
(137,425,o),
(213,509,o),
(332,509,cs)
);
},
{
closed = 1;
nodes = (
(204,7,o),
(160,30,o),
(134,68,c),
(476,433,l),
(491,404,o),
(498,370,o),
(498,333,cs),
(498,308,o),
(497,298,o),
(494,279,cs),
(486,230,ls),
(463,91,o),
(387,7,o),
(268,7,cs)
);
}
);
userData = {
com.typemytype.robofont.pointLabels = {
};
};
width = 600;
},
{
anchors = (
{
name = bottom;
pos = (257,0);
},
{
name = top;
pos = (343,516);
}
);
layerId = m002;
shapes = (
{
closed = 1;
nodes = (
(123,40,l),
(157,7,o),
(204,-12,o),
(265,-12,cs),
(417,-12,o),
(536,113,o),
(536,310,cs),
(536,357,o),
(526,398,o),
(509,431,c),
(592,516,l),
(549,550,l),
(477,476,l),
(443,509,o),
(396,528,o),
(335,528,cs),
(183,528,o),
(64,403,o),
(64,206,cs),
(64,159,o),
(74,118,o),
(91,85,c),
(8,0,l),
(51,-34,l)
);
},
{
closed = 1;
nodes = (
(371,460,o),
(404,449,o),
(426,426,c),
(148,140,l),
(144,153,o),
(143,167,o),
(143,183,cs),
(143,195,o),
(144,210,o),
(148,234,cs),
(158,294,ls),
(175,396,o),
(234,460,o),
(331,460,cs)
);
},
{
closed = 1;
nodes = (
(229,56,o),
(196,67,o),
(174,90,c),
(452,376,l),
(456,363,o),
(457,349,o),
(457,333,cs),
(457,321,o),
(456,306,o),
(452,282,cs),
(442,222,ls),
(425,120,o),
(366,56,o),
(269,56,cs)
);
}
);
userData = {
com.typemytype.robofont.pointLabels = {
};
};
width = 600;
},
{
anchors = (
{
name = bottom;
pos = (259,0);
},
{
name = top;
pos = (300,516);
}
);
layerId = m003;
shapes = (
{
closed = 1;
nodes = (
(131,24,l),
(167,0,o),
(212,-12,o),
(265,-12,cs),
(438,-12,o),
(557,109,o),
(557,306,cs),
(557,351,o),
(548,391,o),
(531,424,c),
(618,513,l),
(550,574,l),
(469,492,l),
(433,516,o),
(388,528,o),
(335,528,cs),
(162,528,o),
(43,407,o),
(43,210,cs),
(43,165,o),
(52,125,o),
(69,92,c),
(-18,3,l),
(50,-58,l)
);
},
{
closed = 1;
nodes = (
(347,419,o),
(367,413,o),
(381,403,c),
(189,204,l),
(189,205,o),
(190,210,o),
(191,216,cs),
(192,220,o),
(192,226,o),
(193,229,cs),
(206,307,ls),
(218,379,o),
(260,419,o),
(324,419,cs)
);
},
{
closed = 1;
nodes = (
(253,97,o),
(233,103,o),
(219,113,c),
(411,312,l),
(411,311,o),
(410,306,o),
(409,300,cs),
(408,295,o),
(407,290,o),
(407,287,cs),
(394,209,ls),
(382,137,o),
(341,97,o),
(276,97,cs)
);
}
);
userData = {
com.typemytype.robofont.pointLabels = {
};
};
width = 600;
}
);
unicode = 248;
},
{
glyphname = oe;
layers = (
{
layerId = m001;
shapes = (
{
closed = 1;
nodes = (
(473,-12,o),
(521,44,o),
(554,115,c),
(536,123,l),
(503,51,o),
(459,7,o),
(396,7,cs),
(340,7,o),
(303,50,o),
(303,152,cs),
(303,176,o),
(306,204,o),
(312,237,cs),
(314,248,l),
(511,253,o),
(595,311,o),
(595,426,cs),
(595,483,o),
(559,528,o),
(495,528,cs),
(424,528,o),
(359,484,o),
(323,371,c),
(320,371,l),
(321,473,o),
(278,528,o),
(215,528,cs),
(100,528,o),
(24,373,o),
(24,155,cs),
(24,38,o),
(66,-12,o),
(132,-12,cs),
(195,-12,o),
(253,34,o),
(283,128,c),
(286,128,l),
(289,35,o),
(333,-12,o),
(396,-12,cs)
);
},
{
closed = 1;
nodes = (
(72,7,o),
(43,58,o),
(43,156,cs),
(43,178,o),
(43,202,o),
(48,231,cs),
(57,287,ls),
(82,442,o),
(144,509,o),
(214,509,cs),
(274,509,o),
(303,458,o),
(303,360,cs),
(303,338,o),
(303,314,o),
(298,285,cs),
(289,229,ls),
(264,74,o),
(202,7,o),
(132,7,cs)
);
},
{
closed = 1;
nodes = (
(542,509,o),
(574,478,o),
(574,425,cs),
(574,313,o),
(489,269,o),
(317,266,c),
(319,282,ls),
(337,427,o),
(411,509,o),
(492,509,cs)
);
}
);
userData = {
com.typemytype.robofont.pointLabels = {
};
};
width = 600;
},
{
layerId = m002;
shapes = (
{
closed = 1;
nodes = (
(488,-12,o),
(541,48,o),
(571,114,c),
(517,141,l),
(491,91,o),
(463,50,o),
(411,50,cs),
(361,50,o),
(333,88,o),
(333,159,cs),
(333,172,o),
(334,194,o),
(337,212,cs),
(341,236,l),
(546,242,o),
(606,324,o),
(606,408,cs),
(606,485,o),
(555,528,o),
(486,528,cs),
(423,528,o),
(373,491,o),
(339,427,c),
(335,427,l),
(330,475,o),
(297,528,o),
(224,528,cs),
(90,528,o),
(20,349,o),
(20,183,cs),
(20,71,o),
(52,-12,o),
(145,-12,cs),
(215,-12,o),
(265,34,o),
(283,98,c),
(288,98,l),
(294,25,o),
(343,-12,o),
(407,-12,cs)
);
},
{
closed = 1;
nodes = (
(116,47,o),
(88,75,o),
(88,146,cs),
(88,159,o),
(89,183,o),
(93,207,cs),
(110,310,ls),
(129,423,o),
(168,469,o),
(219,469,cs),
(260,469,o),
(288,441,o),
(288,370,cs),
(288,357,o),
(287,333,o),
(283,309,cs),
(266,206,ls),
(247,93,o),
(208,47,o),
(157,47,cs)
);
},
{
closed = 1;
nodes = (
(520,469,o),
(540,446,o),
(540,406,cs),
(540,345,o),
(495,294,o),
(349,289,c),
(352,307,ls),
(365,392,o),
(410,469,o),
(481,469,cs)
);
}
);
userData = {
com.typemytype.robofont.pointLabels = {
};
};
width = 600;
},
{
layerId = m003;
shapes = (
{
closed = 1;
nodes = (
(484,-12,o),
(540,37,o),
(574,118,c),
(483,157,l),
(467,116,o),
(440,83,o),
(405,83,cs),
(367,83,o),
(347,115,o),
(347,165,cs),
(347,180,o),
(348,197,o),
(351,215,cs),
(353,226,l),
(567,231,o),
(607,324,o),
(607,399,cs),
(607,471,o),
(552,528,o),
(468,528,cs),
(409,528,o),
(361,501,o),
(332,457,c),
(328,457,l),
(314,502,o),
(274,528,o),
(219,528,cs),
(85,528,o),
(9,387,o),
(9,176,cs),
(9,44,o),
(67,-12,o),
(152,-12,cs),
(222,-12,o),
(261,35,o),
(273,66,c),
(278,66,l),
(296,12,o),
(339,-12,o),
(399,-12,cs)
);
},
{
closed = 1;
nodes = (
(134,83,o),
(116,106,o),
(116,149,cs),
(116,161,o),
(117,176,o),
(119,188,cs),
(142,326,ls),
(155,404,o),
(179,433,o),
(216,433,cs),
(246,433,o),
(264,410,o),
(264,367,cs),
(264,355,o),
(263,342,o),
(261,328,cs),
(238,190,ls),
(225,112,o),
(201,83,o),
(164,83,cs)
);
},
{
closed = 1;
nodes = (
(481,439,o),
(501,422,o),
(501,393,cs),
(501,341,o),
(462,307,o),
(366,303,c),
(367,310,ls),
(382,400,o),
(412,439,o),
(450,439,cs)
);
}
);
userData = {
com.typemytype.robofont.pointLabels = {
};
};
width = 600;
}
);
unicode = 339;
},
{
glyphname = p;
layers = (
{
anchors = (
{
name = top;
pos = (355,516);
}
);
layerId = m001;
shapes = (
{
closed = 1;
nodes = (
(68,-200,l),
(116,93,l),
(119,93,l),
(139,32,o),
(195,-12,o),
(286,-12,cs),
(432,-12,o),
(528,132,o),
(528,330,cs),
(528,444,o),
(469,528,o),
(355,528,cs),
(264,528,o),
(210,476,o),
(171,401,c),
(168,401,l),
(187,516,l),
(166,516,l),
(47,-200,l)
);
},
{
closed = 1;
nodes = (
(158,7,o),
(117,92,o),
(128,161,cs),
(153,312,ls),
(164,378,o),
(202,433,o),
(241,468,cs),
(274,497,o),
(311,509,o),
(355,509,cs),
(464,509,o),
(508,427,o),
(508,330,cs),
(508,313,o),
(507,296,o),
(504,279,cs),
(496,230,ls),
(475,104,o),
(400,7,o),
(286,7,cs)
);
}
);
userData = {
com.typemytype.robofont.pointLabels = {
};
};
width = 600;
},
{
anchors = (
{
name = top;
pos = (375,516);
}
);
layerId = m002;
shapes = (
{
closed = 1;
nodes = (
(97,-200,l),
(146,90,l),
(149,90,l),
(171,23,o),
(224,-12,o),
(300,-12,cs),
(482,-12,o),
(544,190,o),
(544,328,cs),
(544,460,o),
(487,528,o),
(383,528,cs),
(292,528,o),
(240,475,o),
(200,394,c),
(197,394,l),
(217,516,l),
(139,516,l),
(19,-200,l)
);
},
{
closed = 1;
nodes = (
(200,57,o),
(147,98,o),
(159,170,cs),
(178,284,ls),
(186,332,o),
(209,373,o),
(235,402,cs),
(271,442,o),
(313,459,o),
(356,459,cs),
(428,459,o),
(465,413,o),
(465,336,cs),
(465,323,o),
(464,309,o),
(461,291,cs),
(449,219,ls),
(433,123,o),
(376,57,o),
(277,57,cs)
);
}
);
userData = {
com.typemytype.robofont.pointLabels = {
};
};
width = 600;
},
{
anchors = (
{
name = top;
pos = (403,516);
}
);
layerId = m003;
shapes = (
{
closed = 1;
nodes = (
(133,-200,l),
(183,96,l),
(190,96,l),
(205,28,o),
(244,-12,o),
(325,-12,cs),
(468,-12,o),
(562,123,o),
(562,328,cs),
(562,449,o),
(520,528,o),
(411,528,cs),
(323,528,o),
(277,472,o),
(238,393,c),
(233,393,l),
(253,516,l),
(107,516,l),
(-13,-200,l)
);
},
{
closed = 1;
nodes = (
(215,101,o),
(189,132,o),
(198,186,c),
(212,269,l),
(219,312,o),
(243,347,o),
(259,366,cs),
(283,396,o),
(310,415,o),
(346,415,cs),
(396,415,o),
(413,377,o),
(414,328,cs),
(414,311,o),
(412,295,o),
(410,283,cs),
(400,223,ls),
(387,145,o),
(350,101,o),
(278,101,cs)
);
}
);
userData = {
com.typemytype.robofont.pointLabels = {
};
};
width = 600;
}
);
unicode = 112;
},
{
glyphname = thorn;
layers = (
{
layerId = m001;
shapes = (
{
closed = 1;
nodes = (
(68,-200,l),
(116,93,l),
(119,93,l),
(139,32,o),
(195,-12,o),
(286,-12,cs),
(432,-12,o),
(528,132,o),
(528,330,cs),
(528,444,o),
(469,528,o),
(355,528,cs),
(264,528,o),
(210,476,o),
(171,401,c),
(168,401,l),
(224,740,l),
(203,740,l),
(47,-200,l)
);
},
{
closed = 1;
nodes = (
(158,7,o),
(117,92,o),
(128,161,cs),
(153,312,ls),
(164,378,o),
(202,433,o),
(241,468,cs),
(274,497,o),
(311,509,o),
(355,509,cs),
(464,509,o),
(508,427,o),
(508,330,cs),
(508,313,o),
(507,296,o),
(504,279,cs),
(496,230,ls),
(475,104,o),
(400,7,o),
(286,7,cs)
);
}
);
userData = {
com.typemytype.robofont.pointLabels = {
};
};
width = 600;
},
{
layerId = m002;
shapes = (
{
closed = 1;
nodes = (
(97,-200,l),
(146,90,l),
(149,90,l),
(171,23,o),
(224,-12,o),
(300,-12,cs),
(482,-12,o),
(544,190,o),
(544,328,cs),
(544,460,o),
(487,528,o),
(383,528,cs),
(292,528,o),
(240,475,o),
(200,394,c),
(197,394,l),
(255,740,l),
(177,740,l),
(19,-200,l)
);
},
{
closed = 1;
nodes = (
(200,57,o),
(147,98,o),
(159,170,cs),
(178,284,ls),
(186,332,o),
(209,373,o),
(235,402,cs),
(271,442,o),
(313,459,o),
(356,459,cs),
(428,459,o),
(465,413,o),
(465,336,cs),
(465,323,o),
(464,309,o),
(461,291,cs),
(449,219,ls),
(433,123,o),
(376,57,o),
(277,57,cs)
);
}
);
userData = {
com.typemytype.robofont.pointLabels = {
};
};
width = 600;
},
{
layerId = m003;
shapes = (
{
closed = 1;
nodes = (
(133,-200,l),
(183,96,l),
(190,96,l),
(205,28,o),
(244,-12,o),
(325,-12,cs),
(468,-12,o),
(562,123,o),
(562,328,cs),
(562,449,o),
(520,528,o),
(411,528,cs),
(323,528,o),
(277,472,o),
(238,393,c),
(233,393,l),
(290,740,l),
(144,740,l),
(-13,-200,l)
);
},
{
closed = 1;
nodes = (
(215,101,o),
(189,132,o),
(198,186,cs),
(212,269,l),
(219,312,o),
(243,347,o),
(259,366,cs),
(283,396,o),
(310,415,o),
(346,415,cs),
(396,415,o),
(413,377,o),
(414,328,cs),
(414,311,o),
(412,295,o),
(410,283,cs),
(400,223,ls),
(387,145,o),
(350,101,o),
(278,101,cs)
);
}
);
userData = {
com.typemytype.robofont.pointLabels = {
};
};
width = 600;
}
);
unicode = 254;
},
{
glyphname = q;
layers = (
{
anchors = (
{
name = top;
pos = (313,516);
}
);
layerId = m001;
shapes = (
{
closed = 1;
nodes = (
(400,-200,l),
(519,516,l),
(498,516,l),
(483,423,l),
(480,423,l),
(460,484,o),
(404,528,o),
(313,528,cs),
(167,528,o),
(71,384,o),
(71,186,cs),
(71,72,o),
(130,-12,o),
(244,-12,cs),
(335,-12,o),
(389,40,o),
(428,115,c),
(431,115,l),
(379,-200,l)
);
},
{
closed = 1;
nodes = (
(135,7,o),
(91,89,o),
(91,186,cs),
(91,203,o),
(92,220,o),
(95,237,cs),
(103,286,ls),
(124,412,o),
(199,509,o),
(313,509,cs),
(441,509,o),
(482,424,o),
(471,355,cs),
(446,204,ls),
(435,138,o),
(397,83,o),
(358,48,cs),
(325,19,o),
(288,7,o),
(244,7,cs)
);
}
);
userData = {
com.typemytype.robofont.pointLabels = {
};
};
width = 600;
},
{
anchors = (
{
name = top;
pos = (309,516);
}
);
layerId = m002;
shapes = (
{
closed = 1;
nodes = (
(427,-200,l),
(547,516,l),
(469,516,l),
(454,426,l),
(451,426,l),
(429,493,o),
(376,528,o),
(300,528,cs),
(118,528,o),
(56,326,o),
(56,188,cs),
(56,56,o),
(113,-12,o),
(217,-12,cs),
(308,-12,o),
(360,41,o),
(400,122,c),
(403,122,l),
(349,-200,l)
);
},
{
closed = 1;
nodes = (
(172,57,o),
(135,103,o),
(135,180,cs),
(135,193,o),
(136,207,o),
(139,225,cs),
(151,297,ls),
(167,393,o),
(224,459,o),
(323,459,cs),
(400,459,o),
(453,418,o),
(441,346,cs),
(422,232,ls),
(414,184,o),
(391,143,o),
(365,114,cs),
(329,74,o),
(287,57,o),
(244,57,cs)
);
}
);
userData = {
com.typemytype.robofont.pointLabels = {
};
};
width = 600;
},
{
anchors = (
{
name = top;
pos = (282,516);
}
);
layerId = m003;
shapes = (
{
closed = 1;
nodes = (
(460,-200,l),
(579,516,l),
(433,516,l),
(417,420,l),
(410,420,l),
(395,488,o),
(356,528,o),
(275,528,cs),
(132,528,o),
(38,393,o),
(38,188,cs),
(38,67,o),
(80,-12,o),
(189,-12,cs),
(277,-12,o),
(323,44,o),
(362,123,c),
(367,123,l),
(314,-200,l)
);
},
{
closed = 1;
nodes = (
(204,101,o),
(187,139,o),
(186,188,cs),
(186,205,o),
(188,221,o),
(190,233,cs),
(200,293,ls),
(213,371,o),
(250,415,o),
(322,415,cs),
(385,415,o),
(411,384,o),
(402,330,c),
(388,247,l),
(381,204,o),
(357,169,o),
(341,150,cs),
(317,120,o),
(290,101,o),
(254,101,cs)
);
}
);
userData = {
com.typemytype.robofont.pointLabels = {
};
};
width = 600;
}
);
unicode = 113;
},
{
glyphname = r;
layers = (
{
anchors = (
{
name = bottom;
pos = (225,0);
},
{
name = top;
pos = (365,516);
}
);
layerId = m001;
shapes = (
{
closed = 1;
nodes = (
(296,359,ls),
(304,408,o),
(331,443,o),
(367,466,cs),
(399,487,o),
(438,497,o),
(477,497,cs),
(596,497,l),
(599,516,l),
(480,516,ls),
(388,516,o),
(348,483,o),
(310,429,c),
(307,429,l),
(322,516,l),
(123,516,l),
(120,497,l),
(298,497,l),
(215,0,l),
(236,0,l)
);
}
);
userData = {
com.typemytype.robofont.pointLabels = {
};
};
width = 600;
},
{
anchors = (
{
name = bottom;
pos = (218,0);
},
{
name = top;
pos = (369,516);
}
);
layerId = m002;
shapes = (
{
closed = 1;
nodes = (
(301,269,ls),
(311,329,o),
(347,371,o),
(360,386,cs),
(391,422,o),
(428,438,o),
(488,438,cs),
(576,438,l),
(589,516,l),
(511,516,ls),
(412,516,o),
(360,460,o),
(324,378,c),
(319,378,l),
(342,516,l),
(119,516,l),
(108,449,l),
(253,449,l),
(178,0,l),
(256,0,l)
);
}
);
userData = {
com.typemytype.robofont.pointLabels = {
};
};
width = 600;
},
{
anchors = (
{
name = bottom;
pos = (217,0);
},
{
name = top;
pos = (356,516);
}
);
layerId = m003;
shapes = (
{
closed = 1;
nodes = (
(331,236,ls),
(337,272,o),
(359,309,o),
(372,325,cs),
(396,355,o),
(426,370,o),
(480,370,cs),
(571,370,l),
(597,516,l),
(563,516,ls),
(462,516,o),
(400,458,o),
(357,360,c),
(351,360,l),
(378,516,l),
(114,516,l),
(95,402,l),
(213,402,l),
(146,0,l),
(292,0,l)
);
}
);
userData = {
com.typemytype.robofont.pointLabels = {
};
};
width = 600;
}
);
unicode = 114;
},
{
glyphname = s;
layers = (
{
anchors = (
{
name = bottom;
pos = (275,0);
},
{
name = top;
pos = (334,516);
}
);
layerId = m001;
shapes = (
{
closed = 1;
nodes = (
(404,-12,o),
(499,41,o),
(499,154,cs),
(499,236,o),
(440,266,o),
(358,273,cs),
(280,280,ls),
(200,287,o),
(156,312,o),
(156,380,cs),
(156,468,o),
(224,509,o),
(329,509,cs),
(431,509,o),
(481,474,o),
(510,433,c),
(526,447,l),
(494,489,o),
(438,528,o),
(330,528,cs),
(224,528,o),
(135,486,o),
(135,380,cs),
(135,298,o),
(193,268,o),
(275,261,cs),
(353,254,ls),
(433,247,o),
(478,221,o),
(478,153,cs),
(478,56,o),
(401,7,o),
(285,7,cs),
(190,7,o),
(122,34,o),
(80,102,c),
(63,90,l),
(108,21,o),
(182,-12,o),
(285,-12,cs)
);
}
);
userData = {
com.typemytype.robofont.pointLabels = {
};
};
width = 600;
},
{
anchors = (
{
name = bottom;
pos = (272,0);
},
{
name = top;
pos = (336,516);
}
);
layerId = m002;
shapes = (
{
closed = 1;
nodes = (
(406,-12,o),
(499,54,o),
(499,161,cs),
(499,263,o),
(414,279,o),
(348,290,cs),
(275,302,ls),
(233,309,o),
(195,320,o),
(195,370,cs),
(195,426,o),
(242,462,o),
(331,462,cs),
(418,462,o),
(460,428,o),
(478,401,c),
(533,449,l),
(494,498,o),
(430,528,o),
(340,528,cs),
(218,528,o),
(119,473,o),
(119,364,cs),
(119,268,o),
(197,243,o),
(272,232,cs),
(347,221,ls),
(389,215,o),
(422,201,o),
(422,153,cs),
(422,91,o),
(366,54,o),
(275,54,cs),
(197,54,o),
(146,81,o),
(106,131,c),
(48,85,l),
(93,23,o),
(168,-12,o),
(268,-12,cs)
);
}
);
userData = {
com.typemytype.robofont.pointLabels = {
};
};
width = 600;
},
{
anchors = (
{
name = bottom;
pos = (263,0);
},
{
name = top;
pos = (335,516);
}
);
layerId = m003;
shapes = (
{
closed = 1;
nodes = (
(412,-12,o),
(511,56,o),
(511,170,cs),
(511,254,o),
(458,290,o),
(372,309,cs),
(295,326,ls),
(263,333,o),
(244,341,o),
(244,369,cs),
(244,406,o),
(278,425,o),
(330,425,cs),
(388,425,o),
(436,402,o),
(459,373,c),
(539,455,l),
(504,500,o),
(426,528,o),
(334,528,c),
(200,528,o),
(100,466,o),
(100,350,cs),
(100,259,o),
(161,226,o),
(239,209,cs),
(313,193,ls),
(344,186,o),
(366,176,o),
(366,148,cs),
(366,111,o),
(328,91,o),
(268,91,cs),
(207,91,o),
(152,112,o),
(123,153,c),
(41,72,l),
(76,18,o),
(155,-12,o),
(258,-12,cs)
);
}
);
userData = {
com.typemytype.robofont.pointLabels = {
};
};
width = 600;
}
);
unicode = 115;
},
{
glyphname = scedilla;
lastChange = "2024-07-30 20:11:56 +0000";
layers = (
{
anchors = (
{
name = top;
pos = (334,516);
}
);
layerId = m001;
shapes = (
{
closed = 1;
nodes = (
(298,-202,o),
(333,-167,o),
(333,-126,cs),
(333,-93,o),
(311,-72,o),
(274,-72,cs),
(266,-72,o),
(254,-73,o),
(245,-75,c),
(243,-73,l),
(269,-12,l),
(275,-12,o),
(279,-12,o),
(285,-12,cs),
(404,-12,o),
(499,41,o),
(499,154,cs),
(499,236,o),
(440,266,o),
(358,273,cs),
(280,280,ls),
(200,287,o),
(156,312,o),
(156,380,cs),
(156,468,o),
(224,509,o),
(329,509,cs),
(431,509,o),
(481,474,o),
(510,433,c),
(526,447,l),
(494,489,o),
(438,528,o),
(330,528,cs),
(224,528,o),
(135,486,o),
(135,380,cs),
(135,298,o),
(193,268,o),
(275,261,cs),
(353,254,ls),
(433,247,o),
(478,221,o),
(478,153,cs),
(478,56,o),
(401,7,o),
(285,7,cs),
(190,7,o),
(122,34,o),
(80,102,c),
(63,90,l),
(103,28,o),
(165,-4,o),
(251,-11,c),
(221,-84,l),
(259,-86,ls),
(298,-88,o),
(312,-104,o),
(312,-127,cs),
(312,-160,o),
(284,-184,o),
(241,-184,cs),
(213,-184,o),
(192,-174,o),
(179,-157,c),
(165,-170,l),
(177,-187,o),
(204,-202,o),
(241,-202,cs)
);
}
);
userData = {
com.typemytype.robofont.pointLabels = {
};
};
width = 600;
},
{
anchors = (
{
name = top;
pos = (336,516);
}
);
layerId = m002;
shapes = (
{
closed = 1;
nodes = (
(318,-207,o),
(372,-181,o),
(372,-119,cs),
(372,-80,o),
(350,-60,o),
(313,-60,cs),
(305,-60,o),
(290,-61,o),
(276,-64,c),
(274,-61,l),
(292,-11,l),
(292,-11,o),
(293,-11,o),
(293,-11,cs),
(417,-4,o),
(499,60,o),
(499,161,cs),
(499,263,o),
(414,279,o),
(348,290,cs),
(275,302,ls),
(233,309,o),
(195,320,o),
(195,370,cs),
(195,426,o),
(242,462,o),
(331,462,cs),
(418,462,o),
(460,428,o),
(478,401,c),
(533,449,l),
(494,498,o),
(430,528,o),
(340,528,cs),
(218,528,o),
(119,473,o),
(119,364,cs),
(119,268,o),
(197,243,o),
(272,232,cs),
(347,221,ls),
(389,215,o),
(422,201,o),
(422,153,cs),
(422,91,o),
(366,54,o),
(275,54,cs),
(197,54,o),
(146,81,o),
(106,131,c),
(48,85,l),
(89,28,o),
(154,-5,o),
(241,-11,c),
(218,-76,l),
(247,-80,ls),
(298,-87,o),
(307,-105,o),
(307,-119,cs),
(307,-141,o),
(286,-153,o),
(257,-153,cs),
(228,-153,o),
(211,-141,o),
(201,-126,c),
(161,-166,l),
(174,-187,o),
(205,-207,o),
(257,-207,cs)
);
}
);
userData = {
com.typemytype.robofont.pointLabels = {
};
};
width = 600;
},
{
anchors = (
{
name = top;
pos = (335,516);
}
);
layerId = m003;
shapes = (
{
closed = 1;
nodes = (
(326,-212,o),
(388,-178,o),
(388,-110,cs),
(388,-74,o),
(359,-52,o),
(322,-52,cs),
(309,-52,o),
(295,-54,o),
(280,-59,c),
(277,-55,l),
(293,-11,l),
(293,-11,o),
(294,-11,o),
(294,-11,cs),
(426,-1,o),
(511,64,o),
(511,172,cs),
(511,255,o),
(456,290,o),
(372,309,cs),
(295,326,ls),
(261,333,o),
(244,343,o),
(244,368,cs),
(244,406,o),
(277,425,o),
(330,425,cs),
(388,425,o),
(436,402,o),
(459,373,c),
(539,455,l),
(504,500,o),
(426,528,o),
(334,528,cs),
(200,528,o),
(100,466,o),
(100,349,cs),
(100,261,o),
(158,227,o),
(239,209,cs),
(313,193,ls),
(346,186,o),
(366,174,o),
(366,149,cs),
(366,111,o),
(328,91,o),
(269,91,cs),
(207,91,o),
(152,112,o),
(123,153,c),
(41,72,l),
(72,24,o),
(138,-5,o),
(225,-11,c),
(201,-74,l),
(224,-76,ls),
(276,-81,o),
(292,-95,o),
(292,-112,cs),
(292,-132,o),
(271,-141,o),
(242,-141,cs),
(212,-141,o),
(191,-125,o),
(181,-113,c),
(130,-166,l),
(149,-191,o),
(189,-212,o),
(245,-212,cs)
);
}
);
userData = {
com.typemytype.robofont.pointLabels = {
};
};
width = 600;
}
);
unicode = 351;
},
{
glyphname = germandbls;
lastChange = "2024-08-03 11:11:37 +0000";
layers = (
{
guides = (
{
}
);
layerId = m001;
shapes = (
{
closed = 1;
nodes = (
(178,521,ls),
(209,677,o),
(289,733,o),
(375,733,cs),
(462,733,o),
(497,688,o),
(497,620,cs),
(497,602,o),
(495,579,o),
(489,557,cs),
(469,483,o),
(409,415,o),
(321,415,cs),
(237,415,l),
(233,396,l),
(318,396,ls),
(414,396,o),
(462,337,o),
(462,263,cs),
(462,245,o),
(460,223,o),
(456,199,cs),
(439,97,o),
(371,7,o),
(253,7,cs),
(212,7,o),
(180,17,o),
(157,33,c),
(153,14,l),
(178,-2,o),
(212,-12,o),
(253,-12,cs),
(385,-12,o),
(483,98,o),
(483,263,cs),
(483,333,o),
(441,392,o),
(369,404,c),
(369,407,l),
(445,427,o),
(518,506,o),
(518,620,cs),
(518,687,o),
(481,752,o),
(377,752,cs),
(255,752,o),
(185,661,o),
(157,521,cs),
(50,-12,l),
(71,-12,l)
);
}
);
width = 600;
},
{
layerId = m002;
shapes = (
{
closed = 1;
nodes = (
(219,527,ls),
(241,635,o),
(297,682,o),
(364,682,cs),
(430,682,o),
(457,650,o),
(457,600,cs),
(457,585,o),
(454,565,o),
(450,547,cs),
(435,479,o),
(403,437,o),
(308,437,cs),
(273,437,l),
(259,369,l),
(295,369,ls),
(379,369,o),
(421,330,o),
(421,247,cs),
(421,223,o),
(419,206,o),
(416,189,cs),
(399,94,o),
(340,58,o),
(262,58,cs),
(236,58,o),
(214,63,o),
(197,71,c),
(185,11,l),
(209,-4,o),
(238,-12,o),
(269,-12,cs),
(405,-12,o),
(500,85,o),
(500,227,cs),
(500,331,o),
(456,387,o),
(372,403,c),
(373,407,l),
(463,421,o),
(536,482,o),
(536,600,cs),
(536,696,o),
(474,752,o),
(374,752,cs),
(245,752,o),
(169,661,o),
(140,517,cs),
(34,-12,l),
(111,-12,l)
);
}
);
width = 600;
},
{
guides = (
{
angle = 258.3664;
pos = (299,434);
}
);
layerId = m003;
shapes = (
{
closed = 1;
nodes = (
(256,510,l),
(276,610,o),
(320,639,o),
(370,639,cs),
(408,639,o),
(432,615,o),
(432,577,cs),
(432,563,o),
(430,548,o),
(423,516,cs),
(411,462,o),
(377,434,o),
(338,434,cs),
(299,434,l),
(276,323,l),
(321,323,ls),
(375,323,o),
(399,298,o),
(399,254,cs),
(399,240,o),
(397,225,o),
(391,193,cs),
(379,129,o),
(342,101,o),
(278,101,cs),
(260,101,o),
(244,103,o),
(232,108,c),
(214,21,l),
(238,1,o),
(272,-12,o),
(316,-12,cs),
(452,-12,o),
(538,117,o),
(538,231,cs),
(538,315,o),
(496,362,o),
(424,378,c),
(425,383,l),
(511,409,o),
(571,472,o),
(571,574,cs),
(571,686,o),
(505,752,o),
(381,752,cs),
(253,752,o),
(149,676,o),
(115,506,cs),
(12,-12,l),
(152,-12,l)
);
}
);
width = 600;
}
);
unicode = 223;
},
{
glyphname = longs;
layers = (
{
layerId = m001;
shapes = (
{
closed = 1;
nodes = (
(225,-212,o),
(231,-201,o),
(235,-178,cs),
(385,721,l),
(610,721,l),
(613,740,l),
(394,740,ls),
(374,740,o),
(365,732,o),
(362,711,cs),
(330,516,l),
(137,516,l),
(134,497,l),
(327,497,l),
(212,-191,l),
(206,-193,l),
(4,-12,l),
(-10,-26,l),
(178,-195,ls),
(191,-206,o),
(199,-212,o),
(209,-212,cs)
);
}
);
userData = {
com.typemytype.robofont.pointLabels = {
};
};
width = 600;
},
{
layerId = m002;
shapes = (
{
closed = 1;
nodes = (
(256,-212,o),
(283,-163,o),
(292,-107,cs),
(422,673,l),
(630,673,l),
(641,740,l),
(468,740,ls),
(391,740,o),
(347,691,o),
(336,623,cs),
(318,516,l),
(134,516,l),
(123,449,l),
(307,449,l),
(209,-138,l),
(191,-142,l),
(37,22,l),
(-16,-26,l),
(45,-93,ls),
(125,-180,o),
(154,-212,o),
(196,-212,cs)
);
}
);
userData = {
com.typemytype.robofont.pointLabels = {
};
};
width = 600;
},
{
layerId = m003;
shapes = (
{
closed = 1;
nodes = (
(257,-212,o),
(315,-165,o),
(334,-53,cs),
(448,626,l),
(634,626,l),
(653,740,l),
(475,740,ls),
(368,740,o),
(311,680,o),
(297,594,cs),
(284,516,l),
(121,516,l),
(102,402,l),
(265,402,l),
(183,-92,l),
(171,-97,l),
(68,39,l),
(-32,-30,l),
(9,-89,ls),
(61,-163,o),
(100,-212,o),
(173,-212,cs)
);
}
);
userData = {
com.typemytype.robofont.pointLabels = {
};
};
width = 600;
}
);
unicode = 383;
},
{
glyphname = t;
layers = (
{
anchors = (
{
name = bottom;
pos = (213,0);
},
{
name = topright;
pos = (473,760);
}
);
layerId = m001;
shapes = (
{
closed = 1;
nodes = (
(226,-12,o),
(238,-2,o),
(256,9,cs),
(512,167,l),
(502,183,l),
(221,10,l),
(216,13,l),
(298,497,l),
(562,497,l),
(565,516,l),
(301,516,l),
(331,698,l),
(310,698,l),
(285,545,ls),
(282,525,o),
(271,516,o),
(251,516,cs),
(79,516,l),
(76,497,l),
(277,497,l),
(200,42,ls),
(196,18,o),
(195,11,o),
(195,6,cs),
(195,-4,o),
(201,-12,o),
(213,-12,cs)
);
}
);
userData = {
com.typemytype.robofont.pointLabels = {
};
};
width = 600;
},
{
anchors = (
{
name = bottom;
pos = (233,0);
},
{
name = topright;
pos = (454,760);
}
);
layerId = m002;
shapes = (
{
closed = 1;
nodes = (
(280,-12,o),
(320,9,o),
(413,75,cs),
(526,155,l),
(487,205,l),
(262,55,l),
(242,67,l),
(306,449,l),
(519,449,l),
(530,516,l),
(317,516,l),
(348,698,l),
(274,698,l),
(251,563,ls),
(245,528,o),
(229,516,o),
(195,516,cs),
(90,516,l),
(79,449,l),
(228,449,l),
(168,101,ls),
(166,90,o),
(165,71,o),
(165,62,cs),
(165,14,o),
(192,-12,o),
(239,-12,cs)
);
}
);
userData = {
com.typemytype.robofont.pointLabels = {
};
};
width = 600;
},
{
anchors = (
{
name = bottom;
pos = (281,0);
},
{
name = topright;
pos = (466,780);
}
);
layerId = m003;
shapes = (
{
closed = 1;
nodes = (
(349,-12,o),
(397,23,o),
(482,96,cs),
(542,148,l),
(470,230,l),
(314,107,l),
(294,114,l),
(342,402,l),
(544,402,l),
(563,516,l),
(361,516,l),
(391,698,l),
(255,698,l),
(235,576,ls),
(228,531,o),
(208,516,o),
(165,516,cs),
(82,516,l),
(63,402,l),
(195,402,l),
(158,182,ls),
(153,152,o),
(151,134,o),
(151,116,cs),
(151,39,o),
(190,-12,o),
(278,-12,cs)
);
}
);
userData = {
com.typemytype.robofont.pointLabels = {
};
};
width = 600;
}
);
unicode = 116;
},
{
glyphname = tbar;
layers = (
{
anchors = (
{
name = bottom;
pos = (213,0);
},
{
name = topright;
pos = (473,760);
}
);
layerId = m001;
shapes = (
{
closed = 1;
nodes = (
(226,-12,o),
(238,-2,o),
(256,9,cs),
(512,167,l),
(502,183,l),
(221,10,l),
(216,13,l),
(262,283,l),
(455,283,l),
(458,301,l),
(265,301,l),
(298,497,l),
(562,497,l),
(565,516,l),
(301,516,l),
(331,698,l),
(310,698,l),
(285,545,ls),
(282,525,o),
(271,516,o),
(251,516,cs),
(79,516,l),
(76,497,l),
(277,497,l),
(244,301,l),
(114,301,l),
(111,283,l),
(241,283,l),
(200,42,ls),
(196,18,o),
(195,11,o),
(195,6,cs),
(195,-4,o),
(201,-12,o),
(213,-12,cs)
);
}
);
userData = {
com.typemytype.robofont.pointLabels = {
};
};
width = 600;
},
{
anchors = (
{
name = bottom;
pos = (233,0);
},
{
name = topright;
pos = (454,760);
}
);
layerId = m002;
shapes = (
{
closed = 1;
nodes = (
(280,-12,o),
(320,9,o),
(413,75,cs),
(526,155,l),
(487,205,l),
(262,55,l),
(242,67,l),
(275,268,l),
(427,268,l),
(437,329,l),
(286,329,l),
(306,449,l),
(519,449,l),
(530,516,l),
(317,516,l),
(348,698,l),
(274,698,l),
(251,563,ls),
(245,528,o),
(229,516,o),
(195,516,cs),
(90,516,l),
(79,449,l),
(228,449,l),
(207,329,l),
(109,329,l),
(99,268,l),
(197,268,l),
(168,101,ls),
(166,90,o),
(165,71,o),
(165,62,cs),
(165,14,o),
(192,-12,o),
(239,-12,cs)
);
}
);
userData = {
com.typemytype.robofont.pointLabels = {
};
};
width = 600;
},
{
anchors = (
{
name = bottom;
pos = (281,0);
},
{
name = topright;
pos = (466,780);
}
);
layerId = m003;
shapes = (
{
closed = 1;
nodes = (
(339,-12,o),
(390,15,o),
(462,65,cs),
(524,108,l),
(459,193,l),
(309,103,l),
(294,112,l),
(316,243,l),
(459,243,l),
(476,343,l),
(332,343,l),
(342,402,l),
(544,402,l),
(563,516,l),
(361,516,l),
(391,698,l),
(255,698,l),
(235,576,ls),
(228,531,o),
(208,516,o),
(165,516,cs),
(82,516,l),
(63,402,l),
(195,402,l),
(185,343,l),
(93,343,l),
(76,243,l),
(168,243,l),
(158,182,ls),
(153,152,o),
(151,134,o),
(151,116,cs),
(151,39,o),
(191,-12,o),
(281,-12,cs)
);
}
);
userData = {
com.typemytype.robofont.pointLabels = {
};
};
width = 600;
}
);
unicode = 359;
},
{
glyphname = tcedilla;
layers = (
{
anchors = (
{
name = topright;
pos = (473,760);
}
);
layerId = m001;
shapes = (
{
closed = 1;
nodes = (
(246,-202,o),
(281,-167,o),
(281,-126,cs),
(281,-93,o),
(259,-72,o),
(222,-72,cs),
(214,-72,o),
(202,-73,o),
(193,-75,c),
(191,-73,l),
(216,-12,l),
(228,-10,o),
(239,-1,o),
(256,9,cs),
(512,167,l),
(502,183,l),
(221,10,l),
(216,13,l),
(298,497,l),
(562,497,l),
(565,516,l),
(301,516,l),
(331,698,l),
(310,698,l),
(285,545,ls),
(282,525,o),
(271,516,o),
(251,516,cs),
(79,516,l),
(76,497,l),
(277,497,l),
(200,42,ls),
(196,18,o),
(195,11,o),
(195,6,cs),
(195,0,o),
(196,-4,o),
(200,-8,c),
(169,-84,l),
(207,-86,ls),
(246,-88,o),
(260,-104,o),
(260,-127,cs),
(260,-160,o),
(232,-184,o),
(189,-184,cs),
(161,-184,o),
(140,-174,o),
(127,-157,c),
(113,-170,l),
(125,-187,o),
(152,-202,o),
(189,-202,cs)
);
}
);
userData = {
com.typemytype.robofont.pointLabels = {
};
};
width = 600;
},
{
anchors = (
{
name = topright;
pos = (454,760);
}
);
layerId = m002;
shapes = (
{
closed = 1;
nodes = (
(279,-207,o),
(333,-181,o),
(333,-119,cs),
(333,-80,o),
(311,-60,o),
(274,-60,cs),
(266,-60,o),
(251,-61,o),
(237,-64,c),
(235,-61,l),
(253,-11,l),
(290,-7,o),
(330,16,o),
(413,75,cs),
(526,155,l),
(487,205,l),
(262,55,l),
(242,67,l),
(306,449,l),
(519,449,l),
(530,516,l),
(317,516,l),
(348,698,l),
(274,698,l),
(251,563,ls),
(245,528,o),
(229,516,o),
(195,516,cs),
(90,516,l),
(79,449,l),
(228,449,l),
(168,101,ls),
(166,90,o),
(165,71,o),
(165,62,cs),
(165,27,o),
(179,4,o),
(204,-6,c),
(179,-76,l),
(208,-80,ls),
(259,-87,o),
(268,-105,o),
(268,-119,cs),
(268,-141,o),
(247,-153,o),
(218,-153,cs),
(189,-153,o),
(172,-141,o),
(162,-126,c),
(122,-166,l),
(135,-187,o),
(166,-207,o),
(218,-207,cs)
);
}
);
userData = {
com.typemytype.robofont.pointLabels = {
};
};
width = 600;
},
{
anchors = (
{
name = topright;
pos = (466,780);
}
);
layerId = m003;
shapes = (
{
closed = 1;
nodes = (
(345,-212,o),
(406,-175,o),
(406,-114,cs),
(406,-70,o),
(375,-52,o),
(339,-52,cs),
(327,-52,o),
(313,-54,o),
(298,-59,c),
(295,-55,l),
(311,-9,l),
(366,0,o),
(411,35,o),
(482,96,cs),
(542,148,l),
(470,230,l),
(314,107,l),
(294,114,l),
(342,402,l),
(544,402,l),
(563,516,l),
(361,516,l),
(391,698,l),
(255,698,l),
(235,576,ls),
(228,531,o),
(208,516,o),
(165,516,cs),
(82,516,l),
(63,402,l),
(195,402,l),
(158,182,ls),
(153,152,o),
(151,134,o),
(151,116,cs),
(151,49,o),
(180,3,o),
(244,-9,c),
(219,-74,l),
(242,-76,ls),
(297,-81,o),
(310,-97,o),
(310,-112,cs),
(310,-132,o),
(288,-141,o),
(263,-141,cs),
(229,-141,o),
(209,-125,o),
(199,-113,c),
(148,-166,l),
(167,-191,o),
(206,-212,o),
(266,-212,cs)
);
}
);
userData = {
com.typemytype.robofont.pointLabels = {
};
};
width = 600;
}
);
unicode = 355;
},
{
glyphname = u;
layers = (
{
anchors = (
{
name = bottom;
pos = (252,0);
},
{
name = bottomright;
pos = (426,0);
},
{
name = top;
pos = (338,516);
}
);
layerId = m001;
shapes = (
{
closed = 1;
nodes = (
(426,0,l),
(512,516,l),
(491,516,l),
(439,204,ls),
(429,146,o),
(398,98,o),
(377,72,cs),
(339,24,o),
(290,7,o),
(243,7,cs),
(165,7,o),
(123,48,o),
(123,130,cs),
(123,149,o),
(125,170,o),
(128,187,cs),
(183,516,l),
(162,516,l),
(107,186,ls),
(104,167,o),
(102,148,o),
(102,129,cs),
(102,40,o),
(151,-12,o),
(240,-12,cs),
(328,-12,o),
(382,36,o),
(421,114,c),
(424,114,l),
(405,0,l)
);
}
);
userData = {
com.typemytype.robofont.pointLabels = {
};
};
width = 600;
},
{
anchors = (
{
name = bottom;
pos = (261,0);
},
{
name = bottomright;
pos = (457,0);
},
{
name = top;
pos = (340,516);
}
);
layerId = m002;
shapes = (
{
closed = 1;
nodes = (
(457,0,l),
(543,516,l),
(465,516,l),
(417,231,ls),
(407,172,o),
(369,126,o),
(358,113,cs),
(329,79,o),
(294,57,o),
(249,57,cs),
(191,57,o),
(163,95,o),
(163,156,cs),
(163,167,o),
(164,187,o),
(168,211,cs),
(219,516,l),
(141,516,l),
(89,204,ls),
(85,181,o),
(83,157,o),
(83,137,cs),
(83,43,o),
(137,-12,o),
(223,-12,cs),
(306,-12,o),
(357,40,o),
(395,122,c),
(399,122,l),
(379,0,l)
);
}
);
userData = {
com.typemytype.robofont.pointLabels = {
};
};
width = 600;
},
{
anchors = (
{
name = bottom;
pos = (267,0);
},
{
name = bottomright;
pos = (488,0);
},
{
name = top;
pos = (338,516);
}
);
layerId = m003;
shapes = (
{
closed = 1;
nodes = (
(488,0,l),
(574,516,l),
(428,516,l),
(383,247,ls),
(376,205,o),
(351,167,o),
(336,147,cs),
(313,117,o),
(289,100,o),
(255,100,cs),
(210,100,o),
(195,134,o),
(195,161,cs),
(195,186,o),
(199,206,o),
(202,224,cs),
(251,516,l),
(105,516,l),
(59,241,ls),
(51,193,o),
(48,166,o),
(48,137,cs),
(48,57,o),
(88,-12,o),
(189,-12,cs),
(271,-12,o),
(318,39,o),
(357,123,c),
(362,123,l),
(342,0,l)
);
}
);
userData = {
com.typemytype.robofont.pointLabels = {
};
};
width = 600;
}
);
unicode = 117;
},
{
glyphname = uhorn;
lastChange = "2024-07-30 20:13:58 +0000";
layers = (
{
anchors = (
{
name = bottom;
pos = (252,0);
},
{
name = top;
pos = (338,516);
}
);
layerId = m001;
shapes = (
{
closed = 1;
nodes = (
(328,-12,o),
(382,36,o),
(421,114,c),
(424,114,l),
(405,0,l),
(426,0,l),
(509,498,l),
(576,498,ls),
(597,498,o),
(608,506,o),
(611,527,cs),
(627,627,l),
(606,627,l),
(588,516,l),
(491,516,l),
(439,204,ls),
(429,146,o),
(398,98,o),
(377,72,cs),
(339,24,o),
(290,7,o),
(243,7,cs),
(165,7,o),
(123,48,o),
(123,130,cs),
(123,149,o),
(125,170,o),
(128,187,cs),
(183,516,l),
(162,516,l),
(107,186,ls),
(104,167,o),
(102,148,o),
(102,129,cs),
(102,40,o),
(151,-12,o),
(240,-12,cs)
);
}
);
userData = {
com.typemytype.robofont.pointLabels = {
};
};
width = 600;
},
{
anchors = (
{
name = bottom;
pos = (261,0);
},
{
name = top;
pos = (340,516);
}
);
layerId = m002;
shapes = (
{
closed = 1;
nodes = (
(306,-12,o),
(357,40,o),
(395,122,c),
(399,122,l),
(379,0,l),
(457,0,l),
(534,464,l),
(558,464,ls),
(607,464,o),
(624,492,o),
(630,526,cs),
(647,627,l),
(578,627,l),
(560,516,l),
(465,516,l),
(417,231,ls),
(407,172,o),
(369,126,o),
(358,113,cs),
(329,79,o),
(294,57,o),
(249,57,cs),
(191,57,o),
(163,95,o),
(163,156,cs),
(163,167,o),
(164,187,o),
(168,211,cs),
(219,516,l),
(141,516,l),
(89,204,ls),
(85,181,o),
(83,157,o),
(83,137,cs),
(83,43,o),
(137,-12,o),
(223,-12,cs)
);
}
);
userData = {
com.typemytype.robofont.pointLabels = {
};
};
width = 600;
},
{
anchors = (
{
name = bottom;
pos = (267,0);
},
{
name = top;
pos = (338,516);
}
);
layerId = m003;
shapes = (
{
closed = 1;
nodes = (
(271,-12,o),
(318,39,o),
(357,123,c),
(362,123,l),
(342,0,l),
(488,0,l),
(560,432,l),
(561,432,l),
(609,441,o),
(628,474,o),
(637,528,cs),
(654,631,l),
(531,631,l),
(511,516,l),
(428,516,l),
(383,247,ls),
(376,205,o),
(351,167,o),
(336,147,cs),
(313,117,o),
(289,100,o),
(255,100,cs),
(210,100,o),
(195,134,o),
(195,161,cs),
(195,186,o),
(199,206,o),
(202,224,cs),
(251,516,l),
(105,516,l),
(59,241,ls),
(51,193,o),
(48,166,o),
(48,137,cs),
(48,57,o),
(88,-12,o),
(189,-12,cs)
);
}
);
userData = {
com.typemytype.robofont.pointLabels = {
};
};
width = 600;
}
);
unicode = 432;
},
{
glyphname = uogonek;
lastChange = "2024-07-30 20:14:28 +0000";
layers = (
{
anchors = (
{
name = bottom;
pos = (252,0);
},
{
name = top;
pos = (338,516);
}
);
layerId = m001;
shapes = (
{
closed = 1;
nodes = (
(491,516,l),
(439,204,ls),
(429,146,o),
(398,98,o),
(377,72,cs),
(339,24,o),
(290,7,o),
(243,7,cs),
(165,7,o),
(123,48,o),
(123,130,cs),
(123,149,o),
(125,170,o),
(128,187,cs),
(183,516,l),
(162,516,l),
(107,186,ls),
(104,167,o),
(102,148,o),
(102,129,cs),
(102,40,o),
(151,-12,o),
(240,-12,cs),
(328,-12,o),
(382,36,o),
(421,114,c),
(424,114,l),
(405,2,l),
(405,2,l),
(405,2,l),
(284,-59,o),
(261,-100,o),
(261,-137,cs),
(261,-182,o),
(294,-202,o),
(335,-202,cs),
(369,-202,o),
(397,-188,o),
(412,-170,c),
(399,-159,l),
(387,-171,o),
(367,-184,o),
(335,-184,cs),
(306,-184,o),
(282,-169,o),
(282,-137,cs),
(282,-86,o),
(325,-58,o),
(426,0,c),
(512,516,l)
);
}
);
userData = {
com.typemytype.robofont.pointLabels = {
};
};
width = 600;
},
{
anchors = (
{
name = bottom;
pos = (261,0);
},
{
name = top;
pos = (340,516);
}
);
layerId = m002;
shapes = (
{
closed = 1;
nodes = (
(465,516,l),
(417,231,ls),
(407,172,o),
(369,126,o),
(358,113,cs),
(329,79,o),
(294,57,o),
(249,57,cs),
(191,57,o),
(163,95,o),
(163,156,cs),
(163,167,o),
(164,187,o),
(168,211,cs),
(219,516,l),
(141,516,l),
(89,204,ls),
(85,181,o),
(83,157,o),
(83,137,cs),
(83,43,o),
(138,-12,o),
(224,-12,cs),
(307,-12,o),
(357,40,o),
(395,122,c),
(399,122,l),
(379,0,l),
(395,0,l),
(394,-5,l),
(319,-39,o),
(269,-77,o),
(269,-132,cs),
(269,-186,o),
(316,-207,o),
(367,-207,cs),
(414,-207,o),
(447,-189,o),
(465,-170,c),
(427,-127,l),
(408,-144,o),
(388,-153,o),
(371,-153,cs),
(353,-153,o),
(337,-144,o),
(337,-122,cs),
(337,-101,o),
(350,-70,o),
(457,0,c),
(543,516,l)
);
}
);
userData = {
com.typemytype.robofont.pointLabels = {
};
};
width = 600;
},
{
anchors = (
{
name = bottom;
pos = (267,0);
},
{
name = top;
pos = (338,516);
}
);
layerId = m003;
shapes = (
{
closed = 1;
nodes = (
(428,516,l),
(383,247,ls),
(376,205,o),
(351,167,o),
(336,147,cs),
(312,116,o),
(289,100,o),
(255,100,cs),
(210,100,o),
(195,134,o),
(195,161,cs),
(195,186,o),
(199,206,o),
(202,224,cs),
(251,516,l),
(105,516,l),
(59,241,ls),
(51,193,o),
(48,166,o),
(48,137,cs),
(48,57,o),
(88,-12,o),
(189,-12,cs),
(271,-12,o),
(318,39,o),
(357,123,c),
(362,123,l),
(342,0,l),
(412,0,l),
(413,-4,l),
(314,-30,o),
(273,-78,o),
(273,-127,cs),
(273,-182,o),
(324,-212,o),
(395,-212,cs),
(452,-212,o),
(491,-190,o),
(516,-158,c),
(462,-113,l),
(448,-134,o),
(429,-140,o),
(409,-140,cs),
(383,-140,o),
(372,-127,o),
(372,-110,cs),
(372,-90,o),
(383,-63,o),
(488,0,c),
(574,516,l)
);
}
);
userData = {
com.typemytype.robofont.pointLabels = {
};
};
width = 600;
}
);
unicode = 371;
},
{
glyphname = v;
layers = (
{
anchors = (
{
name = bottom;
pos = (242,0);
},
{
name = top;
pos = (337,516);
}
);
layerId = m001;
shapes = (
{
closed = 1;
nodes = (
(84,497,l),
(211,497,l),
(146,42,ls),
(144,29,o),
(143,22,o),
(143,17,cs),
(143,4,o),
(154,-4,o),
(176,-4,cs),
(372,-4,o),
(530,184,o),
(530,406,cs),
(530,441,o),
(524,488,o),
(512,520,c),
(492,512,l),
(503,483,o),
(510,445,o),
(510,406,cs),
(510,205,o),
(370,13,o),
(170,13,c),
(163,19,l),
(234,516,l),
(87,516,l)
);
}
);
userData = {
com.typemytype.robofont.pointLabels = {
};
};
width = 600;
},
{
anchors = (
{
name = bottom;
pos = (246,0);
},
{
name = top;
pos = (336,516);
}
);
layerId = m002;
shapes = (
{
closed = 1;
nodes = (
(66,449,l),
(176,449,l),
(124,101,ls),
(122,89,o),
(120,74,o),
(120,64,cs),
(120,19,o),
(145,-8,o),
(197,-8,cs),
(383,-8,o),
(541,167,o),
(541,377,cs),
(541,431,o),
(529,482,o),
(508,522,c),
(433,500,l),
(452,463,o),
(461,418,o),
(461,373,cs),
(461,224,o),
(374,75,o),
(208,53,c),
(195,62,l),
(263,516,l),
(77,516,l)
);
}
);
userData = {
com.typemytype.robofont.pointLabels = {
};
};
width = 600;
},
{
anchors = (
{
name = bottom;
pos = (238,0);
},
{
name = top;
pos = (339,516);
}
);
layerId = m003;
shapes = (
{
closed = 1;
nodes = (
(36,402,l),
(125,402,l),
(90,172,ls),
(86,147,o),
(84,133,o),
(84,111,cs),
(84,36,o),
(126,-12,o),
(211,-12,cs),
(385,-12,o),
(553,146,o),
(553,350,cs),
(553,423,o),
(536,486,o),
(502,528,c),
(372,480,l),
(393,441,o),
(406,395,o),
(406,350,cs),
(406,242,o),
(360,133,o),
(233,88,c),
(221,96,l),
(286,516,l),
(55,516,l)
);
}
);
userData = {
com.typemytype.robofont.pointLabels = {
};
};
width = 600;
}
);
unicode = 118;
},
{
glyphname = w;
layers = (
{
anchors = (
{
name = bottom;
pos = (275,0);
},
{
name = top;
pos = (362,516);
}
);
layerId = m001;
shapes = (
{
closed = 1;
nodes = (
(221,-12,o),
(265,30,o),
(288,98,c),
(291,98,l),
(287,23,o),
(327,-12,o),
(379,-12,cs),
(434,-12,o),
(476,19,o),
(506,67,cs),
(548,133,o),
(566,232,o),
(566,336,cs),
(566,410,o),
(553,476,o),
(534,519,c),
(514,513,l),
(534,471,o),
(545,402,o),
(545,336,cs),
(545,156,o),
(486,7,o),
(380,7,cs),
(332,7,o),
(308,42,o),
(308,90,cs),
(308,115,o),
(311,144,o),
(315,169,cs),
(373,516,l),
(352,516,l),
(294,168,ls),
(288,131,o),
(275,94,o),
(256,65,cs),
(234,31,o),
(202,7,o),
(162,7,cs),
(122,7,o),
(94,33,o),
(94,79,cs),
(94,103,o),
(96,120,o),
(102,158,cs),
(162,516,l),
(141,516,l),
(82,162,ls),
(78,136,o),
(73,104,o),
(73,78,cs),
(73,27,o),
(103,-12,o),
(160,-12,cs)
);
}
);
userData = {
com.typemytype.robofont.pointLabels = {
};
};
width = 600;
},
{
anchors = (
{
name = bottom;
pos = (247,0);
},
{
name = top;
pos = (348,516);
}
);
layerId = m002;
shapes = (
{
closed = 1;
nodes = (
(196,-10,o),
(231,30,o),
(260,95,c),
(265,95,l),
(260,17,o),
(296,-10,o),
(350,-10,cs),
(405,-10,o),
(453,16,o),
(489,66,cs),
(539,136,o),
(567,251,o),
(567,371,cs),
(567,432,o),
(556,486,o),
(540,521,c),
(474,501,l),
(489,469,o),
(497,417,o),
(497,367,cs),
(497,220,o),
(441,54,o),
(366,54,cs),
(335,54,o),
(322,71,o),
(322,112,cs),
(322,129,o),
(323,148,o),
(327,173,cs),
(383,516,l),
(315,516,l),
(258,186,ls),
(253,160,o),
(244,120,o),
(225,94,cs),
(207,70,o),
(188,54,o),
(161,54,cs),
(132,54,o),
(116,71,o),
(116,111,cs),
(116,129,o),
(118,150,o),
(122,173,cs),
(178,516,l),
(108,516,l),
(49,159,ls),
(45,133,o),
(43,113,o),
(43,92,cs),
(43,30,o),
(73,-10,o),
(133,-10,cs)
);
}
);
userData = {
com.typemytype.robofont.pointLabels = {
};
};
width = 600;
},
{
anchors = (
{
name = bottom;
pos = (225,0);
},
{
name = top;
pos = (336,516);
}
);
layerId = m003;
shapes = (
{
closed = 1;
nodes = (
(167,-12,o),
(211,25,o),
(235,98,c),
(242,98,l),
(239,39,o),
(265,-12,o),
(337,-12,cs),
(392,-12,o),
(448,18,o),
(491,72,cs),
(545,140,o),
(579,246,o),
(579,365,cs),
(579,433,o),
(565,487,o),
(545,524,c),
(443,494,l),
(455,461,o),
(461,413,o),
(461,366,cs),
(461,229,o),
(412,103,o),
(363,103,cs),
(341,103,o),
(333,120,o),
(333,139,cs),
(333,148,o),
(336,171,o),
(338,182,cs),
(392,516,l),
(279,516,l),
(231,206,ls),
(228,183,o),
(220,160,o),
(211,146,cs),
(196,122,o),
(180,107,o),
(160,107,cs),
(138,107,o),
(129,121,o),
(129,142,cs),
(129,154,o),
(131,176,o),
(133,187,cs),
(194,516,l),
(76,516,l),
(22,192,ls),
(17,160,o),
(13,115,o),
(13,97,cs),
(13,32,o),
(42,-12,o),
(108,-12,cs)
);
}
);
userData = {
com.typemytype.robofont.pointLabels = {
};
};
width = 600;
}
);
unicode = 119;
},
